<svg id="Layer_1" data-name="Layer 1" xmlns="http://www.w3.org/2000/svg" viewBox="0 0 779 1676"><g id="Group_4" data-name="Group 4"><g id="Group_3" data-name="Group 3"><path id="Path_33" data-name="Path 33" d="M692.63,1442.68a97.55,97.55,0,0,0,3.4-103.77c-20.41-23.81-73.14-3.4-101.2,11.07a10.45,10.45,0,0,0-5.94,9.35C585.48,1401,580.33,1458.84,571,1509a11.54,11.54,0,0,0,12.84,13.61A151,151,0,0,0,692.63,1442.68ZM109.21,1256.44c0-52.73,217.72-54.44,242.4-54.44S594,1203.69,594,1256.44V1276c0,9.35,7.66,20.41,17.87,15.3h0c55.27-26.36,93.56-17,121.61,17.87l.86.86c30.62,42.52,30.62,100.36,0,155.63a213.74,213.74,0,0,1-64.63,71.44,196.61,196.61,0,0,1-97.79,37.42,65.9,65.9,0,0,0-29.77,24.68,60.24,60.24,0,0,1-5.09,7.66c-1.69,4.28-2.55,6-2.55,6-6.81,11.06-24.67,19.56-58.68,25.51a750.78,750.78,0,0,1-125,9.35,740,740,0,0,1-124.12-9.35c-36.57-6.81-55.28-15.3-59.54-28.91C120.28,1553.25,109.21,1301.51,109.21,1256.44Zm242.4-29.77a728.32,728.32,0,0,0-192.21,19.56,11.52,11.52,0,0,0,0,22.11,756.92,756.92,0,0,0,192.21,19.56,712.6,712.6,0,0,0,192.21-20.42,11.51,11.51,0,0,0,0-22.1A779.77,779.77,0,0,0,351.61,1226.67Z"/></g></g><path id="Path_34" data-name="Path 34" d="M164.9,759.08l8,19c58.66,142.7,118.91,288.56,152.2,439.18v1.58a33.11,33.11,0,0,0,12.69,25.37,31.33,31.33,0,0,0,22.19,9.51h3.18a33,33,0,0,0,30.12-33.3v-1.58c33.3-157,98.29-312.34,160.13-461.41l11.11-27c9.51-23.79,20.61-45.94,31.7-69.75A1023.33,1023.33,0,0,0,666,476.83a361.62,361.62,0,0,0,6.33-158.53A311.42,311.42,0,0,0,359.91,63.06,328.08,328.08,0,0,0,74.53,231.13C-6.32,381.76,66.54,541.87,130,683A811,811,0,0,1,164.9,759.08ZM134.78,261.25A258.63,258.63,0,0,1,359.91,129.66,247.89,247.89,0,0,1,607.24,329.4a306.18,306.18,0,0,1-6.34,130,1023.89,1023.89,0,0,1-65,171.22c-11.11,23.79-22.19,47.56-31.7,71.35L493.1,728.93c-47.56,114.16-96.72,231.49-133.17,350.4-34.88-112.58-79.28-222-123.66-328.18l-8-19c-11.11-25.37-22.19-52.31-34.88-80.86C131.62,521.26,69.84,383.31,134.78,261.25Z"/><path id="Path_35" data-name="Path 35" d="M361.51,529.19a157,157,0,1,0-157-157h0a156.3,156.3,0,0,0,155.64,157Zm0-245.69a88.79,88.79,0,1,1-88.79,88.79h0a88.65,88.65,0,0,1,88.45-88.85h.34Z"/></svg>