<svg height='100px' width='100px'  fill="#000000" xmlns="http://www.w3.org/2000/svg" xmlns:xlink="http://www.w3.org/1999/xlink" version="1.1" x="0px" y="0px" viewBox="602 396.355 100 91.145" enable-background="new 602 396.355 100 91.145" xml:space="preserve"><path d="M671.467,447.012c0,0,3.018-9.278-19.386-11.748c1.3-1.999,2.248-4.712,1.467-8.025c-1.073-4.561-2.989-4.567-3.417-8.289  c-0.423-3.722,1.466-10.974,1.466-10.974s-6.531,6.643-6.095,10.974c0.421,4.332,1.396,4.802,3.659,8.787  c1.134,2.006,0.879,4.898,0.339,7.278c-0.699-0.056-4.788-0.007-6.013,0.084c0.498-1.287,0.872-2.796,0.9-4.554  c0.062-4.04-2.401-3.666-2.739-6.655c-0.341-2.989,1.176-8.808,1.176-8.808s-5.237,5.334-4.899,8.808  c0.346,3.473,1.128,3.847,2.935,7.043c0.691,1.21,0.74,2.823,0.539,4.359c-20.88,2.172-20.376,10.709-20.376,10.709  s2.533,30.706,27.004,29.861c13.312-0.844,16.01-8.268,16.01-8.268s17.947,0.678,18.909-12.481  C683.706,444.611,671.467,447.012,671.467,447.012z M646.753,453.508c-12.909,0-23.363-3.812-23.363-8.516  c0-4,7.569-7.342,17.76-8.262c-0.415,1.896-1.065,3.404-1.065,3.404s1.495-1.231,2.719-3.529c1.287-0.083,2.602-0.131,3.95-0.131  c0.797,0,1.578,0.021,2.359,0.048c-0.463,1.578-0.934,2.672-0.934,2.672s1.439-0.9,2.865-2.567  c10.854,0.733,19.081,4.2,19.081,8.365C670.125,449.696,659.664,453.508,646.753,453.508z M678.725,459.154  c-1.508,2.636-10.627,3.218-10.627,3.218l3.369-8.795c0,0,4.726-3.016,7.258-0.996C681.25,454.608,680.233,456.538,678.725,459.154z  "></path></svg>