<svg height='100px' width='100px'  fill="#000000" xmlns="http://www.w3.org/2000/svg" viewBox="0 0 100 100" x="0px" y="0px"><title>Artboard 1 copy 49</title><g data-name="Layer 1"><path d="M72.84,24.44H59.55v-1.5a4.66,4.66,0,0,0-4.65-4.67H45.1a4.66,4.66,0,0,0-4.65,4.67v1.5H27.16a1.5,1.5,0,0,0,0,3h2l4.36,52.92A1.5,1.5,0,0,0,35,81.73H65a1.5,1.5,0,0,0,1.5-1.38l4.36-52.92h2a1.5,1.5,0,0,0,0-3Zm-29.38-1.5a1.66,1.66,0,0,1,1.65-1.67h9.8a1.66,1.66,0,0,1,1.65,1.67v1.5H43.45Zm20.13,55.8H36.42l-4.23-51.3H67.82Z"></path><path d="M50,33.46A1.5,1.5,0,0,0,48.5,35V71.21a1.5,1.5,0,0,0,3,0V35A1.5,1.5,0,0,0,50,33.46Z"></path><path d="M42,33.46a1.5,1.5,0,0,0-1.5,1.5V71.21a1.5,1.5,0,0,0,3,0V35A1.5,1.5,0,0,0,42,33.46Z"></path><path d="M58,33.46a1.5,1.5,0,0,0-1.5,1.5V71.21a1.5,1.5,0,0,0,3,0V35A1.5,1.5,0,0,0,58,33.46Z"></path></g></svg>