<svg height='100px' width='100px'  fill="#000000" xmlns="http://www.w3.org/2000/svg" xmlns:xlink="http://www.w3.org/1999/xlink" viewBox="0 0 24 24" version="1.1" x="0px" y="0px"><title>icon/timer-00</title><desc>Created with Sketch.</desc><g stroke="none" stroke-width="1" fill="none" fill-rule="evenodd"><path d="M12,20.5 C12,20.7761424 11.7761424,21 11.5,21 C11.2238576,21 11,20.7761424 11,20.5 L11,18.5 C11,18.2238576 11.2238576,18 11.5,18 C11.7761424,18 12,18.2238576 12,18.5 L12,20.5 Z M11,2.5 C11,2.22385763 11.2238576,2 11.5,2 C11.7761424,2 12,2.22385763 12,2.5 L12,11.5 C12,11.7761424 11.7761424,12 11.5,12 C11.2238576,12 11,11.7761424 11,11.5 L11,2.5 Z M20.5,11 C20.7761424,11 21,11.2238576 21,11.5 C21,11.7761424 20.7761424,12 20.5,12 L18.5,12 C18.2238576,12 18,11.7761424 18,11.5 C18,11.2238576 18.2238576,11 18.5,11 L20.5,11 Z M2.5,12 C2.22385763,12 2,11.7761424 2,11.5 C2,11.2238576 2.22385763,11 2.5,11 L4.5,11 C4.77614237,11 5,11.2238576 5,11.5 C5,11.7761424 4.77614237,12 4.5,12 L2.5,12 Z M7.43300953,19.5444055 C7.2949353,19.7835501 6.98913906,19.8654838 6.7499945,19.7274095 C6.51084994,19.5893353 6.42891625,19.2835391 6.56699047,19.0443945 L7.56699047,17.3123945 C7.7050647,17.0732499 8.01086094,16.9913162 8.2500055,17.1293905 C8.48915006,17.2674647 8.57108375,17.5732609 8.43300953,17.8124055 L7.43300953,19.5444055 Z M15.5669905,3.4555945 C15.7050647,3.21644994 16.0108609,3.13451625 16.2500055,3.27259047 C16.4891501,3.4106647 16.5710838,3.71646094 16.4330095,3.9556055 L15.4330095,5.6876055 C15.2949353,5.92675006 14.9891391,6.00868375 14.7499945,5.87060953 C14.5108499,5.7325353 14.4289162,5.42673906 14.5669905,5.1875945 L15.5669905,3.4555945 Z M19.5444055,15.5669905 C19.7835501,15.7050647 19.8654838,16.0108609 19.7274095,16.2500055 C19.5893353,16.4891501 19.2835391,16.5710838 19.0443945,16.4330095 L17.3123945,15.4330095 C17.0732499,15.2949353 16.9913162,14.9891391 17.1293905,14.7499945 C17.2674647,14.5108499 17.5732609,14.4289162 17.8124055,14.5669905 L19.5444055,15.5669905 Z M3.4555945,7.43300953 C3.21644994,7.2949353 3.13451625,6.98913906 3.27259047,6.7499945 C3.4106647,6.51084994 3.71646094,6.42891625 3.9556055,6.56699047 L5.6876055,7.56699047 C5.92675006,7.7050647 6.00868375,8.01086094 5.87060953,8.2500055 C5.7325353,8.48915006 5.42673906,8.57108375 5.1875945,8.43300953 L3.4555945,7.43300953 Z M16.4330095,19.0443945 C16.5710838,19.2835391 16.4891501,19.5893353 16.2500055,19.7274095 C16.0108609,19.8654838 15.7050647,19.7835501 15.5669905,19.5444055 L14.5669905,17.8124055 C14.4289162,17.5732609 14.5108499,17.2674647 14.7499945,17.1293905 C14.9891391,16.9913162 15.2949353,17.0732499 15.4330095,17.3123945 L16.4330095,19.0443945 Z M6.56699047,3.9556055 C6.42891625,3.71646094 6.51084994,3.4106647 6.7499945,3.27259047 C6.98913906,3.13451625 7.2949353,3.21644994 7.43300953,3.4555945 L8.43300953,5.1875945 C8.57108375,5.42673906 8.48915006,5.7325353 8.2500055,5.87060953 C8.01086094,6.00868375 7.7050647,5.92675006 7.56699047,5.6876055 L6.56699047,3.9556055 Z M19.0443945,6.56699047 C19.2835391,6.42891625 19.5893353,6.51084994 19.7274095,6.7499945 C19.8654838,6.98913906 19.7835501,7.2949353 19.5444055,7.43300953 L17.8124055,8.43300953 C17.5732609,8.57108375 17.2674647,8.48915006 17.1293905,8.2500055 C16.9913162,8.01086094 17.0732499,7.7050647 17.3123945,7.56699047 L19.0443945,6.56699047 Z M3.9556055,16.4330095 C3.71646094,16.5710838 3.4106647,16.4891501 3.27259047,16.2500055 C3.13451625,16.0108609 3.21644994,15.7050647 3.4555945,15.5669905 L5.1875945,14.5669905 C5.42673906,14.4289162 5.7325353,14.5108499 5.87060953,14.7499945 C6.00868375,14.9891391 5.92675006,15.2949353 5.6876055,15.4330095 L3.9556055,16.4330095 Z" fill="#000000" fill-rule="nonzero"></path></g></svg>