<svg height='100px' width='100px'  fill="#000000" xmlns="http://www.w3.org/2000/svg" xmlns:xlink="http://www.w3.org/1999/xlink" version="1.1" x="0px" y="0px" viewBox="0 0 100 100" style="enable-background:new 0 0 100 100;" xml:space="preserve"><style type="text/css">
	.st0{fill:none;stroke:#000000;stroke-width:2;stroke-linecap:round;stroke-linejoin:round;stroke-miterlimit:10;}
	.st1{fill:none;stroke:#000000;stroke-width:2;stroke-linecap:round;stroke-linejoin:round;}
	.st2{fill:none;stroke:#000000;stroke-width:2;stroke-linecap:round;stroke-linejoin:round;stroke-dasharray:2.9177,3.8902;}
	.st3{fill:none;stroke:#000000;stroke-width:2;stroke-linecap:round;stroke-linejoin:round;stroke-dasharray:2.9655,3.954;}
	.st4{fill:none;stroke:#000000;stroke-width:2;stroke-linecap:round;stroke-linejoin:round;stroke-dasharray:2.7633,3.6844;}
	.st5{fill:none;stroke:#000000;stroke-width:2;stroke-miterlimit:10;}
</style><path d="M57.1,61c-0.2,0.5,0.1,1.1,0.6,1.3c0.9,0.4,1.8,0.7,2.7,1.1c0.1,0,0.2,0.1,0.4,0.1c0.4,0,0.8-0.2,0.9-0.6  c0.2-0.5,0-1.1-0.6-1.3c-0.9-0.4-1.8-0.7-2.7-1.1C57.9,60.3,57.3,60.5,57.1,61z"></path><path d="M18.1,28.8c-0.2-0.5-0.7-0.8-1.2-0.7c-0.5,0.2-0.8,0.7-0.7,1.2c0.3,1,0.6,1.9,0.9,2.8c0.2,0.4,0.5,0.6,0.9,0.6  c0.1,0,0.2,0,0.4-0.1c0.5-0.2,0.8-0.8,0.6-1.3C18.6,30.7,18.3,29.8,18.1,28.8z"></path><path d="M52.1,58c-0.5-0.2-1.1,0.1-1.3,0.6c-0.2,0.5,0.1,1.1,0.6,1.3c0.9,0.4,1.8,0.7,2.7,1.1c0.1,0,0.2,0.1,0.4,0.1  c0.4,0,0.8-0.2,0.9-0.6c0.2-0.5-0.1-1.1-0.6-1.3C53.9,58.7,53,58.4,52.1,58z"></path><path d="M77.1,69.2c-0.5-0.3-1.1-0.2-1.4,0.3c-0.3,0.5-0.2,1.1,0.3,1.4c0.8,0.5,1.6,1.1,2.3,1.6c0.2,0.1,0.4,0.2,0.6,0.2  c0.3,0,0.6-0.1,0.8-0.4c0.3-0.4,0.2-1.1-0.2-1.4C78.8,70.3,77.9,69.7,77.1,69.2z"></path><path d="M29,46c-0.2-0.2-0.4-0.3-0.6-0.5c-0.4-0.4-1-0.3-1.4,0.1c-0.4,0.4-0.3,1,0.1,1.4c0.2,0.2,0.4,0.4,0.6,0.6  c0.5,0.5,1.1,0.9,1.7,1.3c0.2,0.1,0.4,0.2,0.6,0.2c0.3,0,0.6-0.1,0.8-0.4c0.3-0.4,0.2-1.1-0.2-1.4C30.1,46.9,29.6,46.4,29,46z"></path><path d="M73.7,67.2c-0.9-0.5-1.7-0.9-2.6-1.4c-0.5-0.2-1.1,0-1.3,0.5c-0.2,0.5,0,1.1,0.5,1.3c0.9,0.4,1.7,0.9,2.6,1.3  c0.2,0.1,0.3,0.1,0.5,0.1c0.4,0,0.7-0.2,0.9-0.5C74.3,68,74.2,67.4,73.7,67.2z"></path><path d="M82.6,73.5c-0.4-0.4-1-0.4-1.4,0c-0.4,0.4-0.4,1,0,1.4c0.7,0.7,1.3,1.4,1.9,2c0.2,0.2,0.5,0.4,0.8,0.4  c0.2,0,0.4-0.1,0.6-0.2c0.4-0.4,0.5-1,0.1-1.4C84,74.9,83.4,74.2,82.6,73.5z"></path><path d="M87.3,79.6c-0.1-0.2-0.2-0.4-0.3-0.6c-0.3-0.5-0.9-0.7-1.4-0.4c-0.5,0.3-0.7,0.9-0.4,1.4c0.1,0.2,0.2,0.3,0.3,0.5  c0.2,0.3,0.5,0.5,0.9,0.5c0.2,0,0.3,0,0.5-0.1C87.3,80.7,87.5,80.1,87.3,79.6z"></path><path d="M18.7,35.9c0.4,0.9,0.9,1.8,1.4,2.6c0.2,0.3,0.5,0.5,0.9,0.5c0.2,0,0.4,0,0.5-0.1c0.5-0.3,0.6-0.9,0.3-1.4  c-0.5-0.8-0.9-1.6-1.4-2.5c-0.2-0.5-0.8-0.7-1.3-0.5C18.6,34.8,18.4,35.4,18.7,35.9z"></path><path d="M45.8,55.5c-0.5-0.2-1.1,0-1.3,0.5c-0.2,0.5,0,1.1,0.5,1.3c0.9,0.4,1.8,0.8,2.7,1.1c0.1,0,0.2,0.1,0.4,0.1  c0.4,0,0.8-0.2,0.9-0.6c0.2-0.5,0-1.1-0.6-1.3C47.6,56.2,46.7,55.8,45.8,55.5z"></path><path d="M25,44.5c0.2,0,0.5-0.1,0.7-0.3c0.4-0.4,0.4-1,0.1-1.4c-0.6-0.7-1.2-1.4-1.8-2.2c-0.3-0.4-1-0.5-1.4-0.2  c-0.4,0.3-0.5,1-0.2,1.4c0.6,0.8,1.2,1.6,1.9,2.3C24.5,44.4,24.7,44.5,25,44.5z"></path><path d="M36.2,50.9c-0.9-0.5-1.7-1-2.5-1.5c-0.5-0.3-1.1-0.2-1.4,0.3s-0.2,1.1,0.3,1.4c0.8,0.5,1.7,1,2.6,1.5  c0.2,0.1,0.3,0.1,0.5,0.1c0.4,0,0.7-0.2,0.9-0.5C36.9,51.8,36.7,51.2,36.2,50.9z"></path><path d="M15.1,14.7c-0.6,0-1,0.5-1,1c0,1,0.1,2,0.1,3c0,0.5,0.5,0.9,1,0.9c0,0,0,0,0.1,0c0.6,0,1-0.5,0.9-1.1  c-0.1-0.9-0.1-1.9-0.1-2.9C16.1,15.1,15.6,14.7,15.1,14.7z"></path><path d="M16.6,22.3c-0.1-0.5-0.6-0.9-1.1-0.8c-0.5,0.1-0.9,0.6-0.8,1.1c0.1,1,0.3,2,0.5,2.9c0.1,0.5,0.5,0.8,1,0.8  c0.1,0,0.1,0,0.2,0c0.5-0.1,0.9-0.6,0.8-1.2C16.9,24.2,16.8,23.3,16.6,22.3z"></path><path d="M41.8,55.8c0.4,0,0.7-0.2,0.9-0.6c0.2-0.5,0-1.1-0.5-1.3c-0.9-0.4-1.8-0.8-2.6-1.2c-0.5-0.2-1.1,0-1.3,0.5s0,1.1,0.5,1.3  c0.9,0.4,1.8,0.9,2.7,1.3C41.5,55.8,41.7,55.8,41.8,55.8z"></path><path d="M67.5,64.2c-0.9-0.4-1.8-0.8-2.7-1.2c-0.5-0.2-1.1,0-1.3,0.5s0,1.1,0.5,1.3c0.9,0.4,1.8,0.8,2.7,1.1  c0.1,0.1,0.3,0.1,0.4,0.1c0.4,0,0.7-0.2,0.9-0.6C68.2,65,68,64.4,67.5,64.2z"></path><path d="M87.6,83.2c-0.5,0.1-0.9,0.7-0.7,1.2c0.2,1,0.4,2.1,0.5,3.2c0,0.5,0.5,0.9,1,0.9c0,0,0,0,0.1,0c0.6,0,1-0.5,0.9-1.1  c-0.1-1.2-0.3-2.4-0.5-3.5C88.7,83.4,88.2,83.1,87.6,83.2z"></path><path d="M68.4,27.5c-0.4,0.4-0.4,1,0,1.4c0.4,0.4,1,0.4,1.4,0l5.2-5.2v3l-6.6,6.6c-0.4,0.4-0.4,1,0,1.4c0.2,0.2,0.5,0.3,0.7,0.3  c0.3,0,0.5-0.1,0.7-0.3l5.2-5.2v10.2c0,0.6,0.4,1,1,1s1-0.4,1-1V29.5l5.2,5.2c0.4,0.4,1,0.4,1.4,0s0.4-1,0-1.4L77,26.6v-3l5.2,5.2  c0.2,0.2,0.5,0.3,0.7,0.3c0.3,0,0.5-0.1,0.7-0.3c0.4-0.4,0.4-1,0-1.4L77,20.8v-3l5.2,5.2c0.2,0.2,0.5,0.3,0.7,0.3  c0.3,0,0.5-0.1,0.7-0.3c0.4-0.4,0.4-1,0-1.4l-6.9-6.9c0,0,0,0,0,0c-0.2-0.2-0.4-0.3-0.7-0.3s-0.5,0.1-0.7,0.3c0,0,0,0,0,0l-6.9,6.9  c-0.4,0.4-0.4,1,0,1.4c0.4,0.4,1,0.4,1.4,0l5.2-5.2v3L68.4,27.5z"></path><path d="M58.7,23.1c0.4,0.4,1,0.4,1.4,0c0.4-0.4,0.4-1,0-1.4l-6.9-6.9c0,0,0,0,0,0c-0.2-0.2-0.4-0.3-0.7-0.3s-0.5,0.1-0.7,0.3  c0,0,0,0,0,0l-6.9,6.9c-0.4,0.4-0.4,1,0,1.4c0.2,0.2,0.5,0.3,0.7,0.3c0.3,0,0.5-0.1,0.7-0.3l5.2-5.2v3l-6.6,6.6  c-0.4,0.4-0.4,1,0,1.4c0.2,0.2,0.5,0.3,0.7,0.3c0.3,0,0.5-0.1,0.7-0.3l5.2-5.2v3l-6.6,6.6c-0.4,0.4-0.4,1,0,1.4c0.4,0.4,1,0.4,1.4,0  l5.2-5.2v10.2c0,0.6,0.4,1,1,1s1-0.4,1-1V29.5l5.2,5.2c0.2,0.2,0.5,0.3,0.7,0.3c0.3,0,0.5-0.1,0.7-0.3c0.4-0.4,0.4-1,0-1.4l-6.6-6.6  v-3l5.2,5.2c0.4,0.4,1,0.4,1.4,0c0.4-0.4,0.4-1,0-1.4l-6.6-6.6v-3L58.7,23.1z"></path><path d="M28.1,70.1c0.2,0.2,0.5,0.3,0.7,0.3c0.3,0,0.5-0.1,0.7-0.3c0.4-0.4,0.4-1,0-1.4l-6.9-6.9c0,0,0,0,0,0  c-0.2-0.2-0.4-0.3-0.7-0.3s-0.5,0.1-0.7,0.3c0,0,0,0,0,0l-6.9,6.9c-0.4,0.4-0.4,1,0,1.4c0.4,0.4,1,0.4,1.4,0l5.2-5.2v3l-6.6,6.6  c-0.4,0.4-0.4,1,0,1.4c0.4,0.4,1,0.4,1.4,0l5.2-5.2v3l-6.6,6.6c-0.4,0.4-0.4,1,0,1.4c0.4,0.4,1,0.4,1.4,0l5.2-5.2v10.2  c0,0.6,0.4,1,1,1s1-0.4,1-1V76.5l5.2,5.2c0.2,0.2,0.5,0.3,0.7,0.3c0.3,0,0.5-0.1,0.7-0.3c0.4-0.4,0.4-1,0-1.4l-6.6-6.6v-3l5.2,5.2  c0.2,0.2,0.5,0.3,0.7,0.3c0.3,0,0.5-0.1,0.7-0.3c0.4-0.4,0.4-1,0-1.4l-6.6-6.6v-3L28.1,70.1z"></path><path d="M61.2,75.1c0.6,0,1-0.4,1-1s-0.4-1-1-1h-19c-0.6,0-1,0.4-1,1s0.4,1,1,1H50l-1.8,2.8c-0.1,0-0.1,0-0.2,0h-5.8  c-0.6,0-1,0.4-1,1s0.4,1,1,1h4.7l-1.8,2.8c-0.3,0.5-0.2,1.1,0.3,1.4c0.5,0.3,1.1,0.2,1.4-0.3l4.9-7.5l4.9,7.5  c0.2,0.3,0.5,0.5,0.8,0.5c0.2,0,0.4-0.1,0.5-0.2c0.5-0.3,0.6-0.9,0.3-1.4l-1.8-2.8h4.5c0.6,0,1-0.4,1-1s-0.4-1-1-1h-5.8l-1.8-2.7  H61.2z"></path><path d="M80.9,57.9l-1.8-2.8h4.5c0.6,0,1-0.4,1-1s-0.4-1-1-1h-5.8L76,50.4h7.8c0.6,0,1-0.4,1-1s-0.4-1-1-1h-19c-0.6,0-1,0.4-1,1  s0.4,1,1,1h7.8l-1.8,2.8c-0.1,0-0.1,0-0.2,0h-5.8c-0.6,0-1,0.4-1,1s0.4,1,1,1h4.7l-1.8,2.8c-0.3,0.5-0.2,1.1,0.3,1.4  c0.2,0.1,0.4,0.2,0.5,0.2c0.3,0,0.6-0.2,0.8-0.5l4.9-7.5l4.9,7.5c0.3,0.5,0.9,0.6,1.4,0.3C81.1,58.9,81.2,58.3,80.9,57.9z"></path></svg>