<svg height='100px' width='100px'  fill="#000000" xmlns="http://www.w3.org/2000/svg" xmlns:xlink="http://www.w3.org/1999/xlink" version="1.1" x="0px" y="0px" viewBox="0 0 179.9 124.1" style="enable-background:new 0 0 179.9 124.1;" xml:space="preserve"><g><path d="M145.1,61.6c0.6-1,0.9-1.6,0.8-1.6c0.1-0.1,0.4-0.3,0.4-0.3s0-0.4,0.8-0.6s1-0.3,1.3-0.4c0.3-0.1,1-1,1.2-1.4   c0.1-0.4,0.5-1.1,0.4-1.4c-0.1-0.3-0.5-1.8-0.6-1.8c-0.1,0,0,0-0.6-0.6c-0.6-0.6-1-1.1-1.1-1.4c-0.1-0.3-0.3-0.3,0-0.7   c0.3-0.4,0.4-0.3,0.5-0.6s0.4-0.6-0.3-0.4c-0.7,0.2-0.2,0.1-0.8,0c-0.6,0-2.1,0.3-1.4-0.6c0.8-0.9,1-1.5,1.1-1.5s0.8-0.8,0.9,0   c0,0.7,0.3,0.5,0.4,1c0,0.5,0.9-0.5,0.9-0.5s0.3,0.1,0.5,0.3c0.2,0.2,0.2,0.7,0.2,0.9c0,0,0.1,0.1,0.3,0.2c0.5,0.4,1,0.2,1,0.9   c0,0.8,0,0.8,0.3,1s0.6,0.1,0.9-0.1c0.3-0.2,0.7-1,0.7-1s0-0.3-0.7-0.8c-0.7-0.5-1.2-0.8-1.4-1c-0.3-0.2-0.2-0.9,0.1-1.2   c0.3-0.3,0.4-0.4,0.3-0.8c-0.1-0.4,0.1-0.6,0.8-0.6c0.7,0,0.8,0,0.8,0s0.1,0.1,0.1-0.2s0.9-1.5,0.6-1.5c-0.2,0,0-0.3-0.1-0.8   c-0.1-0.5,0.5-1.3,0-1.6c-0.5-0.4-0.6-0.5-0.9-1.1s-0.3-0.6-1.4-0.8c-1.2-0.1-1.7,0.3-2-0.1c-0.3-0.4-0.4,0.5-0.6-0.5   c-0.2-1.1,0.3-1.8,0.3-1.8s0.7-0.5,0.9-0.8s0.9-0.5,1.5-0.2c0.6,0.2,1.4,0.2,2.2,0.3c0.7,0.1,0.7,0.6,1,0c0.4-0.6,0-0.9,0.3-1.2   c0.3-0.3,0.6-0.8,0.8-0.5c0.2,0.3,0.7,0.6,1,0.2c0.4-0.4,0.5-0.5,0.5-0.5l0.2,0.2c0,0,0.4-0.2,0.4,0.2c0,0.4,0.4,0.9,0.2,1.2   c-0.2,0.3-0.5,0.3-0.5,1s0,0.6,0.5,1.3c0.5,0.6,0.8,0.1,0.9,0.8c0.1,0.7,0.2,0.5,0.7,1c0.5,0.5,0.4,0.5,0.8,0.7s0.5,0.5,0.5,0.1   c0-0.5,0-0.7,0-1.1c0-0.4,0.4-0.7,0.1-1.4c-0.3-0.7,0-0.6-0.6-1.1c-0.5-0.5-0.9,0.1-1.1-0.6c-0.2-0.7,0.9-1,1.1-1.1   c0.3-0.1,0.7-0.6,0.8-0.3c0.1,0.4-0.7,1.7,0.6,0.3c0.4-0.4,0.6-0.7,0.8-0.8c0.1,0,0.7-0.1,0.8,0c0.1,0.1,0.5-0.4,0.4-0.4   c-0.1,0-1.4-0.7-1.4-0.7l-0.9-0.5c0,0,0.3-0.2,0.5-0.2s0.3-0.5,0.5-0.5c0.2,0,1.8,0.3,2.1,0.5c0.3,0.2,1.4,0.2,1.3,0.1   c-0.1-0.1-0.9-0.6-0.9-0.8c0-0.2-1.6-0.5-2.1-0.5c-0.5,0-0.9,0.2-1.4,0c-0.4-0.1-1-0.5-1.3-0.5c-0.3,0-4.3-0.8-4.5-0.7   c-0.2,0-0.5,0.9-0.6,0.8c-0.1-0.1-0.4-0.1-1-0.3c-0.6-0.2-1.5-0.3-2.6-0.4c-1.1-0.1-1.9,0.1-2.2-0.3c-0.3-0.4-1-0.2-1.8-0.3   c-0.8,0-1.7,0-2.1,0c-0.4,0-1.4,0-1.6-0.1c-0.2,0-0.5-0.4-0.8-0.4c-0.3,0-0.2-0.1-0.8-0.2c-0.5-0.1-0.5-0.7-0.7-0.2   c-0.2,0.5-0.1,0.4-0.4,0.5c-0.3,0.2-0.5,0.5-0.7,0.5c-0.2,0-0.9,0-1,0c-0.1-0.1-0.4-0.2-0.8-0.2c-0.5,0-0.5,0-1,0   c-0.6-0.1-1,0-1.6-0.3c-0.5-0.3-0.5-0.5-1-0.4c-0.5,0-0.5-0.1-1.1-0.1s-1.4,0.4-1.8,0.4c-0.4,0-1.3,0-1.6-0.2s-0.4-0.5-1.6-0.3   c-1.2,0.1-1.8,0.1-1.6-0.2s0.5-0.7,0.6-0.8c0.1,0,0.5-0.3,0.2-0.4c-0.2-0.1-0.5-0.2-1-0.3c-0.5,0-0.5,0.2-1.3,0.1   c-0.8-0.1,0.5-0.3-1.2-0.3c-1.7,0-2.1,0.2-2.3,0.2c-0.2,0-0.4-0.4-0.9,0.2c-0.5,0.5-1.1,0.9-2,0.9c-0.9,0-0.9-0.1-1.8,0.2   c-0.9,0.3-1.4-0.1-1.2,0.6c0.2,0.7,0.4,1,0.4,1.1c0,0.1-0.4,1-0.9,0.5s-1.4-2.7-1-1.2c0.4,1.4,1.3,1.9,0.5,2.2   c-0.9,0.2-0.8-0.1-0.9-0.2c-0.1-0.1,0-0.7,0-1.1s-0.1-0.6-0.3-0.8c-0.2-0.2-0.1-0.5-0.5-0.5c-0.4-0.1,0-0.3-0.6-0.3   s-1.1-0.4-0.9,0.5c0.1,0.8,0.3,0.3,0.6,1c0.4,0.8,1,0.2,0.5,0.8c-0.5,0.5-1.8,0.4-2.1,0.1c-0.3-0.2-0.2,0.1-0.8-0.3   c-0.6-0.4-0.4-0.7-1.1-0.4c-0.7,0.3-0.9,0.9-1.2,0.7s-0.9,0.3-1.1,0c-0.2-0.3-1.1-0.3-1.3,0c-0.2,0.3-0.7,0.2-1.5,0.6   s-0.5,0-1.5,0.8c-0.9,0.8-1.5,1.4-1.8,0.9c-0.3-0.5-2-1.4-1.4-1.5s1-0.4,1.4-0.1c0.4,0.3,0.9,0.2,1,0c0.1-0.2,0.5-0.5,0-0.7   c-0.5-0.3-0.6-0.1-1.4-0.4c-0.9-0.3,0-0.2-1.2-0.4c-1.2-0.2-1.7-0.3-2-0.4s-0.8,0-1.2,0s-0.8-0.1-1.2-0.1c-0.4,0-0.6,0-1.2,0.4   c-0.5,0.4-0.9,0.6-1.3,0.9c-0.4,0.3-1.3,0.9-1.6,1.2c-0.3,0.2-1.2,0.9-1.3,1.2c-0.1,0.3,0.1,0.5-0.3,0.7c-0.4,0.2-0.7,0.2-1,0.2   c-0.3,0,0-0.4-0.3,0c-0.3,0.5-0.2,2.1,0,1.8c0.2-0.2,0.1-0.9,1.1-0.3c1,0.7,1.6,0.6,1.6,1.2c0,0.6,0.7,0.6,0.8,0.7   c0.1,0.1,0.5-0.2,0.5-0.2s1-0.6,1-0.9s0.6-1,0.6-1S93,37,93,36.5c0-0.5,0.1-0.6,0.2-1c0.1-0.5-0.5,0,0.9-0.9   c1.4-0.9,1.4-0.3,1.4-0.3s0.2,0.2,0,0.5s-0.6,1-0.7,1.1c-0.1,0.1,0.4,0.8,0.6,0.8c0.2,0,0.7-0.2,0.9-0.1c0.3,0,0.7-0.1,0.9,0   c0.1,0.1,0.5,0.4,0.2,0.6c-0.2,0.2-0.7,0.5-1.1,0.4c-0.4-0.1-0.9-0.7-0.6,0.2c0.3,0.9,0,1.1-0.3,1.1c-0.3,0-0.9-0.5-0.8,0.2   c0.1,0.7-0.6,1.1-0.7,1.1s-0.4,0-0.4,0s-0.4,0-0.6,0c-0.2,0-0.7,0.2-0.8,0.4c-0.1,0.2-0.3,0-0.5,0c-0.2,0,0-0.3-0.5-0.4   c-0.5-0.1-0.7-0.2-1,0c-0.3,0.2-0.7,0.3-0.9,0.1c-0.2-0.1,0.1-0.5-0.3-0.3s-0.6,0.7-0.8,0.7c-0.1,0,0.4,0-0.1,0   c-0.5,0-0.8,0.2-1,0.3c-0.3,0.1,0.1,0.6-0.4,0.8C86.1,42,86.5,41.6,86,42c-0.5,0.4-0.6,0.8-0.8,0.8c-0.2,0-0.1,0.1-0.5,0.2   s-0.4,0.1-0.6,0.1c-0.2,0,0,0.1-0.5,0c-0.5-0.1-0.9,0.1-0.8,0.3c0.1,0.2,1.8,0.7,0.5,0.6c-1.3,0-0.9,0.2-0.6,0.4   c0.3,0.2,0.4,0.4,0.5,0.4c0.1,0,0.4,0.6,0.4,0.6s0.4,0,0.1,0.3s0.1,0.4-0.1,0.8c-0.2,0.4-0.2,0.1-0.4,0.2c-0.2,0.1-0.5,0.4-0.9,0.1   c-0.5-0.3-0.9-0.4-1.4-0.5c-0.6,0-0.2-0.1-0.6,0.2c-0.4,0.3-0.5,0.7-0.5,1.1c0,0.4,0.1,0.9,0,1.2c-0.1,0.3-0.1,0.5,0,0.9   c0.1,0.4,0.4,0.6,0.4,0.6s0.6,0.1,0.8,0.1c0.1,0,0.4-0.1,0.8,0.1c0.4,0.2,0.7,0.3,0.9,0s1.1-0.6,1.4-0.9c0.3-0.3,0.5-0.4,0.3-0.6   c-0.1-0.3,0.3-0.9,0.5-1.1c0.2-0.1,0.7-0.3,0.7-0.3l0.5-0.8c0,0,0.5-0.5,0.7-0.5c0.2,0,1.5,0.5,1.4-0.1C88,46,88.2,45.8,88.4,46   c0.1,0.2,0.5,0.1,0.5,0.1s0.2-0.1,0.3,0c0.1,0.1,0.3,0.7,0.6,0.9c0.3,0.1,0.5,0.3,0.7,0.4c0.2,0.1,0.4,0,0.7,0.3s0.7,0.5,0.8,0.6   c0,0.1,0.4,0.5,0.4,0.5s0.3,0.1,0.2,0.3c-0.1,0.2-0.5,0.7-0.8,0.8c-0.2,0.1-0.8-0.1-0.6,0.1c0.2,0.2,0.5,0.4,0.7,0.3   c0.1-0.1,1-1,1-1s0,0,0-0.2s0-0.6,0.2-0.5c0.2,0.1,0.4,0.3,0.5,0.1s0.2-0.1,0-0.2c-0.2-0.1-0.8-0.9-1-0.9c-0.3,0-0.9-0.5-0.9-0.5   s-0.1-0.1-0.5-0.5c-0.3-0.4-0.4-0.3-0.5-0.6s-0.4-0.7,0.1-0.6c0.5,0.1,0.8,0.4,1.3,0.7c0.5,0.3,0.4,0.4,0.8,0.6   c0.4,0.3,0.5,0.5,0.8,0.5c0.3,0,0.7,0.2,0.7,0.6c0,0.4,0.1,0.9,0.2,0.9c0.1,0.1,0.4,0.3,0.5,0.5c0.1,0.2,0.3,0.6,0.4,0.8   c0.1,0.2,0.3,0.3,0.4,0.5c0.1,0.2,0.2,0,0.3,0c0.1,0.1,0.3,0,0.3-0.1s0-0.5,0-0.5s0.6-0.2,0.5-0.3c-0.2-0.1-0.7-0.6-0.7-0.8   c0-0.2,0-0.5,0.2-0.5c0.2,0,0.5,0.5,0.9,0.1s1.1-0.5,0.9,0c-0.2,0.5,0,0.6,0,1.2c0,0.6,0.2,0.4,0.5,0.7s0.5,0.4,0.8,0.5   c0.2,0.1,0.6,0,0.9,0.1c0.4,0,0.6-0.1,0.9,0c0.3,0.1,1,0,1.2,0c0.1,0.1,0.7-0.2,0.7,0.1c0,0.3,0.2,0,0.1,0.7   c-0.1,0.7-0.3,1.2-0.3,1.2c-0.5,0.9-0.7,1.2-0.9,1.2c-0.2,0-0.4,0.2-0.8,0.1c-0.4,0-0.9,0-1.5-0.1s-1.7,0.1-2.1-0.1s-1.1,0-1.4-0.4   c-0.3-0.3-0.7-0.3-0.9-0.5c-0.2-0.2-0.3-0.7-0.3,0c0,0.7-0.4,0.8-0.5,1.1c-0.1,0.4,0.1,0.2-0.4,0.1c-0.5,0-0.6,0.2-1.4-0.3   c-0.7-0.5-1.1-0.5-1.4-0.8c-0.4-0.2-0.7,0.4-1.1-0.3c-0.4-0.7-0.9-0.1-0.9-0.7c0-0.6,0-0.5,0-0.9s0.5-0.7,0.3-0.8   c-0.2-0.1,0-0.4-0.4-0.2c-0.3,0.1-0.8,0.2-1.1,0.3c-0.4,0.1,0.8,0-0.9,0.1c-1.8,0.1-2.3,0.3-2.3,0.3s-0.1-0.1-0.4,0.1   c-0.2,0.2-0.5,0.5-0.9,0.3c-0.3-0.1-0.5-0.1-0.8,0c-0.3,0-0.5-0.2-0.8,0c-0.3,0.2-0.7,0.3-0.8,0.2c-0.1-0.1-0.4-0.5-0.4-0.5l0,0   l-0.7,0.9l-0.5,0.5l-0.9,0.5L79,53.5c0,0-0.4,0.4-0.3,0.6c0,0.2,0,0.6,0,0.6s-0.6,0.6-0.9,0.8s-0.6,0.6-0.6,0.6s-0.2,0.3-0.4,0.4   c-0.1,0.1-0.4,0.4-0.5,0.6c-0.2,0.3-0.4,0.5-0.5,0.6c-0.1,0.1-0.4,0.5-0.5,0.9c-0.1,0.5-0.5,1.1-0.5,1.1l-0.1,0.2   c0,0.8,0,0.9,0.1,1.2s0.2,0.2,0.1,0.8c-0.1,0.6-0.1,0.8-0.2,1.1c-0.1,0.3-0.4,0.8-0.5,1c-0.1,0.2,0.2,0.6,0.2,0.6s0.1,0.6,0,0.7   c-0.1,0.1,0,0.4,0,0.4s0.5,0.3,0.7,0.5c0.2,0.2,0.5,0.5,0.5,0.6c0,0.1,0.4,0.8,0.5,0.9c0,0.1,0.4,0.6,0.5,0.8   c0.1,0.1,0.5,0.6,0.5,0.6s0.6,0.5,0.7,0.6c0.1,0.2,0.5,0.3,0.7,0.4c0.1,0.1,0.5,0.1,0.6,0.2c0.2,0.1,0.5-0.1,0.7,0s0.7-0.1,0.8-0.2   c0.1-0.1,0.5-0.4,0.7-0.3s0.4,0,0.5,0c0.2,0,0.5-0.2,0.6-0.2c0.2,0,0.6-0.2,0.8-0.2c0.1,0,0.6-0.3,0.8-0.3c0.2,0,0.4-0.2,0.6-0.1   s0.1-0.2,0.5,0c0.4,0.1,0.5,0,0.7,0.1c0.1,0.1,0.3,0,0.5,0.2c0.1,0.2,0.4,0.3,0.4,0.5c0,0.2,0.3,0.4,0.3,0.4l0.3,0   c0,0,0.4-0.3,0.5-0.1c0.1,0.2,0.5,0.1,0.5,0.1l0.4,0.5l0.1,0.2c0,0,0.3,0.7,0.2,1c0,0.3,0,0.9-0.2,1c-0.1,0.1-0.2,0.7-0.2,0.7   s-0.2,0.2,0.2,0.5s0.7,0.7,0.8,0.9c0.1,0.2,0.5,0.7,0.5,1c0,0.3,0.1,0.5,0.3,0.9c0.2,0.4,0.4,0.5,0.5,0.9c0,0.5,0.1,0.5,0.1,0.8   c0,0.3-0.2,0.4,0,0.6c0.1,0.2,0.3,0.6,0.3,0.8c0,0.1-0.1,0.7-0.1,0.7l-0.1,0.3L91,81.9l-0.3,0.4c-0.1,0.3-0.3,0.6-0.2,1.1   c0,0.5-0.2,0.5,0.1,0.9c0.4,0.5,0.5,0.9,0.8,1.4c0.2,0.4,0.4,0.8,0.4,1.1c0,0.3,0.2,0.4,0.3,0.7c0.1,0.4,0.1,0.5,0.1,0.8   s0,0.8,0,0.9c0.1,0.1,0.1,0.5,0.2,0.7c0,0.2-0.1,0.2,0.1,0.5s0.5,0.5,0.6,0.7c0.2,0.2,0.1,0.1,0.3,0.5s0.3,0.5,0.4,0.8   c0,0.3,0.1,0.9,0.2,1.3c0.1,0.3,0.3,0.6,0.3,0.6s0.5,0.3,0.7,0.3c0.2,0,0.5-0.5,0.8-0.3c0.3,0.1,0.5,0,0.7,0s0.5-0.3,0.7-0.3   c0.2,0,0.5-0.4,0.7-0.3c0.2,0.1,0.4-0.1,0.6-0.3c0.2-0.2,0.4-0.4,0.8-0.8s0.4-0.4,0.6-0.6s0.5-0.7,0.9-0.8c0.3-0.1,0.4-0.4,0.5-0.6   c0.1-0.2,0.1-0.4,0.3-0.5c0.1-0.2,0,0,0.3-0.5c0.2-0.6,0.5-0.8,0.7-0.9c0.2-0.1,0.4-0.4,0.5-0.5c0.1,0,0.4,0.1,0.3-0.3   c-0.1-0.4,0-1-0.1-1.1c-0.1-0.1-0.2,0.3-0.2-0.4s0.5-1.4,0.5-1.4s0.7-0.9,0.9-1c0.2-0.1,0.3-0.3,0.6-0.5c0.3-0.2,1-0.6,1-0.9   c0-0.2,0.3-0.8,0.3-0.9c0-0.1,0-0.3-0.1-1c-0.1-0.8,0.1-0.6-0.2-1.3s-0.3-1.6-0.5-1.8s-0.1-0.8-0.1-1s0.3-0.6,0.5-0.8   c0.1-0.2,0.7-0.9,0.7-0.9s0.9-1,1.2-1.5c0.3-0.5,0.6-0.9,0.9-1.1s0.8-0.6,1.1-1s0.9-1.3,1-1.4c0-0.1,0.4-0.6,0.4-0.6   s0.5-0.6,0.6-0.9c0.1-0.3,0.5-2.1,0.5-2c-0.1,0.1-0.6,0.2-0.8,0.2c-0.2,0,0.3,0.2-1,0.1c-1.3-0.1-2,0.1-2,0.1   c-0.4-0.1-0.7,0.4-0.9-0.3c-0.1-0.6-0.2-1-0.5-1.4c-0.3-0.5-0.5-0.6-0.9-1.2c-0.4-0.6-0.4-0.3-0.7-0.8s-0.5-0.3-0.7-0.9   c-0.2-0.6-0.4-0.4-0.7-1.2s-0.5-0.9-0.6-1.4s-0.3-0.6-0.4-1c-0.1-0.4-1.1-2.5-1.3-2.6c-0.1-0.1-0.4-0.9-0.3-0.7   c0,0.1,0.7,0.6,0.7,0.6s0.4-0.1,0.5-0.1s0.7,0.5,0.7,0.7s0.9,1,1.2,1.7c0.2,0.6,0.5,1.1,0.5,1.3c0,0.2,0.5,0.9,0.7,1.2   c0.2,0.3,0.8,0.8,0.9,1.1c0.1,0.3,0.9,1.2,0.9,1.8s0.4,1.4,0.5,1.5c0,0.2,0.9,0.4,0.9,0.4l1.1-0.3c0,0,1.6-1,1.8-1s1.6-0.7,1.6-0.7   s0.6-0.5,1-0.9c0.4-0.3,0.9-0.9,0.9-1.2c0.1-0.3,0.3-0.3,0.6-0.7c0.4-0.4,0.9-0.8,0.5-1.1c-0.3-0.3-0.5-0.2-0.9-0.6   c-0.5-0.5-0.4-0.4-0.7-0.9c-0.3-0.6,0-1.3-0.6-0.6c-0.7,0.7-0.4,0.9-1.1,1c-0.7,0.1-0.9,0.6-1.3,0.1c-0.3-0.5-0.6-0.2-0.8-0.9   c-0.2-0.7-0.3-0.7-0.4-1c0-0.3,0-0.3-0.4-0.9c-0.4-0.7-0.1-1.7,0.1-1.1s0.6,0.7,1.2,1.1c0.6,0.4,0.9,0.7,1.4,0.8c0.5,0,1,0,1.1,0.1   c0.1,0.1,0.2,0,0.4,0c0.2,0.1,0.3-0.1,0.4,0.2c0.1,0.4,0.6,0.4,0.8,0.6s0.2,0.1,0.8,0.2c0.6,0.1,1.4,0.1,1.4,0.1l0.9,0l1,0.1   c0,0,0.7,0.4,0.9,0.4s0.2,0.5,0.7,0.8c0.5,0.3,0.5,0.3,0.8,0.6s0.2,0.5,0.6,0.8c0.4,0.3,0.9,0,1-0.2c0.1-0.1,0.5-0.4,0.5,0   s0.5,0.2,0.3,1.1c-0.1,0.9-0.2,0.6,0,1.2c0.2,0.6,1.2,2.4,1.3,2.9s0.3,0.4,0.4,0.9c0,0.5,0.3,0.7,0.3,1c0,0.4,0.3,0.5,0.4,0.7   c0,0.3,0.5,0,0.7,0c0.1,0,0.8-0.6,0.8-0.6s0.3-0.1,0.2-0.5c0-0.5,0-0.4,0-1c0-0.7-0.3-0.7-0.1-1.4c0.1-0.7,0.5-1.1,0.6-1.4   s0.5-0.9,0.6-0.9s1.2-0.5,1.4-0.9c0.2-0.3,0.6-0.7,0.9-1c0.4-0.4,1-0.8,1.1-0.7c0.1,0.1,0.1,0.1,0.3,0.1s0.6,0.2,0.9,0.2   c0.3,0,0.9,0.8,1.1,1.2c0.1,0.4,0,0.3,0.5,0.9c0.5,0.6,0.9,0.2,0.9,0.9c0,0.7,0,0.7,0.2,0.9c0.2,0.3,0.5-0.5,0.8-0.4   s0.3-0.1,0.5,0.6c0.2,0.7,0.4,0.7,0.4,1.4c0,0.7,0,0,0,0.6c0,0.6,0,0.6,0,1.2c0.1,0.5,0.4,0.7,0.4,0.8c0,0,0.3-0.8,0.2-1.3   s0-1.3,0.2-1.5s0.5-0.5,0.6,0.1c0.2,0.6,0.3,0.1,0.7,0.8c0.4,0.7,0.8,0.5,0.8,0.9c0,0.3,0.3,0.4,0.6,0.6c0.3,0.3,0.6,0,0.9-0.3   c0.4-0.3,1.4-1.3,1.4-1.7c0-0.4,0.5-0.3-0.3-1.4c-0.7-1-0.7-1.4-1.5-2c-0.8-0.6-1.2-0.7-0.6-1.5c0.6-0.8,0.9-1.4,1.2-1.1   c0.4,0.2,1,0.2,1,1.1S144.5,62.7,145.1,61.6z"></path><path d="M111.4,82l-0.2-1c-0.1,0.4-0.5,1.2-0.5,1.2l-0.9,0.5c0,0-0.3,0.3-0.5,0.3c-0.2,0-0.6,0.3-0.6,0.3s-0.4-0.1-0.3,0.3   c0.1,0.4,0.2,0.9,0.1,1c0,0.1,0,0.4,0,0.8c0,0.4-0.1,0.8-0.4,0.9c-0.2,0.1-0.5,0.2-0.4,0.5s0,1.3,0,1.3l0.6,0.9   c0,0,0.2-0.1,0.5-0.1c0.4,0,0.7-0.3,0.7-0.3s0.4,0.1,0.4-0.4c0-0.5,0.2-1.1,0.1-1.2c0-0.1,0.4-0.7,0.4-0.9c0-0.1,0.5-0.8,0.5-1   c0-0.2,0.3-0.6,0.4-0.9c0-0.3,0-0.9,0.1-1.1c0.1-0.2,0-0.4,0-0.5C111.4,82.3,111.4,82,111.4,82z"></path><path d="M111.3,80.9L111.3,80.9C111.4,81,111.4,80.9,111.3,80.9L111.3,80.9z"></path><path d="M167.4,88.2c-0.3-0.5,0.1-0.6-0.3-0.8c-0.4-0.2-0.7-0.1-0.8-0.4c-0.1-0.3-0.5-0.3-0.6-1.1c-0.1-0.9-0.7-0.9-0.7-0.9   s-0.5-0.2-0.4-0.3c0.1-0.1,0.2-0.7,0.1-0.9c0-0.2,0-0.6-0.2-0.9c-0.1-0.3-0.2-0.6-0.4-0.9c-0.1-0.3-0.4-0.4-0.5-0.8   c-0.1-0.4-0.2-0.5-0.3-0.6c0-0.1-0.1-0.5-0.2,0c-0.1,0.5-0.3,1.4-0.3,1.4s-0.4,0.8-0.5,1c-0.1,0.2-0.3,0.8-0.5,0.8   s-0.4,0.2-0.5,0.2c-0.2,0-0.5,0-0.6-0.1c-0.1-0.1-0.5-0.5-0.7-0.5c-0.2,0-0.3-0.4-0.5-0.4c-0.1,0-0.4-0.3-0.3-0.5   c0-0.2,0.1-0.6,0.1-0.8c0-0.2,0.3-0.6,0.3-0.6s0-0.3-0.2-0.3s-0.3,0-0.8,0c-0.5,0-0.6-0.1-0.8-0.1s0.2-0.1-0.3,0   c-0.5,0.1-0.7,0.5-1,0.8c-0.3,0.3,0,0.2-0.3,0.3s-0.2-0.2-0.4,0.3c-0.2,0.5,0.1,0.6,0,0.7c-0.1,0.1-1.1-0.3-1.1-0.3s0.2,0,0-0.3   c-0.2-0.2-0.4-0.5-0.6-0.4c-0.3,0.1-0.5,0.2-0.7,0.5c-0.2,0.2-0.2,0.4-0.3,0.6c-0.1,0.2-0.5,0.2-0.5,0.4c0,0.2,0,0.6-0.2,0.7   c-0.1,0-0.2-0.2-0.3-0.2c-0.1,0-0.1-0.4-0.2-0.2c-0.1,0.2-0.2,0.2-0.3,0.5c-0.1,0.4-0.2,0.7-0.3,0.7c-0.1,0,0,0.1-0.4,0.3   c-0.4,0.2-0.5,0.2-1.1,0.5c-0.6,0.3-0.5,0.3-0.9,0.3c-0.4,0-0.5,0.2-0.8,0.2c-0.3,0-0.5,0.1-0.7,0.4s-0.5,0.4-0.7,0.4   c-0.2,0-0.4,0.2-0.4,0.2c-0.1,0.2-0.2,2.1-0.3,2.3c-0.1,0.2-0.3,1.4-0.2,1.7c0.1,0.3,0.2,1.3,0.1,1.6s0,1.3-0.2,1.3   c-0.2,0-0.3,0-0.3,0.2c0,0.1,0.3,0.4,0.3,0.4s0.5,0,0.8,0s0.7-0.3,1-0.3c0.4,0,0.6-0.3,0.9-0.3c0.3,0,1-0.2,1.2-0.1   c0.2,0.1,0.5-0.5,0.8-0.4c0.3,0.1,1-0.3,1.3-0.3s0.5-0.5,0.8-0.4s1-0.2,1.4,0c0.3,0.1,0.8-0.5,1,0c0.2,0.5,0.9,0.6,0.9,0.9   c0,0.2,0,0.7,0,0.7l0.5,0c0,0,0.9-0.5,1-0.5s0.5-0.5,0.5-0.2c0,0.2-0.3,0.7-0.4,0.9c-0.1,0.2,0.1,0.5,0.1,0.5s0.5,0.2,0.3,0.6   c-0.2,0.4,0,0.3,0,0.6c0,0.3,0,0.2,0.2,0.4c0.2,0.2,0.5,0.5,0.8,0.5c0.3,0,0.4-0.3,0.6-0.2c0.2,0.1,0.7,0,0.8,0.2   c0.1,0.2-0.9,0.6,0.9-0.1s1.9-0.9,2.1-1.2s0.5-0.5,0.7-0.7c0.2-0.2,0-0.1,0.6-0.5c0.5-0.4,0.5-0.2,1-1c0.5-0.8,0.9-1,0.9-1.2   c0.1-0.1,0.3-0.2,0.3-0.7c0-0.5,0.4-1,0.4-1.2s0.1-0.5,0.1-0.8C167.5,89.1,167.7,88.7,167.4,88.2z"></path><path d="M146.6,75.2c0.3-0.1,1.3,0,1.3,0s0.4,0.1,0.6,0.1c0.2,0,0.3-0.1,0.4-0.1c0.1,0,0.4-0.5,0.4-0.5c0,0-0.2-0.2,0.1-0.5   c0.3-0.3,0.6-0.4,0.6-0.7c0-0.3-0.1-0.3,0-0.5c0.1-0.2,0.5-0.1,0.4-0.3c-0.1-0.2,0.1-0.1-0.1-0.5c-0.2-0.4-0.4-0.5-0.2-0.9   c0.2-0.5,0.4-0.5,0.3-0.8c0-0.3,0.2-0.4-0.1-0.7c-0.3-0.3-0.5-0.4-0.7-0.5l-0.2-0.1c-0.2,0.3-0.8,1.1-1,1.1c-0.2,0-0.5,0.3-0.6,0.2   s-0.6,0-0.7,0.6c-0.1,0.6-0.4,0.9-0.5,0.9c-0.1,0,0.2,0.9-0.5,0.5s-0.5,0.3-0.6,0.5c-0.1,0.2,0.1,0.7,0.2,0.9   c0,0.2,0.2,0.5,0.4,0.8C146.1,74.9,146.2,75.2,146.6,75.2z"></path><path d="M168.3,79.4c-0.3-0.2-0.5-0.4-1.4-1.1s-0.3-0.2-0.2-0.8c0.1-0.5-0.1-0.1-0.3-0.4c-0.2-0.2,0-0.4-0.5-0.9   c-0.5-0.5-0.2-0.2-0.7-0.4c-0.5-0.2-0.7-0.1-1-0.5c-0.4-0.3-0.9-0.2-1.4-0.5c-0.6-0.3-0.7-0.1-0.8-0.3c-0.1-0.2-0.2-0.1-0.5-0.1   c-0.3,0-0.3,0-0.4,0.4c-0.1,0.4-0.5,0.4-0.8,0.6c-0.3,0.2-0.5,0.1-0.8-0.4c-0.3-0.5-0.3-0.2-0.4-1c0-0.8-0.7-0.4-0.9-0.3   c0,0-0.5-0.1-0.5,0c0,0.1,0,0.1,0,0.1l0.7,0.5c0.7,0.5,0,0.5,0,0.5s-0.1,0.3,0.1,0.5c0.2,0.2,0.5,0.1,0.8,0.2   c0.4,0.1,0.4,0.1,0.5,0.1c0.1,0,0.2,0,0.2,0s0.5,0.2,0.8,0.3s0.3,0.4,0.6,0.5c0.3,0.1,0.2,0.5,0.2,0.5s0.1,0.4,0,0.6   c-0.1,0.3,0.1,0.4,0.5,0.2c0.4-0.1,0.3,0.1,0.5,0.3c0.2,0.2,0.7,0.4,1.1,0.2c0.4-0.1,0.3,0.4,0.6,0s0.5-0.6,0.8-0.6   s0.4,0.1,0.5,0.4c0.1,0.3,0.7,0.5,1,0.8c0.3,0.3,0.7,0.4,0.8,0.5c0.1,0.1,0.9,0.1,1.2,0.1C168.8,79.9,168.6,79.6,168.3,79.4z"></path><path d="M143,75.2c0-0.1-0.2-0.5-0.4-0.6c-0.2-0.1-0.4-0.5-0.7-1c-0.3-0.6,0,0-0.7-0.9c-0.7-0.9-0.6-0.4-1.1-0.7   c-0.5-0.3-0.6-0.5-0.9-0.7c-0.2-0.3-0.5-1-0.9-1s-0.6-0.2-0.6-0.2l-0.1,0c0,0,0.3,0.4,0.5,0.6c0.1,0.2,0.1,0.5,0.4,0.8   c0.3,0.3,0.4,0.6,0.5,0.7c0.2,0.1,0.5,0.9,0.7,1.2c0.1,0.3,0.4,0.5,0.6,0.8c0.2,0.3,0.5,0.9,0.9,1.4s0.5,0.8,0.7,1   c0.2,0.3,0.7,0.5,0.7,0.5s0.2,0,0.5-0.4c0.3-0.3,0.2-0.7,0.2-0.8C143.4,75.7,143.1,75.3,143,75.2z"></path><path d="M64,76.8c0.1-0.3-0.5-0.2-0.6-0.5c-0.2-0.3-0.3,0-0.5-0.2c-0.2-0.2-0.5-0.1-0.7-0.5c-0.1-0.4-0.8-0.2-1.4-0.6   c-0.6-0.4-0.4,0-0.8-0.1c-0.4-0.1-0.8,0-0.9-0.1c-0.1-0.1-0.4,0.4-0.6,0c-0.2-0.3-0.2-0.1-0.9-0.7s-0.3-0.2-0.8-0.3   c-0.3-0.1-0.4,0.1-0.4,0.2c0,0,0,0,0-0.1c0-0.3,0,0,0-0.3c0-0.3,0,0-0.3-0.1c-0.3-0.1-0.4,0-0.5,0c-0.2,0-0.8,0.2-1.1,0.3   c-0.3,0,0.4-0.3,0.8-1c0.4-0.7-0.1-0.7-0.3-1.4s-0.6-0.8-1.1-1.1c-0.5-0.4-0.2-0.1-0.5-0.1s-0.6,0-0.9-0.3s-0.5-0.1-0.6-0.4   c-0.1-0.3-0.3-0.3-0.8-0.9c-0.5-0.5-0.9-0.5-1.2-0.6c-0.4-0.1-0.5-0.2-1.1-0.7c-0.2-0.2-0.3-0.2-0.4-0.2c0,0,0.1,0,0.2-0.2   c0.1-0.5-0.9,0-1.7-0.2c-0.8-0.1-0.7,0.2-0.9,0c-0.1-0.3-0.3-0.2-0.7-0.4c-0.4-0.1-0.5-0.2-0.7-0.4c-0.2-0.2-0.1,0-0.5,0.9   c-0.4,0.8-0.1,0.5-0.3,0.7c-0.2,0.2-0.5,0.3-0.4-0.4c0.1-0.7,0-0.2-0.4-1.1c-0.4-0.9-0.6,0.5-0.8,0.5c-0.1,0-0.7,0.1-0.7,0.1   s-0.7,1-1.1,1.3c-0.4,0.3-0.5,0.5-0.4,0.7c0.1,0.3-0.1,0.6,0.4,0.9c0.5,0.4-0.3,0.6-0.3,1s-0.5,1-0.5,1l-0.7,1.1   c0,0-0.4,0.7-0.7,0.9c-0.3,0.2-0.3,0.7,0,1c0.3,0.3,0.2,0.4,0.3,0.5c0.1,0.1-0.6,0.5-0.6,0.5L38,76.4c0,0,1,1.2,1.1,1.3   s0.5,0.8,0.7,1.2c0.3,0.4,0.4,1.1,0.5,1.3c0.2,0.2,0.4,1,0.6,1.2c0.2,0.2,0.9,0.8,1.2,1c0.2,0.2,1,0.8,1.4,1.1   c0.4,0.3,0.7,0.5,1.2,0.5c0.5,0,0,0.4,0.6,0.7s-0.1,1.2,0,1.9c0.1,0.7-0.1,1.5,0,1.8s-0.1,1.1,0.1,1.8c0.2,0.7,0,1.4,0.1,1.8   c0.1,0.4,0.2,2,0.2,2l0.3,3.7c0,0,0.2,0.3,0.4,0.4s0.3,0.6,0.5,0.7c0.2,0.1,0.2,0.5,0.3,0.9c0.1,0.4,0.1,0.5,0.4,0.6   c0.2,0.1,0,0.5,0,0.6c0,0.1-0.3,0.3-0.4,0.6c-0.1,0.3,0.5,1,0.5,1l0.5,0.9c0,0,0.7,1,0.9,1.2c0.2,0.2,0.9,0.5,1.2,0.7   c0,0,0.7,0.1,0.9,0c0.2-0.1,0,0-0.1-0.3c-0.1-0.3-0.2-0.3-0.1-0.8c0-0.5,0.2-0.5,0.5-1c0.2-0.5,0-0.3,0-1c0-0.7-0.3-0.5-0.7-0.5   c-0.4,0-0.1-0.5-0.1-0.7c0-0.1,0.1-0.3,0.4-0.5c0.2-0.2,0.2-0.4,0.2-0.4s0.1-0.5-0.1-0.8s-0.2-0.4-0.4-0.5s-0.1-0.6-0.1-0.6   l0.3-0.1l0.1,0.2c0,0,0.5,0.1,0.8,0s0.1-0.5,0.1-1.1c0-0.6,0.1-0.2,0.2-0.4c0.1-0.2,0.5,0.1,0.7,0.2c0.2,0.1,0.3-0.1,0.4-0.1   s0.3-0.6,0.6-0.7c0.3-0.1,0,0,0.1-0.2c0.1-0.2,0.1-0.2,0.3-0.5c0.2-0.3-0.5-0.4-0.9-0.7c-0.4-0.3-0.5-0.5-0.5-0.8   c0.1-0.3,0.2,0.1,0.9,0.3c0.7,0.2,0.6,0,0.8,0.1c0.2,0.1,0.1-0.1,0.1-0.1s0.5-0.1,0.6-0.5c0.2-0.3,0,0,0.2-0.4   c0.2-0.4,0.2-0.2,0.8-0.9s0.1-0.2,0.1-0.5c0-0.2,0.2-0.5,0.2-0.9c0-0.3,0.4-0.5,0.7-1.2c0.3-0.7,0.3-0.8,0-1.3s0.6-0.8,0.9-0.9   c0.2,0,0.9-0.2,1.5-0.4c0.6-0.2,0.3-0.1,0.8-0.4s0.3,0.1,0.5-0.4c0.1-0.5,0.2-0.4,0.6-1.4c0.4-1,0.1-0.3,0.2-0.8   c0.1-0.5,0-0.5,0.2-1.2c0.1-0.7,0-1,0.2-1.6c0.1-0.6,0,0,0.2-0.6c0.2-0.6,0.1-0.7,0.4-1.3c0.2-0.6,0.2-0.2,0.4-0.4   c0.2-0.2,0.2-0.5,0.5-0.6s0.6-0.9,0.7-1.4C64.2,77,64,77.1,64,76.8z"></path><path d="M38.2,68c0,0-0.1-0.3-0.4-0.3c-0.2,0-0.7-0.6-0.7-0.6s-0.2-0.2-0.2-0.5c0-0.3-0.2-0.8,0-1.4S37,64,37,63.8   c0-0.2,0.2-0.2-0.1-0.4c-0.3-0.2-0.9-0.2-1.4-0.2c-0.4,0-0.9,0.1-1,0.2c-0.1,0,0.5-1.4,0.6-1.6s0.5-1.2,0.5-1.4   c0-0.1,0.1-0.2-0.1-0.4s-0.7-0.3-1-0.1c-0.3,0.1-0.2-0.2-0.5,0.4c-0.2,0.5-0.5,1.1-0.7,1.2c-0.3,0.1-0.8,0.4-0.8,0.4   s-0.7,0-0.9-0.1c-0.2,0-1.2-0.5-1.4-0.9c-0.2-0.3-0.3-1-0.3-1.3c0-0.3,0.5-1.3,0.5-1.5c0-0.2,0.5-1.1,0.5-1.3s0.1-0.6,0.2-0.8   c0.1-0.2,0.8-0.4,1-0.6c0.2-0.2,0.5-0.4,0.8-0.5s0.6-0.2,0.8-0.2s0.8-0.5,0.9,0c0.1,0.5,0.5,0.3,0.7,0.4s0.3,0.3,0.6-0.3   c0.4-0.6,0.7-0.8,0.7-0.6c0,0.1,0.6,0,0.7,0.1c0.1,0.1,0.3-0.1,0.6,0.2c0.3,0.3,0.8,0.3,0.7,0.5c0,0.1,0.2,0.1,0.2,0.3   c0,0.1,0.2-0.3,0.2,0.5s0.2,1.3,0.2,1.3s0.3,0.7,0.5,0.5c0.1-0.1,0.4-0.5,0.4-0.5s0.5-0.3,0.1-1.2c-0.3-0.9-0.1-1.2-0.2-1.5   C40,54,40,53.9,40.5,53.5c0.5-0.4,1.8-1.3,2.2-1.5c0.3-0.2,1-0.7,1-0.7s0.3-0.1,0.3-0.5c0-0.4,0.9-1,0.9-1.2c0-0.2,0.6-0.6,0.6-0.6   s0.6-0.4,0.6-0.6c0-0.2,0.8-0.6,0.9-0.6S48,48,48,47.6c0-0.4,0-0.5,0.5-0.9c0.5-0.4,1-0.9,1.3-0.9s1-0.4,1.3-0.5s1.3-0.5,0.4,0   c-0.9,0.5-0.3,0.2-0.5,0.7c-0.2,0.5-0.3,1,0.5,0.4c0.9-0.7,0.8-0.8,1.1-0.9c0.3,0,0.1,0.1,0.8-0.1c0.7-0.2,0.7-0.3,0.7-0.3   s0.3-0.3,0.1-0.4c-0.2-0.1,0.2-0.3-0.5,0c-0.7,0.3-0.6,0.3-1.1,0.2c-0.5-0.1-1.1-0.1-0.6-0.5c0.5-0.5,1.1-0.6,0.7-0.8   c-0.4-0.2-1.4,0-1.6,0.1c-0.1,0-0.5,0-0.7,0c-0.3,0-0.2-0.4,0-0.5c0.2-0.1,0.8-0.4,1.5-0.5c0.7-0.2,2.5-0.2,2.9-0.2   s0.9,0.1,1.3-0.1c0.3-0.2,0.9-0.6,1-0.8c0.1-0.2,0.5-0.5,0.5-0.5s0.4-0.4,0.2-0.6c-0.2-0.2-0.5-0.6-0.6-0.5c-0.2,0.1,0,0.6-0.4,0   c-0.4-0.6-0.3-0.7-0.5-0.8c-0.2-0.1-0.4,0-0.2-0.7s0.1-0.9,0.1-0.9s0.1-0.5,0-0.6c-0.1,0-0.2-0.2-0.5,0c-0.2,0.1-1.5,0.8-1.8,0.9   c-0.3,0.1-0.6-0.5-0.5-0.9c0.1-0.3,0-0.1-0.1-0.6c-0.2-0.5-0.9-0.5-1.2-0.5s-0.9-0.4-1.1-0.1c-0.2,0.3-1.1,1.1-1.3,1.2   c-0.2,0.1-0.5-0.8-0.6,0.6c-0.1,1.4,0.5,1.8-0.2,1.9c-0.7,0.1-1.4,0.5-1.4,0.5s-0.6,0-0.6,0.4c0,0.4-0.2,1.2-0.5,1.3   c-0.3,0.1-0.9,0-1.2-0.3s0-1.3,0-1.3l0.4-0.4c0,0-2.9-0.5-2.8-0.6c0-0.2-0.9-0.5-0.9-0.8c-0.1-0.3-0.1-0.9,0-1.1s1.3-1.3,1.9-1.5   s1.7-0.7,2-0.8s0.9,0,1-0.3c0.2-0.2,0.2-0.6,0.2-0.6s-0.1-0.6,0.1-0.5s0.5,0.2,0.5,0.4c0,0.1,0,0.5,0.4,0.1s0.7-0.5,1.1-0.7   c0.4-0.2,0.9-0.1,1.2-0.3s0.9-0.4,0.9-0.8c0-0.5-0.1-0.3-0.4-0.4c-0.2,0,0.1,0-0.7,0.4c-0.8,0.4-0.5,0.1-1.1,0.4s-0.6,0.3-0.6,0.1   c0-0.2,0.1-0.6,0.1-0.6s0,0-0.3-0.1c-0.3-0.1-0.3,0-0.4-0.4c0-0.4,0.2-1-0.2-0.8s-0.9-0.1-1.2,0.8s-1.4,1.8-1.7,1.6   c-0.3-0.2-0.3-0.3-0.5-0.3c-0.2,0-0.5-0.3-0.9-0.3c-0.4,0-1.6,0-1.9,0c-0.3,0-0.7-0.2-0.9,0.1c-0.3,0.3-0.7,0.6-0.7,0.8   s-0.4-0.5-0.5-0.5c-0.1,0-0.5-0.2-0.9-0.2c-0.4,0-0.7-0.2-0.8-0.2c-0.1,0,0.1-0.4,0-0.4c-0.1,0-3.1-0.1-3.1-0.1s-0.9-0.4-1.3-0.3   c-0.4,0-1.4,0.1-2.1,0.2s-1.9,0.6-2.3,0.6c-0.4,0-1.2,0-1.3-0.2c-0.1-0.2,0-0.2-0.1-0.2c-0.2,0,0-0.1-0.5-0.5   c-0.4-0.3,0.2-0.6-0.6-0.6s-1.3,0-2,0c-0.7,0-2.2,0.4-2.4,0.4c-0.2,0-1.6,0.2-1.8,0.1c-0.2-0.1-1.4,0.5-1.6,0.5   c-0.2,0-1.1,0-1.3,0.2c-0.2,0.1-1.3,0.4-0.9,0.6c0.4,0.2,0.3,0.5,0.4,0.6c0,0.1-0.4,0.5-0.4,0.5s-0.1,0-0.6-0.2   c-0.5-0.2-1-0.3-1.3-0.1c-0.2,0.1-0.6,0.4-0.5,0.6c0.1,0.2,0.7,0.6,0.8,0.5c0.1-0.1,0.3-0.4,0.6-0.4c0.3,0,0.7-0.2,0.3,0.3   c-0.4,0.5-0.7,0.7-0.9,0.7c-0.2,0-0.8,0.1-1.3,0.1s-0.5-0.2-0.9,0.3c-0.5,0.5-0.6,0.2-0.7,0.7c-0.1,0.5-0.2,0.5,0,0.6   c0.2,0.1-0.4,0.2,0,0.3c0.4,0.1,0.9,0.3,0.9,0.4c0,0.1,0.5-0.2,0.2,0.2c-0.3,0.4-0.5,0.7,0.1,0.3c0.5-0.4,0.9-0.1,1.3-0.3   c0.5-0.2,0.9-0.3,1.2-0.5c0.3-0.2,0.4-0.5,0.8-0.6c0.4-0.1,0.1,0,0.2,0.3s0,0.3,0.3,0.1c0.3-0.2,0.3,0,0.6-0.3s0.8-0.5,1-0.3   c0.3,0.1,0.4,0.1,0.5,0.1c0.2,0-0.2,0,0.2,0c0.4,0-0.2-0.1,1.2,0.2s1.7,0.1,1.8,0.6s0.3,0,0.5,0.3s0.4,0,0.5,0.6   c0.1,0.5,0,2-0.1,2.2c-0.1,0.2-0.1,0.2-0.1,0.6c0,0.4,0.6,2.3,0.4,2.5s-0.6,0.2-0.6,0.2l-0.2,0.8c0,0-0.4,0.7-0.7,1   c-0.3,0.4-0.7,0.8-0.9,1.1c-0.2,0.3-0.4,0.9-0.7,1.2c-0.3,0.3-0.6,0.2-0.5,0.9c0.1,0.7,0,1.4,0.1,1.9c0.1,0.5,0.3,1.2,0.5,1.4   s0.3,0.3,0.6,0.5c0.3,0.2,0.7,0.5,0.7,0.7s0,1.6,0,1.6s0.3,0.5,0.3,0.9c0,0.5,0.4,1,0.4,1l0.3,0.6c0,0,0.1,0,0.3,0.4   c0.2,0.4,0.2,0.4,0.2,0.5c0,0.1,0,0.1,0,0.1c0-0.1-0.1-0.8-0.1-1c-0.1-0.2-0.1-0.5-0.2-0.8s0-0.6-0.2-1c-0.3-0.4-0.3-0.5-0.4-0.9   C22,54.6,21.9,54.1,22,54c0.2-0.1,0.3-0.7,0.7,0c0.4,0.7,0.4,0.5,0.5,1c0,0.5,0.2,0.7,0.3,0.9c0.1,0.2,0.5,1,0.6,1.3   c0.2,0.3,0-0.2,0.4,0.5c0.4,0.6,0.5,0.8,0.7,1.3c0.2,0.5,0.4,0.5,0.5,0.9c0.1,0.4,0,0.3,0,0.7c-0.1,0.4,0.1,0.9,0.1,0.9   s0.6,0.2,0.7,0.4s0.7,0.4,0.8,0.5c0.1,0.2,0.7,0.4,0.7,0.4s0.5,0.3,0.7,0.4s0.7,0.2,0.7,0.2s0.4,0.1,0.5,0.1c0.1,0,0.5,0,0.5,0   s0.4-0.3,0.5-0.2c0.1,0.1,0.5-0.2,0.6,0c0.1,0.2,0.4,0.2,0.5,0.4c0.1,0.2,0.3,0.2,0.5,0.4c0.2,0.2,0.5,0.2,0.7,0.4s0.4,0.2,0.7,0.2   s0.3,0,0.5,0c0.2,0,0.3-0.1,0.5,0.1c0.2,0.2,0.3,0.4,0.5,0.6c0.1,0.2,0.5,0.2,0.5,0.6s0.1,0.3,0.1,0.6c0,0.3,0.2,0.5,0.3,0.5   c0.1,0.1,0.6,0.5,0.6,0.5l0.7,0.1l0.5,0.4l0.6,0.2L38.2,68z"></path><polygon points="51.4,26.6 51.4,26.6 51.4,26.6  "></polygon><path d="M75,31.6c0.4-0.3,0.5-0.4,0.6-0.8c0.1-0.4-0.3-0.6,0.1-1.4s0.5-0.1,1.8-0.5c1.3-0.5,0.3-0.9,0.9-1.5s0.5-0.5,1.4-0.9   c0.9-0.4,0,0-0.1-0.5c-0.1-0.5-0.7,0-1.2-0.4c-0.5-0.4-0.8,0.1-1.2,0.1s-0.8,0.1-1.8,0.1c-0.9-0.1-1.8,0.1-2.2,0   c-0.5-0.1-0.9,0.1-2.1,0c-1.2-0.1-1.4,0.5-1.7,0.2c-0.3-0.3-1.2,0.7-2.2,0.7h-1.9c-0.6,0-0.9-0.5-1.7-0.7c-0.7-0.2-0.9-0.3-1.8-0.4   c-0.8-0.1-1-0.3-1.8-0.4c-0.7-0.1-0.3-0.1-1.8,0.2s-0.9,0.2-1.4,0.6c-0.5,0.3-2.2,0.3-2.2,0.3l-3.5,0.3c0,0,0.6,0.3,0.4,0.4   c-0.2,0.1,0,0.1,0.3,0.5c0.3,0.4,0.5,0.4,1.4,0.5c0.9,0.1,0.4,0.1,0.4,0.1s0.4,0.2,0.9,0.3c0.5,0.1,0.2,0.2,1.2-0.3   c0.9-0.5,0.2-0.1,0.6,0c0.4,0.1,0,0,0.4-0.5c0.4-0.5,1.2-0.4,1.9-0.6c0.7-0.2,1.4-0.3,1.6-0.3c0.3-0.1,1.4-0.3,2.3-0.5   c0.9-0.2-0.1,0.4,0.3,0.5c0.4,0.1-0.8,0.6-0.8,0.6s-0.9-0.1-1.8-0.1c-0.9,0.1-0.1,0.6,0.2,0.5c0.3-0.1,0.5,0.1,1.2,0.2   c0.7,0.1,0.6,0.3,1.1,0.7c0.5,0.4,0.5,0.3,0.8,0.7c0.3,0.4,0.2,0.7,0.4,1.2s0.3,1.2,0.3,1.2s-0.2,0.5-0.4,0.6   c-0.2,0.1-0.6,0.2-1.3,0.1c-0.7-0.1-0.1,0.8,0,1.2c0.1,0.4,0.1,1.1,0.3,1.4c0.2,0.3,0.4,0.7,0.7,1.1c0.3,0.3,0.5,0.3,0.9,0.6   c0.4,0.3,1.2-1,1.5-1.4c0.3-0.3,0.1-0.4,0.5-0.9c0.4-0.5,0.7-0.5,2.2-0.9c1.4-0.4,0.7-0.6,0.9-0.7s1.2-0.5,1.6-0.5   c0.4,0,1.1-0.2,2-0.4C74.6,31.6,74.6,32,75,31.6z"></path><path d="M51.3,31.4c0.4-0.2-0.1-0.9,1.5-0.3c1.6,0.5,1.4-0.1,1.8,0.7s0.6,1.4,0.4,1.6c-0.2,0.2-0.3,0.4-0.9,0.6   c-0.7,0.2-0.9,0.5-0.5,0.8c0.5,0.3,1.4,0.7,1.8,0.9c0.4,0.2,1.6,0.3,1-0.4c-0.6-0.7,0.1-0.9,0.1-0.9s1.2,0.9,0.7-0.1   c-0.4-1-0.7-1-0.4-1c0.3,0,0.8,0.3,0.8,0.3l0.3-0.5l-0.3-0.9l-0.9-0.9c0,0,0.7-0.7-0.3-0.8c-1-0.1-0.9-0.1-1.5-0.5   s-0.6-0.5-1.6-0.3c-1,0.2-1.4,0.3-1.4,0.3l-0.5-0.5c-0.3,0.3-1.2,0.8-0.9,1C50.7,30.8,50.9,31.6,51.3,31.4z"></path><path d="M37.2,30.6c0.3,0.2,0.6,0.1,1,0.1c0.4,0,0.2-0.1,0.1,0.5c-0.1,0.6,0.3,0.5,0.5,0.7c0.1,0.2,0.3-0.1,0.9,0.1   c0.6,0.1,0.3,0.1,0.9-0.1c0.5-0.3,0.8-0.1,1.2,0.1c0.3,0.2,1.2-0.3,1.9-0.4c0.7-0.1,0.1-0.3,0.4-1.3c0.3-0.9-1.2,0.3-1.6,0.1   c-0.4-0.2-0.9,0.3-1.3,0.1c-0.4-0.1-0.9-0.6-1.4-1c-0.5-0.4-1.1,0.1-1.5-0.2c-0.4-0.3-1.5,0.7-1.9,1.1   C36.4,30.4,36.9,30.4,37.2,30.6z"></path><path d="M176.5,13.7c-0.8-0.7-1.6-1.2-2.7-1.1l-48.4,0.9c-0.1,0-0.2,0-0.3,0L87.6,4.7c-0.6-0.1-1.1-0.1-1.7,0l-38.2,7.9   c-0.1,0-0.2,0.1-0.2,0.1H5.9c-2.2,0-3.4,1.7-3.4,3.9v98.7c0,1.1,0.2,2.2,1.1,3c0.9,0.7,1.9,1.1,3,0.9l43.4-6.5c0.1,0,0.2,0,0.4,0   l34.5,6.8c0.3,0,0.5,0.1,0.8,0.1c0.2,0,0.4,0,0.6,0l40.4-5.9c0.1,0,0.2,0,0.3,0l46.6,5.6c1.1,0.1,2-0.2,2.8-1   c0.8-0.7,1.1-1.8,1.1-2.9V16.5C177.4,15.5,177.3,14.5,176.5,13.7z M175.4,115.3c0,0.3-0.3,0.6-0.5,0.9c-0.3,0.2-0.6,0.3-1,0.3   l-46.6-5.6c-0.3,0-0.7,0-1.1,0l-40.4,5.9c-0.1,0-0.3,0-0.4,0l-34.5-6.8c-0.3,0-0.5-0.1-0.8-0.1c-0.2,0-0.4,0-0.6,0L6,116.3   c-0.5,0.1-0.9-0.1-1.1-0.3s-0.5-0.4-0.5-0.9V16.5c0-0.6,0.8-0.9,1.4-0.9h41.6c0.3,0,0.5-0.2,0.8-0.2l38.2-7.9c0.2,0,0.3-0.1,0.5,0   l37.5,8.8c0.3,0.1,0.6,0.1,1,0.1l48.5-0.9c0.3,0,0.7,0.1,1,0.3c0.2,0.2,0.5,0.5,0.5,0.8V115.3z"></path></g></svg>