<svg height='100px' width='100px'  fill="#000000" xmlns="http://www.w3.org/2000/svg" xmlns:xlink="http://www.w3.org/1999/xlink" xml:space="preserve" version="1.0" style="shape-rendering:geometricPrecision;text-rendering:geometricPrecision;image-rendering:optimizeQuality;" viewBox="0 0 247 253" x="0px" y="0px" fill-rule="evenodd" clip-rule="evenodd"><defs><style type="text/css">
   
    .fil0 {fill:#000000}
   
  </style></defs><g><path class="fil0" d="M117 240c24,22 68,14 100,-17 30,-31 39,-72 20,-97 -6,20 -16,24 -26,27 -21,7 -10,15 -28,21 -11,4 11,6 -32,35 -22,15 -30,24 -34,31z"></path><path class="fil0" d="M226 116c-24,-17 -65,-8 -94,21 -29,29 -38,67 -24,92 16,-24 57,-40 58,-50 1,-20 13,-14 18,-22 16,-26 34,-6 42,-41z"></path><path class="fil0" d="M99 163c-18,17 -52,11 -76,-13 -23,-23 -30,-55 -16,-73 5,15 13,17 20,20 16,5 8,11 22,16 8,3 -8,5 24,27 17,11 23,18 26,23z"></path><path class="fil0" d="M16 68c19,-12 49,-5 72,17 21,22 28,51 18,70 -12,-19 -43,-31 -44,-38 -1,-16 -10,-11 -14,-17 -12,-20 -26,-5 -32,-32z"></path><path class="fil0" d="M116 101c18,17 52,11 76,-13 23,-23 30,-55 16,-74 -5,16 -13,18 -20,21 -16,5 -8,11 -22,16 -8,3 8,5 -24,27 -17,11 -23,18 -26,23z"></path><path class="fil0" d="M199 6c-19,-12 -49,-6 -72,17 -21,21 -28,51 -18,69 13,-18 43,-30 44,-37 1,-16 10,-11 14,-17 12,-20 26,-5 32,-32z"></path></g></svg>