<svg height='100px' width='100px'  fill="#000000" xmlns:dc="http://purl.org/dc/elements/1.1/" xmlns:cc="http://creativecommons.org/ns#" xmlns:rdf="http://www.w3.org/1999/02/22-rdf-syntax-ns#" xmlns:svg="http://www.w3.org/2000/svg" xmlns="http://www.w3.org/2000/svg" xmlns:sodipodi="http://sodipodi.sourceforge.net/DTD/sodipodi-0.dtd" xmlns:inkscape="http://www.inkscape.org/namespaces/inkscape" version="1.1" x="0px" y="0px" viewBox="0 0 100 100"><g transform="translate(0,-952.36218)"><path style="text-indent:0;text-transform:none;direction:ltr;block-progression:tb;baseline-shift:baseline;color:#000000;enable-background:accumulate;" d="m 36.0625,6.0625 c -7.681902,0 -15.369344,2.93178 -21.21875,8.78125 -11.6986689,11.69889 -11.6991632,30.73858 0,42.4375 10.747191,10.747455 27.682396,11.623688 39.4375,2.625 l 3.03125,3.03125 c -0.291424,0.271861 -0.600424,0.577494 -0.875,0.84375 -0.619025,0.765329 -0.547296,1.999065 0.15625,2.6875 l 26.875,26.875 c 0.739355,0.730954 2.073145,0.730954 2.8125,0 l 7.09375,-7.0625 c 0.749546,-0.741596 0.749546,-2.102154 0,-2.84375 L 66.5,56.5625 c -0.741596,-0.749546 -2.102154,-0.749546 -2.84375,0 l -0.71875,0.6875 -3,-3 C 68.894368,42.496915 68.012762,25.575403 57.28125,14.84375 51.431653,8.99423 43.744402,6.0625 36.0625,6.0625 z m 0,3.96875 c 6.649841,0 13.32095,2.53977 18.40625,7.625 10.170327,10.17046 10.170489,26.61081 0,36.78125 -10.170259,10.1703 -26.610949,10.1705 -36.78125,0 -10.1705188,-10.17035 -10.1700933,-26.61096 0,-36.78125 5.085095,-5.08515 11.725159,-7.625 18.375,-7.625 z m 0,3.03125 c -5.894812,-10e-6 -11.767343,2.267345 -16.25,6.75 -1.006011,1.324053 -0.660574,2.119031 -0.0058,2.818269 0.486599,0.54828 1.417862,1.039616 2.849519,0.02548 7.436698,-7.4367 19.407038,-7.43672 26.84375,0 0.733325,0.757752 2.09395,0.772704 2.84375,0.03125 0.768487,-0.743534 0.768487,-2.131466 0,-2.875 C 47.861096,15.329844 41.957311,13.062509 36.0625,13.0625 z m 29,47.75 24.0625,24.03125 -4.25,4.25 L 60.84375,65.0625 c 1.579548,-1.661136 2.786373,-2.752515 4.21875,-4.25 z" transform="translate(0,952.36218)" fill="#000000" fill-opacity="1" stroke="none" marker="none" visibility="visible" display="inline" overflow="visible"></path></g></svg>