<svg height='100px' width='100px'  fill="#000000" xmlns="http://www.w3.org/2000/svg" xmlns:xlink="http://www.w3.org/1999/xlink" xml:space="preserve" version="1.1" style="shape-rendering:geometricPrecision;text-rendering:geometricPrecision;image-rendering:optimizeQuality;" viewBox="0 0 436 451" x="0px" y="0px" fill-rule="evenodd" clip-rule="evenodd"><defs><style type="text/css">
   
    .fil0 {fill:#000000}
    .fil1 {fill:#000000;fill-rule:nonzero}
   
  </style></defs><g><path class="fil0" d="M397 5l34 34c7,7 7,19 0,26l-41 41 -60 -60 41 -41c7,-7 19,-7 26,0zm-21 115l-194 194 -60 -60 194 -194 60 60zm-210 206l-70 22c-5,1 -9,-3 -8,-8l22 -70 56 56z"></path><path class="fil1" d="M367 212c0,-7 6,-13 13,-13 7,0 13,6 13,13l0 171c0,37 -31,68 -68,68l-257 0c-38,0 -68,-31 -68,-68l0 -257c0,-38 30,-68 68,-68l142 0c7,0 12,6 12,13 0,7 -5,12 -12,12l-142 0c-24,0 -43,19 -43,43l0 257c0,23 19,42 43,42l257 0c23,0 42,-19 42,-42l0 -171z"></path></g></svg>