<svg height='100px' width='100px'  fill="#000000" xmlns="http://www.w3.org/2000/svg" xmlns:xlink="http://www.w3.org/1999/xlink" version="1.1" x="0px" y="0px" viewBox="0 0 100 100" enable-background="new 0 0 100 100" xml:space="preserve"><path d="M85.719,27.163H26.438c-0.413,0-0.807,0.068-1.179,0.178c0.004-0.008-2.724-9.12-2.724-9.12  c-0.106-0.348-0.3-0.663-0.561-0.913l-8.207-6.422c-0.849-0.815-2.201-0.773-2.997,0.091c-0.75,0.819-0.735,2.08,0.034,2.88  l7.407,6.058c0.224,0.227,0.39,0.508,0.489,0.811l4.41,13.716l6.154,22.502c0.409,1.493,1.273,2.762,2.402,3.705l-0.083,3.115  c-0.087,3.399,2.167,6.312,5.21,6.729l27.379,3.777c0.932,0.129,0.838,1.5-0.102,1.5H32.992c-1.084,0-1.959,0.879-1.959,1.963  c0,1.08,0.875,1.959,1.959,1.959h5.166c-2.039,0.685-3.518,2.592-3.518,4.861c0,2.842,2.304,5.145,5.146,5.145  c2.845,0,5.149-2.304,5.149-5.145c0-2.269-1.479-4.176-3.52-4.861h25.982c-2.04,0.685-3.521,2.592-3.521,4.861  c0,2.842,2.307,5.145,5.149,5.145s5.145-2.304,5.145-5.145c0-2.269-1.479-4.176-3.518-4.861h2.976c2.057,0,3.725-1.849,3.725-4.13  c0-2.11-1.436-3.88-3.327-4.107l-35.063-4.164c-1.402-0.167-2.493-1.099-3.149-2.308c-0.454-0.845-1.065-2.591,0.584-2.595h39.36  c3.334,0,6.255-2.232,7.136-5.445l6.725-24.59C90.372,29.758,88.424,27.163,85.719,27.163z M26.089,30.88h8.578l1.474,8.222h-7.983  L26.089,30.88z M30.772,49.502l-1.686-6.706h7.718l1.205,6.706H30.772z M32.936,58.126l-1.402-5.581h7.021l1,5.581H32.936z   M38.838,30.88h8.574l0.599,8.222h-7.987L38.838,30.88z M40.559,42.796h7.722l0.485,6.706h-7.237L40.559,42.796z M42.775,58.126  l-0.807-5.581h7.021l0.402,5.581H42.775z M59.231,58.126h-6.619l-0.208-5.581h7.017L59.231,58.126z M59.526,49.502h-7.237  l-0.254-6.706h7.718L59.526,49.502z M59.882,39.102h-7.987l-0.311-8.222h8.578L59.882,39.102z M69.067,58.126h-6.616l0.382-5.581  h7.021L69.067,58.126z M70.283,49.502h-7.237l0.466-6.706h7.718L70.283,49.502z M63.766,39.102l0.568-8.222h8.578l-1.163,8.222  H63.766z M78.907,58.126h-6.619l0.982-5.581h7.019L78.907,58.126z M81.042,49.502h-7.239l1.182-6.706h7.72L81.042,49.502z   M83.62,39.102h-7.983l1.448-8.222h8.574L83.62,39.102z"></path></svg>