<svg height='100px' width='100px'  fill="#000000" xmlns="http://www.w3.org/2000/svg" xmlns:xlink="http://www.w3.org/1999/xlink" xmlns:serif="http://www.serif.com/" viewBox="0 0 101 100" version="1.1" xml:space="preserve" style="" x="0px" y="0px" fill-rule="evenodd" clip-rule="evenodd" stroke-linejoin="round" stroke-miterlimit="1.41421"><rect serif:id="Page 12" x="0.5" y="0" width="100" height="100" style="" fill="none"></rect><g><path d="M51.066,70.895c3.096,2.591 4.43,7.781 3.01,13.079c-1.792,6.687 -7.294,11.031 -12.28,9.695c-4.986,-1.336 -7.58,-7.849 -5.788,-14.536c1.42,-5.299 5.17,-9.126 9.147,-9.822c0,0 8.004,-29.871 10.584,-39.501c0.437,-1.632 2.114,-2.6 3.746,-2.163c0.001,0.001 0.002,0.001 0.003,0.001c1.631,0.437 2.599,2.114 2.162,3.745c-2.58,9.631 -10.584,39.502 -10.584,39.502Z"></path><path d="M55.177,10.224c-0.034,-0.344 0.062,-0.705 0.337,-1.035c0.353,-0.421 0.945,-0.551 1.487,-0.77c1.799,-0.725 3.49,-1.713 5.351,-2.254c0,0 0.285,-0.079 0.542,-0.075c1.421,0.079 2.15,2.457 0.434,3.059c-0.602,0.185 -1.186,0.413 -1.762,0.661c1.537,0.509 2.93,1.339 3.985,2.602c2.215,2.652 2.564,7.071 -0.522,9.578c-2.128,1.729 -5.227,1.854 -7.797,2.061c-4.117,0.331 -8.255,0.016 -12.407,0.018c-3.96,-0.012 -8.343,-0.639 -10.415,-4.096c-1.803,-3.009 0.199,-7.273 2.956,-9.744c3.609,-3.236 9.223,-3.475 13.684,-3.475l0.648,0.006c0.443,0.059 0.558,0.135 0.763,0.279c0.744,0.52 0.877,1.727 0.209,2.395c-0.587,0.587 -1.565,0.458 -2.383,0.459c-3.605,0.013 -7.373,0.016 -10.295,2.235c-1.578,1.197 -2.887,2.95 -3.122,4.822c-0.113,0.905 0.358,1.809 1.165,2.439c1.428,1.113 3.403,1.353 5.073,1.485c2.381,0.188 4.787,0.072 7.197,0.138c3.658,0.095 7.408,0.177 10.926,-0.649c1.45,-0.34 2.845,-1.369 2.981,-2.949c0.171,-1.988 -1.379,-3.797 -3.207,-4.525c-0.555,-0.22 -1.401,-0.405 -1.401,-0.405c0.893,0.966 2.125,1.965 1.629,3.114c-0.441,1.021 -1.923,1.177 -2.751,0.267c-1.291,-1.406 -2.814,-2.721 -3.285,-4.605c-0.065,-0.259 -0.108,-0.344 -0.081,-0.729l0.061,-0.307Z" style="" fill-rule="nonzero"></path></g></svg>