<svg height='100px' width='100px'  fill="#000000" xmlns:dc="http://purl.org/dc/elements/1.1/" xmlns:cc="http://creativecommons.org/ns#" xmlns:rdf="http://www.w3.org/1999/02/22-rdf-syntax-ns#" xmlns:svg="http://www.w3.org/2000/svg" xmlns="http://www.w3.org/2000/svg" xmlns:sodipodi="http://sodipodi.sourceforge.net/DTD/sodipodi-0.dtd" xmlns:inkscape="http://www.inkscape.org/namespaces/inkscape" version="1.1" x="0px" y="0px" viewBox="0 0 100 100"><g transform="translate(0,-952.36218)"><g transform="matrix(-1,0,0,1,263,-2508.9815)"><path style="text-indent:0;text-transform:none;direction:ltr;block-progression:tb;baseline-shift:baseline;color:#000000;enable-background:accumulate;" d="m 213,3468.3437 c -23.73637,0 -43,19.2706 -43,43.0156 0,23.745 19.26363,42.9844 43,42.9844 23.7364,0 43,-19.2394 43,-42.9844 0,-23.745 -19.2636,-43.0156 -43,-43.0156 z m 1,2.0007 c 22.19423,0.5293 40,18.6845 40,41.0149 0,22.6637 -18.34448,41.0149 -41,41.0149 -22.6555,0 -41,-18.3512 -41,-41.0149 0,-7.0081 1.75137,-13.6116 4.84375,-19.382 l 6.09375,3.4387 c -2.52347,4.7538 -3.9375,10.1912 -3.9375,15.9433 0,18.7726 15.23416,34.0124 34,34.0124 18.76583,0 34,-15.2398 34,-34.0124 0,-18.4375 -14.69685,-33.481 -33,-34.0123 z m 0,9.0345 c 17.2227,0.5267 31,14.6229 31,31.9804 0,17.6913 -14.31504,31.9804 -32,31.9804 -17.68498,0 -32,-14.2891 -32,-31.9804 0,-5.4029 1.32859,-10.4803 3.6875,-14.9429 l 27.8125,15.787 c 0.59823,0.3457 1.48463,-0.1532 1.5,-0.8441 z" fill="#000000" fill-opacity="1" stroke="none" marker="none" visibility="visible" display="inline" overflow="visible"></path><circle transform="matrix(0.48296291,0.12945648,-0.12940952,0.48313818,9.91085,3175.1151)" d="m 568.32129,600.18707 c 0,1.10457 -0.89543,2 -2,2 -1.10457,0 -2,-0.89543 -2,-2 0,-1.10457 0.89543,-2 2,-2 1.10457,0 2,0.89543 2,2 z" r="2" cy="600.18707" cx="566.32129" style="color:#000000;enable-background:accumulate;" fill="#000000" stroke="none" marker="none" visibility="visible" display="inline" overflow="visible"></circle><circle style="color:#000000;enable-background:accumulate;" cx="566.32129" cy="600.18707" r="2" d="m 568.32129,600.18707 c 0,1.10457 -0.89543,2 -2,2 -1.10457,0 -2,-0.89543 -2,-2 0,-1.10457 0.89543,-2 2,-2 1.10457,0 2,0.89543 2,2 z" transform="matrix(0.48296291,0.12945648,-0.12940952,0.48313818,24.40472,3121.0036)" fill="#000000" stroke="none" marker="none" visibility="visible" display="inline" overflow="visible"></circle><circle style="color:#000000;enable-background:accumulate;" cx="566.32129" cy="600.18707" r="2" d="m 568.32129,600.18707 c 0,1.10457 -0.89543,2 -2,2 -1.10457,0 -2,-0.89543 -2,-2 0,-1.10457 0.89543,-2 2,-2 1.10457,0 2,0.89543 2,2 z" transform="matrix(0.4330127,0.25009073,-0.25,0.43316984,103.82249,3133.9895)" fill="#000000" stroke="none" marker="none" visibility="visible" display="inline" overflow="visible"></circle><circle transform="matrix(0.4330127,0.25009073,-0.25,0.43316984,131.82251,3085.4744)" d="m 568.32129,600.18707 c 0,1.10457 -0.89543,2 -2,2 -1.10457,0 -2,-0.89543 -2,-2 0,-1.10457 0.89543,-2 2,-2 1.10457,0 2,0.89543 2,2 z" r="2" cy="600.18707" cx="566.32129" style="color:#000000;enable-background:accumulate;" fill="#000000" stroke="none" marker="none" visibility="visible" display="inline" overflow="visible"></circle><circle transform="matrix(0.35355339,0.35368169,-0.35355339,0.35368169,205.1744,3118.5801)" d="m 568.32129,600.18707 c 0,1.10457 -0.89543,2 -2,2 -1.10457,0 -2,-0.89543 -2,-2 0,-1.10457 0.89543,-2 2,-2 1.10457,0 2,0.89543 2,2 z" r="2" cy="600.18707" cx="566.32129" style="color:#000000;enable-background:accumulate;" fill="#000000" stroke="none" marker="none" visibility="visible" display="inline" overflow="visible"></circle><circle style="color:#000000;enable-background:accumulate;" cx="566.32129" cy="600.18707" r="2" d="m 568.32129,600.18707 c 0,1.10457 -0.89543,2 -2,2 -1.10457,0 -2,-0.89543 -2,-2 0,-1.10457 0.89543,-2 2,-2 1.10457,0 2,0.89543 2,2 z" transform="matrix(0.35355339,0.35368169,-0.35355339,0.35368169,244.77242,3078.9678)" fill="#000000" stroke="none" marker="none" visibility="visible" display="inline" overflow="visible"></circle><circle style="color:#000000;enable-background:accumulate;" cx="566.32129" cy="600.18707" r="2" d="m 568.32129,600.18707 c 0,1.10457 -0.89543,2 -2,2 -1.10457,0 -2,-0.89543 -2,-2 0,-1.10457 0.89543,-2 2,-2 1.10457,0 2,0.89543 2,2 z" transform="matrix(0.25,0.43316984,-0.4330127,0.25009073,307.05962,3129.9372)" fill="#000000" stroke="none" marker="none" visibility="visible" display="inline" overflow="visible"></circle><circle transform="matrix(0.25,0.43316984,-0.4330127,0.25009073,355.55708,3101.927)" d="m 568.32129,600.18707 c 0,1.10457 -0.89543,2 -2,2 -1.10457,0 -2,-0.89543 -2,-2 0,-1.10457 0.89543,-2 2,-2 1.10457,0 2,0.89543 2,2 z" r="2" cy="600.18707" cx="566.32129" style="color:#000000;enable-background:accumulate;" fill="#000000" stroke="none" marker="none" visibility="visible" display="inline" overflow="visible"></circle><circle transform="matrix(0.12940952,0.48313818,-0.48296291,0.12945648,402.53483,3167.2866)" d="m 568.32129,600.18707 c 0,1.10457 -0.89543,2 -2,2 -1.10457,0 -2,-0.89543 -2,-2 0,-1.10457 0.89543,-2 2,-2 1.10457,0 2,0.89543 2,2 z" r="2" cy="600.18707" cx="566.32129" style="color:#000000;enable-background:accumulate;" fill="#000000" stroke="none" marker="none" visibility="visible" display="inline" overflow="visible"></circle><circle style="color:#000000;enable-background:accumulate;" cx="566.32129" cy="600.18707" r="2" d="m 568.32129,600.18707 c 0,1.10457 -0.89543,2 -2,2 -1.10457,0 -2,-0.89543 -2,-2 0,-1.10457 0.89543,-2 2,-2 1.10457,0 2,0.89543 2,2 z" transform="matrix(0.12940952,0.48313818,-0.48296291,0.12945648,456.62672,3152.7874)" fill="#000000" stroke="none" marker="none" visibility="visible" display="inline" overflow="visible"></circle><circle transform="matrix(-0.12940952,0.48313818,-0.48296291,-0.12945648,549.10957,3308.1836)" d="m 568.32129,600.18707 c 0,1.10457 -0.89543,2 -2,2 -1.10457,0 -2,-0.89543 -2,-2 0,-1.10457 0.89543,-2 2,-2 1.10457,0 2,0.89543 2,2 z" r="2" cy="600.18707" cx="566.32129" style="color:#000000;enable-background:accumulate;" fill="#000000" stroke="none" marker="none" visibility="visible" display="inline" overflow="visible"></circle><circle style="color:#000000;enable-background:accumulate;" cx="566.32129" cy="600.18707" r="2" d="m 568.32129,600.18707 c 0,1.10457 -0.89543,2 -2,2 -1.10457,0 -2,-0.89543 -2,-2 0,-1.10457 0.89543,-2 2,-2 1.10457,0 2,0.89543 2,2 z" transform="matrix(-0.12940952,0.48313818,-0.48296291,-0.12945648,603.20146,3322.6828)" fill="#000000" stroke="none" marker="none" visibility="visible" display="inline" overflow="visible"></circle><circle transform="matrix(-0.25,0.43316984,-0.4330127,-0.25009073,638.71773,3430.1396)" d="m 568.32129,600.18707 c 0,1.10457 -0.89543,2 -2,2 -1.10457,0 -2,-0.89543 -2,-2 0,-1.10457 0.89543,-2 2,-2 1.10457,0 2,0.89543 2,2 z" r="2" cy="600.18707" cx="566.32129" style="color:#000000;enable-background:accumulate;" fill="#000000" stroke="none" marker="none" visibility="visible" display="inline" overflow="visible"></circle><circle style="color:#000000;enable-background:accumulate;" cx="566.32129" cy="600.18707" r="2" d="m 568.32129,600.18707 c 0,1.10457 -0.89543,2 -2,2 -1.10457,0 -2,-0.89543 -2,-2 0,-1.10457 0.89543,-2 2,-2 1.10457,0 2,0.89543 2,2 z" transform="matrix(-0.35355339,0.35368169,-0.35355339,-0.35368169,645.22203,3543.1305)" fill="#000000" stroke="none" marker="none" visibility="visible" display="inline" overflow="visible"></circle><circle transform="matrix(-0.4330127,0.25009073,-0.25,-0.43316984,622.27112,3653.9554)" d="m 568.32129,600.18707 c 0,1.10457 -0.89543,2 -2,2 -1.10457,0 -2,-0.89543 -2,-2 0,-1.10457 0.89543,-2 2,-2 1.10457,0 2,0.89543 2,2 z" r="2" cy="600.18707" cx="566.32129" style="color:#000000;enable-background:accumulate;" fill="#000000" stroke="none" marker="none" visibility="visible" display="inline" overflow="visible"></circle><circle style="color:#000000;enable-background:accumulate;" cx="566.32129" cy="600.18707" r="2" d="m 568.32129,600.18707 c 0,1.10457 -0.89543,2 -2,2 -1.10457,0 -2,-0.89543 -2,-2 0,-1.10457 0.89543,-2 2,-2 1.10457,0 2,0.89543 2,2 z" transform="matrix(-0.48296291,0.12945648,-0.12940952,-0.48313818,571.42905,3755.0616)" fill="#000000" stroke="none" marker="none" visibility="visible" display="inline" overflow="visible"></circle><path style="color:#000000;enable-background:accumulate;" d="m 213,3537.356 0,3.001" fill="none" stroke="#000000" stroke-width="1.99999988" stroke-linecap="butt" stroke-linejoin="miter" stroke-miterlimit="4" stroke-opacity="1" stroke-dasharray="none" stroke-dashoffset="0" marker="none" visibility="visible" display="inline" overflow="visible"></path><path style="color:#000000;enable-background:accumulate;" d="m 242,3511.3465 -3,0" fill="none" stroke="#000000" stroke-width="1.99999988" stroke-linecap="butt" stroke-linejoin="miter" stroke-miterlimit="4" stroke-opacity="1" stroke-dasharray="none" stroke-dashoffset="0" marker="none" visibility="visible" display="inline" overflow="visible"></path><path d="m 187,3511.3465 -3,0" style="color:#000000;enable-background:accumulate;" fill="none" stroke="#000000" stroke-width="1.99999988" stroke-linecap="butt" stroke-linejoin="miter" stroke-miterlimit="4" stroke-opacity="1" stroke-dasharray="none" stroke-dashoffset="0" marker="none" visibility="visible" display="inline" overflow="visible"></path></g></g></svg>