<svg height='100px' width='100px'  fill="#000000" xmlns="http://www.w3.org/2000/svg" xmlns:xlink="http://www.w3.org/1999/xlink" version="1.1" x="0px" y="0px" viewBox="0 0 80 80" enable-background="new 0 0 80 80" xml:space="preserve"><path d="M45.622,64.459c-1.11,0-10.946-0.044-14.311-1.566c-2.808-1.27-4.714-3.323-4.855-5.23c-0.093-1.251,0.012-2.72,0.079-3.458  c-0.988-0.202-3.304-0.848-5.411-2.704c-2.972-2.618-3.866-5.657-4.349-8.285c-0.322-1.754-0.598-4.462-0.841-6.853  c-0.182-1.79-0.339-3.335-0.471-4.019c-0.355-1.846-1.22-5.009-2.147-6.155l-0.073-0.09c-1.082-1.338-3.332-4.122-7.632-6.212  l-1.954-0.95h7.402l0.117,0.069c0.157,0.092,3.862,2.296,5.411,5.329c1.541,3.017,2.176,4.732,2.675,8.347  c0.099,0.717,0.203,1.563,0.315,2.477c0.437,3.558,1.034,8.431,1.942,10.104l0.058,0.105c1.088,2.007,2.119,3.906,5.617,4.727  c0.502-2.404,2.688-12.915,3.015-15.531c0.421-3.366,0.718-8.105,0.376-10.556c-0.228-1.633-0.464-2.4-0.621-2.907  c-0.102-0.331-0.176-0.57-0.176-0.85c0-0.965,1.433-1.542,3.833-1.542h5.563c-0.141-0.032-0.306-0.062-0.503-0.088  c-0.729-0.095-1.165-0.686-1.165-1.579c0-0.648,0.464-1.072,1.378-1.26c0.859-0.177,2.314-0.239,5.559-0.239  c5.249,0,5.498,0.448,5.646,0.715c0.242,0.438,0.271,1.121,0.271,1.597c0,0.58-0.661,0.751-1.166,0.838  c2.213,0.061,5.944,0.163,6.416,0.163l0.291-0.001c0.899,0,1.88,0.072,2.333,0.603c0.196,0.23,0.274,0.518,0.225,0.831  c-0.108,0.677-0.443,2.672-0.612,3.671h9.412l0.142,0.126c0.057,0.05,1.392,1.248,2.422,3.18c1.341,2.514,2.723,10.561,3.114,12.967  c0.675,4.145,1.245,8.186,1.519,10.128c0.083,0.591,0.142,1.004,0.17,1.189c0.128,0.834-0.062,4.941-2.299,5.559  c-1.649,0.454-8.103,1.747-9.476,2.021c-0.403,0.814-1.853,3.395-4.228,3.861C55.13,63.679,51.158,64.459,45.622,64.459z   M7.806,19.937c3.372,2.017,5.245,4.333,6.215,5.533l0.073,0.09c1.406,1.736,2.314,6.397,2.353,6.595  c0.14,0.727,0.299,2.292,0.483,4.106c0.241,2.371,0.515,5.059,0.83,6.774c0.475,2.582,1.291,5.305,4.026,7.715  c2.479,2.184,5.325,2.541,5.353,2.545l0.496,0.058l-0.058,0.496c-0.002,0.021-0.243,2.12-0.123,3.739  c0.111,1.5,1.867,3.307,4.27,4.395c2.577,1.165,9.949,1.477,13.898,1.477c5.439,0,9.36-0.771,12.819-1.449  c2.259-0.444,3.604-3.49,3.617-3.521l0.104-0.24l0.257-0.051c0.079-0.016,7.878-1.564,9.652-2.055  c1.378-0.38,1.703-3.618,1.576-4.441c-0.029-0.188-0.088-0.605-0.172-1.202c-0.273-1.938-0.842-5.973-1.515-10.106  c-1.014-6.227-2.167-11.077-3.011-12.658c-0.761-1.427-1.723-2.436-2.07-2.777H56.676l0.099-0.583c0,0,0.563-3.331,0.708-4.246  c-0.012-0.047-0.196-0.276-1.569-0.276l-0.291,0.001c-0.687,0-7.775-0.2-8.076-0.208l-0.35-0.01l-0.11-0.331  c-0.032-0.094-0.087-0.352,0.081-0.721c0.262-0.575,1.677-0.847,1.69-0.85c0.26-0.04,0.417-0.076,0.512-0.104  c-0.013-0.439-0.063-0.675-0.104-0.797c-0.446-0.146-2.201-0.292-4.811-0.292c-3.17,0-4.572,0.057-5.358,0.219  c-0.136,0.028-0.58,0.131-0.58,0.281c0,0.549,0.213,0.577,0.294,0.588c1.062,0.138,1.516,0.409,1.904,0.799  c0.396,0.398,0.328,0.811,0.311,0.89l-0.088,0.39h-7.316c-2.082,0-2.78,0.467-2.841,0.583c0.008,0.088,0.057,0.248,0.139,0.514  c0.156,0.505,0.417,1.351,0.655,3.063c0.407,2.919-0.043,8.174-0.374,10.819c-0.373,2.986-3.02,15.569-3.132,16.104l-0.102,0.482  l-0.483-0.094c-4.352-0.845-5.59-3.127-6.787-5.334l-0.058-0.106c-0.999-1.839-1.584-6.619-2.056-10.458  c-0.111-0.908-0.214-1.749-0.313-2.462c-0.483-3.5-1.066-5.074-2.575-8.028c-1.274-2.496-4.292-4.465-4.914-4.853H7.806z   M62.521,56.069c-0.118,0-0.198-0.01-0.269-0.033l-0.279-0.094l-0.053-0.29c-0.03-0.17-0.755-4.159-0.941-5.75  c-0.182-1.539-1.672-9.073-2.057-10.959c-0.332-1.63-1.188-6.253-1.317-7.154c-0.122-0.853-0.678-3.696-0.683-3.725l-0.117-0.596  h5.951c1.008,0,2.196,1.631,2.548,3.035c0.34,1.36,1.282,6.535,1.727,9.227l0.266,1.59c0.407,2.428,0.913,5.449,1.021,6.603  c0.02,0.216,0.057,0.505,0.1,0.842c0.335,2.65,0.55,5.094-0.481,5.883c-1.042,0.797-1.65,0.892-3.276,1.146l-0.666,0.105  C63.297,56.013,62.802,56.069,62.521,56.069z M58.02,28.468c0.172,0.895,0.484,2.541,0.576,3.179  c0.118,0.827,0.949,5.336,1.308,7.096c0.238,1.173,1.868,9.338,2.069,11.042c0.148,1.263,0.662,4.182,0.857,5.27  c0.196-0.023,0.516-0.063,1.003-0.142l0.671-0.106c1.563-0.245,1.983-0.312,2.824-0.954c0.66-0.504,0.25-3.743,0.097-4.962  c-0.045-0.351-0.082-0.651-0.104-0.876c-0.104-1.116-0.606-4.117-1.011-6.529l-0.266-1.592c-0.442-2.676-1.376-7.81-1.711-9.148  c-0.319-1.278-1.272-2.258-1.578-2.277H58.02z"></path></svg>