<svg height='100px' width='100px'  fill="#000000" xmlns="http://www.w3.org/2000/svg" xmlns:xlink="http://www.w3.org/1999/xlink" version="1.1" x="0px" y="0px" viewBox="0 0 67 67" enable-background="new 0 0 67 67" xml:space="preserve"><g><path d="M64.7861328,12.4118013L49.2851563,6.0019507c-0.0015259-0.0006714-0.0031128-0.0012817-0.0046387-0.0018921   l-0.0031738-0.0013428c-0.0800781-0.0332031-0.1651001-0.0455322-0.249939-0.0498047   c-0.0126953-0.0006104-0.0233765-0.0073242-0.0361938-0.0073242c0,0-0.0001831,0.000061-0.0002441,0.000061   c-0.0974731-0.000061-0.1950073,0.0189209-0.2868652,0.0570679l-0.0040894,0.001709   C48.699585,6.000608,48.6992188,6.00073,48.6987915,6.0009131L33.4941406,12.293149L18.3002319,6.0009131   C18.2998047,6.00073,18.2994385,6.000608,18.2994385,6.000608l-0.0045166-0.0018921   c-0.086853-0.0360718-0.1794434-0.0521851-0.2719116-0.0540771c-0.0053711-0.0001221-0.0098267-0.0030518-0.0151978-0.0030518   h-0.0001221c-0.0977173,0-0.1951294,0.019043-0.2860107,0.0571289l-0.0031738,0.0013428   C17.71698,6.000669,17.7153931,6.0012794,17.7138672,6.0019507l-15.5,6.4098506   C1.9326172,12.527524,1.75,12.8009615,1.75,13.1046724v47.2036133c0,0.2504883,0.125,0.484375,0.3330078,0.6235352   c0.2080078,0.1381836,0.4726563,0.1660156,0.703125,0.0698242l15.2216797-6.284668l15.2001953,6.2841797   c0.0926514,0.0384521,0.1907349,0.0568237,0.2888184,0.0564575c0.0011597,0,0.0020142,0.0006714,0.0031738,0.0006714   c0.107605,0,0.2088013-0.0244751,0.3013306-0.0653687l15.1898804-6.2759399l15.2226563,6.284668   c0.0917969,0.0380859,0.1894531,0.0566406,0.2861328,0.0566406c0.1464844,0,0.2919922-0.0429688,0.4169922-0.1264648   C65.125,60.7926598,65.25,60.558773,65.25,60.3082848V13.1046724C65.25,12.8009615,65.0673828,12.527524,64.7861328,12.4118013z    M49.7412109,53.4036217v-2.3873291c0-0.4140625-0.3359375-0.75-0.75-0.75s-0.75,0.3359375-0.75,0.75v2.3874512L34.25,59.1844444   V46.7755699c0-0.4140625-0.3359375-0.75-0.75-0.75s-0.75,0.3359375-0.75,0.75v12.4135132l-13.9921875-5.784729V24.7496929   c0-0.4140625-0.3359375-0.75-0.75-0.75s-0.75,0.3359375-0.75,0.75v28.6539288L3.25,59.187191V25.6512432   c0.4579468-0.3810425,1.4988403-1.2230225,2.8613281-2.1769409c0.3398438-0.2373047,0.421875-0.7050781,0.1845703-1.0444336   c-0.2363281-0.3383789-0.703125-0.421875-1.0439453-0.184082C4.4579468,22.8011456,3.7827148,23.3103008,3.25,23.7263165   V13.6061373l14.0078125-5.7928462v6.8128657c0,0.4140625,0.3359375,0.75,0.75,0.75s0.75-0.3359375,0.75-0.75V7.8137183   L32.75,13.6082735v22.329895c0,0.4140625,0.3359375,0.75,0.75,0.75s0.75-0.3359375,0.75-0.75V13.6035738l13.9912109-5.7900996   v11.1906128c0,0.4140625,0.3359375,0.75,0.75,0.75s0.75-0.3359375,0.75-0.75V7.81323L63.75,13.6061373v29.7523193   c-0.4166565,0.0813789-0.5708237,0.3476486-3.7695313,1.8082275c-0.3769531,0.171875-0.5429688,0.6166992-0.3710938,0.9936523   c0.1259766,0.2758789,0.3984375,0.4384766,0.6826172,0.4384766c0.1044922,0,0.2099609-0.0214844,0.3115234-0.0678711   c1.2919312-0.5895386,2.4082642-1.1482544,3.1464844-1.5286865V59.187191L49.7412109,53.4036217z"></path><path d="M21.3496094,27.6105328h0.75l0.75-0.0297852c-0.0009766-1.5415039-0.125-2.9204102-0.3691406-4.0981445   c-0.0839844-0.4052734-0.4794922-0.6650391-0.8867188-0.5820313c-0.4052734,0.0839844-0.6660156,0.480957-0.5820313,0.8867188   C21.2353516,24.8649273,21.3486328,26.1417828,21.3496094,27.6105328z"></path><path d="M21.5576172,43.4948082c-0.0214844-0.40625-0.0332031-0.8383789-0.0332031-1.2973633   c0-0.793457,0.0351563-1.6694336,0.1035156-2.6030273c0.0302734-0.4130859-0.2802734-0.7729492-0.6933594-0.8032227   c-0.4013672-0.0283203-0.7714844,0.2802734-0.8027344,0.6928711c-0.0712891,0.9702148-0.1074219,1.8833008-0.1074219,2.7133789   c0,0.4873047,0.0117188,0.9458008,0.0351563,1.3774414c0.0214844,0.3999023,0.3525391,0.7099609,0.7480469,0.7099609   c0.0136719,0,0.0273438-0.0004883,0.0410156-0.0009766C21.2626953,44.2614098,21.5800781,43.9083824,21.5576172,43.4948082z"></path><path d="M24.7451172,48.1647301c-0.2753906,0.0761719-0.5332031,0.1147461-0.7666016,0.1147461   c-0.0009766,0-0.0009766,0-0.0019531,0c-0.4599609,0-1.1318359-0.1245117-1.6689453-1.1958008   c-0.1855469-0.3691406-0.6367188-0.5209961-1.0068359-0.3339844c-0.3701172,0.1855469-0.5205078,0.6362305-0.3339844,1.0068359   c0.8378906,1.671875,2.0996094,2.0229492,3.0097656,2.0229492c0.0009766,0,0.0009766,0,0.0019531,0   c0.3681641,0,0.7607422-0.0571289,1.1669922-0.1694336c0.3994141-0.1103516,0.6328125-0.5234375,0.5224609-0.9228516   C25.5576172,48.2892418,25.1533203,48.0534019,24.7451172,48.1647301z"></path><path d="M52.5595703,37.0016441c-0.3408203-0.2324219-0.8076172-0.1435547-1.0419922,0.1977539   c-0.8457031,1.2426758-1.5732422,2.3989258-2.1611328,3.4370117c-0.2041016,0.3603516-0.078125,0.8178711,0.2822266,1.0219727   c0.1171875,0.0664063,0.2441406,0.0976563,0.3691406,0.0976563c0.2617188,0,0.515625-0.1367188,0.6533203-0.3803711   c0.5683594-1.0019531,1.2734375-2.1230469,2.0966797-3.331543C52.9912109,37.7013512,52.9023438,37.2350426,52.5595703,37.0016441z   "></path><path d="M9.4345703,21.3815289c1.2519531-0.6953125,2.4355469-1.2392578,3.5185547-1.6162109   c0.390625-0.1362305,0.5976563-0.5639648,0.4609375-0.9550781c-0.1357422-0.3911133-0.5625-0.5986328-0.9550991-0.4619141   c-1.163065,0.4057617-2.4267368,0.9848633-3.7529087,1.7216797c-0.3623047,0.2011719-0.4921875,0.6577148-0.2910156,1.0200195   C8.616704,21.4537411,9.0746431,21.5813179,9.4345703,21.3815289z"></path><path d="M53.9033203,34.8932457c0.3546638,0.2039337,0.8157654,0.0843735,1.0234375-0.2783203   c0.7441406-1.300293,1.3544922-2.5371094,1.8134766-3.6748028c0.1552734-0.3842773-0.0302734-0.8212891-0.4140625-0.9760742   c-0.3857422-0.1533203-0.8203125,0.0307617-0.9765625,0.4145508c-0.4345703,1.0751953-1.0146484,2.2495098-1.7255859,3.491209   C53.4189453,34.2291832,53.5429688,34.6876793,53.9033203,34.8932457z"></path><path d="M49.2607422,47.6779137c-0.2216797-0.1455078-0.5166016-0.4277344-0.5166016-1.1928711   c0-0.4472656,0.1025391-0.9951172,0.3037109-1.6279297c0.125-0.3950195-0.0927734-0.8168945-0.4873047-0.9423828   c-0.3964844-0.1245117-0.8164063,0.09375-0.9423828,0.4873047c-0.2480469,0.7807617-0.3740234,1.4814453-0.3740234,2.0830078   c0,1.375,0.6494141,2.0893555,1.1943359,2.4467773c0.3482132,0.2290192,0.8134232,0.1277771,1.0380859-0.215332   C49.7041016,48.3698082,49.6074219,47.9049644,49.2607422,47.6779137z"></path><path d="M21.1171875,31.5211773c-0.0898438,0.8427715-0.2089844,1.7358379-0.3554688,2.6801739   c-0.0664063,0.4301758-0.1289063,0.8496094-0.1865234,1.2583008c-0.0566406,0.4106445,0.2294922,0.7895508,0.6396484,0.8466797   c0.0351563,0.0048828,0.0703125,0.0073242,0.1044922,0.0073242c0.3681641,0,0.6894531-0.2709961,0.7421875-0.6459961   c0.0556641-0.4018555,0.1162109-0.8134766,0.1826172-1.2363281c0.1503906-0.9692383,0.2714844-1.8847656,0.3652344-2.7499981   c0.0439453-0.4116211-0.2539063-0.7817383-0.6660156-0.8256836C21.5224609,30.8068218,21.1621094,31.1095562,21.1171875,31.5211773   z"></path><path d="M44.5810547,24.0426617c-1.1416016,0.8535156-2.1533203,1.8325195-3.0058594,2.9091797   c-0.2568359,0.324707-0.2021484,0.7963867,0.1220703,1.0537109c0.3242607,0.2575665,0.7957954,0.2020206,1.0537109-0.1220703   c0.7724609-0.9750977,1.6904297-1.8632813,2.7285156-2.6396484c0.3320313-0.2480469,0.3994141-0.7182617,0.1513672-1.0498047   C45.3828125,23.8634624,44.9130859,23.7951031,44.5810547,24.0426617z"></path><path d="M40.4707031,30.1823101c-0.3779297-0.1728516-0.8222656-0.0063477-0.9941406,0.3706055   c-0.4931641,1.081543-1.1044922,2.2548809-1.8154297,3.4873028c-0.2070313,0.3588867-0.0839844,0.8173828,0.2744141,1.0244141   c0.3581429,0.2071915,0.8178406,0.0841827,1.0244141-0.2744141c0.7353516-1.2734375,1.3681641-2.4897461,1.8818359-3.6142559   C41.0136719,30.7990093,40.8476563,30.3541851,40.4707031,30.1823101z"></path><path d="M30.7177734,43.6119957c-0.9814453,1.0673828-1.9277344,1.9746094-2.8105469,2.6967773   c-0.3203125,0.262207-0.3681641,0.734375-0.1064453,1.0551758c0.2604427,0.3186989,0.7317905,0.369812,1.0556641,0.105957   c0.9384766-0.7666016,1.9355469-1.7231445,2.9648438-2.8422852c0.2802734-0.3051758,0.2607422-0.7792969-0.0439453-1.0600586   C31.4726563,43.2887535,30.9980469,43.3068199,30.7177734,43.6119957z"></path><path d="M35.5654297,37.3908043c-0.75,1.112793-1.5283203,2.190918-2.3144531,3.2055664   c-0.2539063,0.3276367-0.1943359,0.7988281,0.1337891,1.0522461c0.330864,0.2564201,0.8011894,0.1902809,1.0517578-0.1333008   c0.8066406-1.0405273,1.6044922-2.1464844,2.3730469-3.2856445c0.2314453-0.34375,0.140625-0.8100586-0.203125-1.0415039   C36.2636719,36.9567223,35.7958984,37.0485191,35.5654297,37.3908043z"></path><path d="M48.78125,23.3659039c1.2617188-0.5126953,2.5117188-0.7973633,3.6162109-0.8227539   c0.4140625-0.0097656,0.7421875-0.3530273,0.7324219-0.7675781c-0.0097656-0.4140625-0.3339844-0.7138672-0.7675781-0.7324219   c-1.2841797,0.0297852-2.7177734,0.3525391-4.1455078,0.9331055c-0.3837891,0.15625-0.5683594,0.59375-0.4121094,0.9770508   C47.9633636,23.3447495,48.4073524,23.519043,48.78125,23.3659039z"></path><path d="M56.3173828,26.739439c-0.0371094,0.4125977,0.2665787,0.7773438,0.6787109,0.8149414   c0.0234375,0.0019531,0.046875,0.0029297,0.0693359,0.0029297c0.3837891,0,0.7109375-0.2924805,0.7460938-0.6821289   c0.1426582-1.5811176-0.131073-3.1653328-1.2177734-4.3222656c-0.2841797-0.3027344-0.7568359-0.3168945-1.0605469-0.0336914   C55.2314453,22.8029156,55.2167969,23.2775249,55.5,23.5792828C56.2729645,24.4019871,56.420517,25.6152954,56.3173828,26.739439z"></path><path d="M20.6318359,20.5895367c0.3125-0.2709961,0.3466797-0.7451172,0.0761719-1.0581055   c-1.015625-1.1738281-2.3759766-1.8134766-4.0439453-1.9018555c-0.4052734-0.0136719-0.7666016,0.2954102-0.7890625,0.7094727   c-0.0214844,0.4135742,0.2958984,0.7666016,0.7089634,0.7885742c1.2627163,0.0668945,2.2402554,0.5200195,2.9892788,1.3852539   C19.8450661,20.826725,20.3175049,20.8597317,20.6318359,20.5895367z"></path><path d="M57.2949219,47.1266441c-0.1425781-0.3881836-0.5703125-0.5874023-0.9628906-0.4438477   c-1.4082031,0.5200195-2.6611328,0.8916016-3.7236328,1.1049805c-0.40625,0.081543-0.6689453,0.4765625-0.5878906,0.8828125   c0.0794868,0.3974266,0.4660492,0.6696091,0.8828125,0.5878906c1.1386719-0.2285156,2.4667969-0.621582,3.9482422-1.168457   C57.2402344,47.9464684,57.4384766,47.515316,57.2949219,47.1266441z"></path><path d="M48.2412109,28.1701031v6.9770489c0,0.4140625,0.3359375,0.75,0.75,0.75s0.75-0.3359375,0.75-0.75v-6.9770489   c0-0.4140625-0.3359375-0.75-0.75-0.75S48.2412109,27.7560406,48.2412109,28.1701031z"></path><path d="M10.7646484,39.6417809c0.2929688-0.2929688,0.2929688-0.7675781,0-1.0605469l-2.046875-2.046875   c-0.2929688-0.2929688-0.7675781-0.2929688-1.0605469,0l-1.9726563,1.9726563   c-0.2929688,0.2929688-0.2929688,0.7675781,0,1.0605469s0.7675781,0.2929688,1.0605469,0L8.1875,38.1251793l1.5166016,1.5166016   C9.9971752,39.9348564,10.4716702,39.934761,10.7646484,39.6417809z"></path><path d="M11.7480469,46.452816c-0.28125-0.28125-0.7792969-0.28125-1.0605469,0l-1.9716797,1.972168   c-0.2929688,0.2929688-0.2929688,0.7675781,0,1.0605469s0.7675781,0.2929688,1.0605469,0l1.4414063-1.4418945l1.5166016,1.5161133   c0.2930737,0.2930756,0.7675686,0.2929802,1.0605469,0c0.2929688-0.2929688,0.2929688-0.7675781,0-1.0605469L11.7480469,46.452816z   "></path><path d="M11.7480469,26.6163921c-0.28125-0.28125-0.7792969-0.28125-1.0605469,0l-1.9716797,1.972168   c-0.2929688,0.2929688-0.2929688,0.7675781,0,1.0605469s0.7675781,0.2929688,1.0605469,0l1.4414063-1.4418945l1.5166016,1.5161133   c0.2930737,0.2930737,0.7675686,0.2929783,1.0605469,0c0.2929688-0.2929688,0.2929688-0.7675781,0-1.0605469L11.7480469,26.6163921   z"></path><path d="M56.9423828,18.8253765l1.4423828-1.4423828l1.515625,1.5166016c0.294136,0.2941341,0.7687454,0.2918015,1.0605469,0   c0.2929688-0.2924805,0.2929688-0.7675781,0-1.0605469l-2.0458984-2.046876   c-0.140625-0.140625-0.3310776-0.2197266-0.5302734-0.2197266c-0.1992188,0-0.3896484,0.0791016-0.5302734,0.2197266   l-1.9726563,1.9726572c-0.2929688,0.2929688-0.2929688,0.7675781,0,1.0605469S56.6494141,19.1183453,56.9423828,18.8253765z"></path><path d="M58.9150391,36.534359c-0.140625-0.140625-0.3310776-0.2197266-0.5302734-0.2197266   c-0.1992188,0-0.3896484,0.0791016-0.5302734,0.2197266c-1.1056824,1.3373032-2.8366737,2.1691856-1.9726563,3.0332031   c0.82864,0.8286438,1.6521034-0.7742805,2.5029297-1.4423828l1.515625,1.5166016   c0.294136,0.294136,0.7687454,0.2918015,1.0605469,0c0.2929688-0.2924805,0.2929688-0.7675781,0-1.0605469L58.9150391,36.534359z"></path><path d="M58.9150391,50.9074059c-0.2929688-0.2919922-0.7675781-0.2939453-1.0605469,0l-1.9726563,1.972168   c-0.2929688,0.2929688-0.2929688,0.7675781,0,1.0605469s0.7675781,0.2929688,1.0605469,0l1.4423828-1.4418945l1.515625,1.5161133   c0.2930756,0.2930756,0.7675667,0.2929802,1.0605469,0c0.2929688-0.2929688,0.2929688-0.7675781,0-1.0605469L58.9150391,50.9074059   z"></path><path d="M29.8066406,23.5299664c0.2930737,0.2930737,0.7675686,0.2929783,1.0605469,0   c0.2929688-0.2929688,0.2929688-0.7675781,0-1.0605469l-2.046875-2.046875c-0.28125-0.28125-0.7792969-0.28125-1.0605469,0   l-1.9716797,1.9726563c-0.2929688,0.2929688-0.2929688,0.7680664,0,1.0605469c0.2939453,0.293457,0.7685547,0.2924805,1.0605469,0   l1.4414063-1.4418945L29.8066406,23.5299664z"></path><path d="M40.7548828,18.8253765l1.4414063-1.4418945l1.5166016,1.5161133c0.2930756,0.2930737,0.7675667,0.2929783,1.0605469,0   c0.2929688-0.2929688,0.2929688-0.7675781,0-1.0605469l-2.046875-2.046876c-0.28125-0.28125-0.7792969-0.28125-1.0605469,0   l-1.9716797,1.9726572c-0.2929688,0.2929688-0.2929688,0.7680664,0,1.0605469   C39.9882813,19.1188335,40.4628906,19.117857,40.7548828,18.8253765z"></path><path d="M43.2285156,45.4293785c-0.2929688-0.2929688-0.7675781-0.2929688-1.0605469,0l-1.9726563,1.972168   c-0.2929688,0.2929688-0.2929688,0.7675781,0,1.0605469s0.7675781,0.2929688,1.0605469,0l1.4423828-1.4418945l1.5166016,1.5161133   c0.2930756,0.2930756,0.7675667,0.2929802,1.0605469,0c0.2929688-0.2929688,0.2929688-0.7675781,0-1.0605469L43.2285156,45.4293785   z"></path></g></svg>