<svg height='100px' width='100px'  fill="#000000" xmlns="http://www.w3.org/2000/svg" xmlns:xlink="http://www.w3.org/1999/xlink" version="1.1" x="0px" y="0px" viewBox="0 0 64 64" enable-background="new 0 0 64 64" xml:space="preserve"><g><g><path fill="none" stroke="#000000" stroke-width="2" stroke-linejoin="round" stroke-miterlimit="10" d="M27.6,22v-2.1    c0-1.8-0.7-3.5-1.8-4.4l0,0c-1.1-0.9-1.8-2.6-1.8-4.4V7h16v4.1c0,1.8-0.7,3.5-1.8,4.4l0,0c-1.1,0.9-1.8,2.6-1.8,4.4V22"></path><polyline fill="none" stroke="#000000" stroke-width="2" stroke-linejoin="round" stroke-miterlimit="10" points="26,26 26,22     38,22 38,26   "></polyline><rect x="25" y="26" fill="none" stroke="#000000" stroke-width="2" stroke-linejoin="round" stroke-miterlimit="10" width="14" height="18"></rect><rect x="20" y="27" fill="none" stroke="#000000" stroke-width="2" stroke-linejoin="round" stroke-miterlimit="10" width="24" height="6"></rect><polyline fill="none" stroke="#000000" stroke-width="2" stroke-linejoin="round" stroke-miterlimit="10" points="21,33 20,57     44,57 43,33   "></polyline><rect x="18" y="57" fill="none" stroke="#000000" stroke-width="2" stroke-linejoin="round" stroke-miterlimit="10" width="28" height="4"></rect><line fill="none" stroke="#000000" stroke-width="2" stroke-linejoin="round" stroke-miterlimit="10" x1="23" y1="53" x2="37" y2="53"></line><line fill="none" stroke="#000000" stroke-width="2" stroke-linejoin="round" stroke-miterlimit="10" x1="41" y1="53" x2="39" y2="53"></line><line fill="none" stroke="#000000" stroke-width="2" stroke-linejoin="round" stroke-miterlimit="10" x1="28" y1="39" x2="36" y2="39"></line><line fill="none" stroke="#000000" stroke-width="2" stroke-linecap="round" stroke-linejoin="round" stroke-miterlimit="10" x1="39" y1="39" x2="47" y2="39"></line><path fill="none" stroke="#000000" stroke-width="2" stroke-miterlimit="10" d="M24,7V5c0-1.1,0.9-2,2-2h12c1.1,0,2,0.9,2,2v2"></path></g></g></svg>