<svg height='100px' width='100px'  fill="#000000" xmlns="http://www.w3.org/2000/svg" data-name="Layer 1" viewBox="0 0 64 64" x="0px" y="0px"><title>coffee-bean-roasted-seed</title><path d="M14.941,61.893a1.049,1.049,0,0,0,.125.008,1,1,0,0,0,.945-.675l2-5.819a22.456,22.456,0,0,0-.088-14.8,20.459,20.459,0,0,1-.146-13.279,1.029,1.029,0,0,0-.18-.893,1.1,1.1,0,0,0-.842-.428c-.084-.006-.169-.011-.255-.011A12.514,12.514,0,0,0,4,38.5v11A12.507,12.507,0,0,0,14.941,61.893ZM6,38.5a10.515,10.515,0,0,1,9.479-10.451A22.468,22.468,0,0,0,14.865,36H12v2h3.146a22.279,22.279,0,0,0,.894,3.284A20.227,20.227,0,0,1,16.968,45H14v2h3.173a20.429,20.429,0,0,1-.166,4H14v2h2.632c-.145.592-.313,1.178-.512,1.757l-1.726,5.021A10.507,10.507,0,0,1,6,49.5Z"></path><path d="M19.04,41.284a20.449,20.449,0,0,1,.08,13.473l-2,5.819a1,1,0,0,0,.82,1.317A12.32,12.32,0,0,0,19.5,62,12.514,12.514,0,0,0,32,49.5v-11A12.429,12.429,0,0,0,19.856,26.017h-.028a1,1,0,0,0-.949.684A22.474,22.474,0,0,0,19.04,41.284ZM30,38.5v11A10.5,10.5,0,0,1,19.433,60l1.578-4.593A22.428,22.428,0,0,0,21.983,45H25V43H21.609a21.969,21.969,0,0,0-.686-2.389A20.417,20.417,0,0,1,19.833,32H22V30H20.1c.121-.651.263-1.3.449-1.937A10.434,10.434,0,0,1,30,38.5Z"></path><path d="M32.574,9.445l3.973,1.869a16.966,16.966,0,0,1,8.647,9.3,19.051,19.051,0,0,0,8.744,9.928l1.886,1.016a1,1,0,0,0,1.221-.216,12.133,12.133,0,0,0-.285-16.371L49.832,7.73a12.12,12.12,0,0,0-16.995-.459c-.17.159-.326.326-.483.494l-.085.093a1,1,0,0,0,.3,1.587Zm15.813-.332,6.927,7.242a10.127,10.127,0,0,1,.735,13.053l-1.163-.625a17.039,17.039,0,0,1-5.444-4.656l4.183-3.346-1.25-1.562-4.06,3.249A16.974,16.974,0,0,1,47.062,19.9,18.967,18.967,0,0,0,42.3,12.848l1.529-2.293-1.664-1.11-1.4,2.1A19.142,19.142,0,0,0,37.4,9.505L34.746,8.256A10.116,10.116,0,0,1,48.387,9.113Z"></path><path d="M36.443,34.146a11.977,11.977,0,0,0,8.644,3.914l.27,0a11.968,11.968,0,0,0,8.532-3.538l.157-.156c.13-.13.249-.266.368-.4l.1-.118a1,1,0,0,0-.275-1.544l-1.886-1.015h0A17.051,17.051,0,0,1,44.534,22.4,18.955,18.955,0,0,0,34.871,12.01L30.9,10.141a1,1,0,0,0-1.157.223,12.128,12.128,0,0,0-.075,16.388ZM30.731,12.273l2.7,1.272-1.267,1.9,1.664,1.11,1.4-2.094a16.924,16.924,0,0,1,4.343,3.554l-2.278,2.278,1.414,1.414,2.1-2.1a17.057,17.057,0,0,1,1.863,3.511,19.049,19.049,0,0,0,4.75,7.048l-2.124,2.124,1.414,1.414,2.251-2.251a18.928,18.928,0,0,0,2.452,1.593h0l.722.389a9.868,9.868,0,0,1-7,2.622,9.991,9.991,0,0,1-7.212-3.266L31.141,25.4A10.123,10.123,0,0,1,30.731,12.273Z"></path><rect x="8" y="40" width="2" height="2"></rect><rect x="22" y="36" width="3" height="2"></rect><rect x="25" y="52" width="2" height="2"></rect><rect x="45.586" y="11" width="2.828" height="2" transform="translate(5.281 36.749) rotate(-45)"></rect><rect x="39.586" y="28" width="2.828" height="2" transform="translate(-8.497 37.485) rotate(-45)"></rect></svg>