<?xml version="1.0" encoding="utf-8"?>
<!-- Generator: Adobe Illustrator 23.1.1, SVG Export Plug-In . SVG Version: 6.00 Build 0)  -->
<svg version="1.1" id="Layer_1" xmlns="http://www.w3.org/2000/svg" xmlns:xlink="http://www.w3.org/1999/xlink" x="0px" y="0px"
	 viewBox="0 0 100 100" style="enable-background:new 0 0 100 100;" xml:space="preserve">
<path d="M57.1,61c-0.2,0.5,0.1,1.1,0.6,1.3c0.9,0.4,1.8,0.7,2.7,1.1c0.1,0,0.2,0.1,0.4,0.1c0.4,0,0.8-0.2,0.9-0.6
	c0.2-0.5,0-1.1-0.6-1.3c-0.9-0.4-1.8-0.7-2.7-1.1C57.9,60.3,57.3,60.5,57.1,61z"/>
<path d="M18.1,28.8c-0.2-0.5-0.7-0.8-1.2-0.7c-0.5,0.2-0.8,0.7-0.7,1.2c0.3,1,0.6,1.9,0.9,2.8c0.2,0.4,0.5,0.6,0.9,0.6
	c0.1,0,0.2,0,0.4-0.1c0.5-0.2,0.8-0.8,0.6-1.3C18.6,30.7,18.3,29.8,18.1,28.8z"/>
<path d="M52.1,58c-0.5-0.2-1.1,0.1-1.3,0.6s0.1,1.1,0.6,1.3c0.9,0.4,1.8,0.7,2.7,1.1c0.1,0,0.2,0.1,0.4,0.1c0.4,0,0.8-0.2,0.9-0.6
	c0.2-0.5-0.1-1.1-0.6-1.3C53.9,58.7,53,58.4,52.1,58z"/>
<path d="M77.1,69.2c-0.5-0.3-1.1-0.2-1.4,0.3s-0.2,1.1,0.3,1.4c0.8,0.5,1.6,1.1,2.3,1.6c0.2,0.1,0.4,0.2,0.6,0.2
	c0.3,0,0.6-0.1,0.8-0.4c0.3-0.4,0.2-1.1-0.2-1.4C78.8,70.3,77.9,69.7,77.1,69.2z"/>
<path d="M29,46c-0.2-0.2-0.4-0.3-0.6-0.5c-0.4-0.4-1-0.3-1.4,0.1c-0.4,0.4-0.3,1,0.1,1.4c0.2,0.2,0.4,0.4,0.6,0.6
	c0.5,0.5,1.1,0.9,1.7,1.3c0.2,0.1,0.4,0.2,0.6,0.2c0.3,0,0.6-0.1,0.8-0.4c0.3-0.4,0.2-1.1-0.2-1.4C30.1,46.9,29.6,46.4,29,46z"/>
<path d="M73.7,67.2c-0.9-0.5-1.7-0.9-2.6-1.4c-0.5-0.2-1.1,0-1.3,0.5c-0.2,0.5,0,1.1,0.5,1.3c0.9,0.4,1.7,0.9,2.6,1.3
	c0.2,0.1,0.3,0.1,0.5,0.1c0.4,0,0.7-0.2,0.9-0.5C74.3,68,74.2,67.4,73.7,67.2z"/>
<path d="M82.6,73.5c-0.4-0.4-1-0.4-1.4,0s-0.4,1,0,1.4c0.7,0.7,1.3,1.4,1.9,2c0.2,0.2,0.5,0.4,0.8,0.4c0.2,0,0.4-0.1,0.6-0.2
	c0.4-0.4,0.5-1,0.1-1.4C84,74.9,83.4,74.2,82.6,73.5z"/>
<path d="M87.3,79.6c-0.1-0.2-0.2-0.4-0.3-0.6c-0.3-0.5-0.9-0.7-1.4-0.4c-0.5,0.3-0.7,0.9-0.4,1.4c0.1,0.2,0.2,0.3,0.3,0.5
	c0.2,0.3,0.5,0.5,0.9,0.5c0.2,0,0.3,0,0.5-0.1C87.3,80.7,87.5,80.1,87.3,79.6z"/>
<path d="M18.7,35.9c0.4,0.9,0.9,1.8,1.4,2.6c0.2,0.3,0.5,0.5,0.9,0.5c0.2,0,0.4,0,0.5-0.1c0.5-0.3,0.6-0.9,0.3-1.4
	c-0.5-0.8-0.9-1.6-1.4-2.5c-0.2-0.5-0.8-0.7-1.3-0.5C18.6,34.8,18.4,35.4,18.7,35.9z"/>
<path d="M45.8,55.5c-0.5-0.2-1.1,0-1.3,0.5s0,1.1,0.5,1.3c0.9,0.4,1.8,0.8,2.7,1.1c0.1,0,0.2,0.1,0.4,0.1c0.4,0,0.8-0.2,0.9-0.6
	c0.2-0.5,0-1.1-0.6-1.3C47.6,56.2,46.7,55.8,45.8,55.5z"/>
<path d="M25,44.5c0.2,0,0.5-0.1,0.7-0.3c0.4-0.4,0.4-1,0.1-1.4c-0.6-0.7-1.2-1.4-1.8-2.2c-0.3-0.4-1-0.5-1.4-0.2s-0.5,1-0.2,1.4
	c0.6,0.8,1.2,1.6,1.9,2.3C24.5,44.4,24.7,44.5,25,44.5z"/>
<path d="M36.2,50.9c-0.9-0.5-1.7-1-2.5-1.5c-0.5-0.3-1.1-0.2-1.4,0.3s-0.2,1.1,0.3,1.4c0.8,0.5,1.7,1,2.6,1.5
	c0.2,0.1,0.3,0.1,0.5,0.1c0.4,0,0.7-0.2,0.9-0.5C36.9,51.8,36.7,51.2,36.2,50.9z"/>
<path d="M15.1,14.7c-0.6,0-1,0.5-1,1c0,1,0.1,2,0.1,3c0,0.5,0.5,0.9,1,0.9c0,0,0,0,0.1,0c0.6,0,1-0.5,0.9-1.1
	c-0.1-0.9-0.1-1.9-0.1-2.9C16.1,15.1,15.6,14.7,15.1,14.7z"/>
<path d="M16.6,22.3c-0.1-0.5-0.6-0.9-1.1-0.8s-0.9,0.6-0.8,1.1c0.1,1,0.3,2,0.5,2.9c0.1,0.5,0.5,0.8,1,0.8c0.1,0,0.1,0,0.2,0
	c0.5-0.1,0.9-0.6,0.8-1.2C16.9,24.2,16.8,23.3,16.6,22.3z"/>
<path d="M41.8,55.8c0.4,0,0.7-0.2,0.9-0.6c0.2-0.5,0-1.1-0.5-1.3c-0.9-0.4-1.8-0.8-2.6-1.2c-0.5-0.2-1.1,0-1.3,0.5s0,1.1,0.5,1.3
	c0.9,0.4,1.8,0.9,2.7,1.3C41.5,55.8,41.7,55.8,41.8,55.8z"/>
<path d="M67.5,64.2c-0.9-0.4-1.8-0.8-2.7-1.2c-0.5-0.2-1.1,0-1.3,0.5s0,1.1,0.5,1.3c0.9,0.4,1.8,0.8,2.7,1.1C66.8,66,67,66,67.1,66
	c0.4,0,0.7-0.2,0.9-0.6C68.2,65,68,64.4,67.5,64.2z"/>
<path d="M87.6,83.2c-0.5,0.1-0.9,0.7-0.7,1.2c0.2,1,0.4,2.1,0.5,3.2c0,0.5,0.5,0.9,1,0.9c0,0,0,0,0.1,0c0.6,0,1-0.5,0.9-1.1
	c-0.1-1.2-0.3-2.4-0.5-3.5C88.7,83.4,88.2,83.1,87.6,83.2z"/>
</svg>
