<svg id="noun_coffee_mug_623689" data-name="noun_coffee mug_623689" xmlns="http://www.w3.org/2000/svg" width="30.284" height="20.825" viewBox="0 0 30.284 20.825">
  <g id="Group_4" data-name="Group 4" transform="translate(0 0)">
    <g id="Group_3" data-name="Group 3">
      <path id="Path_33" data-name="Path 33" d="M39.163,53.947a4.559,4.559,0,0,0,.159-4.849c-.954-1.113-3.418-.159-4.729.517a.489.489,0,0,0-.278.437c-.159,1.947-.4,4.65-.835,6.995a.539.539,0,0,0,.6.636A7.057,7.057,0,0,0,39.163,53.947ZM11.9,45.244c0-2.464,10.174-2.544,11.327-2.544s11.327.079,11.327,2.544v.914c0,.437.358.954.835.715h0c2.583-1.232,4.372-.795,5.683.835l.04.04c1.431,1.987,1.431,4.69,0,7.273a9.984,9.984,0,0,1-3.02,3.338,9.19,9.19,0,0,1-4.57,1.749,3.078,3.078,0,0,0-1.391,1.153,2.79,2.79,0,0,1-.238.358c-.079.2-.119.278-.119.278-.318.517-1.153.914-2.742,1.192a35.061,35.061,0,0,1-5.842.437,34.553,34.553,0,0,1-5.8-.437c-1.709-.318-2.583-.715-2.782-1.351C12.417,59.114,11.9,47.35,11.9,45.244Zm11.327-1.391a34.023,34.023,0,0,0-8.982.914.538.538,0,0,0,0,1.033,35.361,35.361,0,0,0,8.982.914,33.3,33.3,0,0,0,8.982-.954.538.538,0,0,0,0-1.033A36.437,36.437,0,0,0,23.227,43.853Z" transform="translate(-11.9 -42.7)"/>
    </g>
  </g>
</svg>
