<svg id="noun_Location_82758" xmlns="http://www.w3.org/2000/svg" width="32.013" height="59.61" viewBox="0 0 32.013 59.61">
  <path id="Path_34" data-name="Path 34" d="M37.059,40.145l.4.952c2.937,7.144,5.953,14.446,7.62,21.987v.079a1.657,1.657,0,0,0,.635,1.27,1.567,1.567,0,0,0,1.111.476h.159a1.649,1.649,0,0,0,1.508-1.667v-.079c1.667-7.858,4.921-15.637,8.017-23.1l.556-1.349c.476-1.191,1.032-2.3,1.587-3.492a51.254,51.254,0,0,0,3.492-9.207,18.109,18.109,0,0,0,.317-7.937A15.591,15.591,0,0,0,46.822,5.3a16.425,16.425,0,0,0-14.287,8.414c-4.048,7.541-.4,15.557,2.778,22.622A40.594,40.594,0,0,1,37.059,40.145ZM35.551,15.222A12.949,12.949,0,0,1,46.822,8.634a12.41,12.41,0,0,1,12.382,10,15.323,15.323,0,0,1-.317,6.509,51.275,51.275,0,0,1-3.254,8.572c-.556,1.191-1.111,2.381-1.587,3.572l-.556,1.349c-2.381,5.715-4.842,11.589-6.667,17.542-1.746-5.636-3.969-11.112-6.191-16.43l-.4-.952c-.556-1.27-1.111-2.619-1.746-4.048C35.393,28.239,32.3,21.333,35.551,15.222Z" transform="translate(-30.746 -5.3)"/>
  <path id="Path_35" data-name="Path 35" d="M49.058,30.616A7.858,7.858,0,1,0,41.2,22.758,7.825,7.825,0,0,0,49.058,30.616Zm0-12.3a4.445,4.445,0,1,1-4.445,4.445A4.438,4.438,0,0,1,49.058,18.313Z" transform="translate(-32.902 -7.28)"/>
</svg>
