<svg xmlns="http://www.w3.org/2000/svg" width="81.13" height="81.13" viewBox="0 0 81.13 81.13">
  <path id="noun_Spider_chart_762110" data-name="noun_Spider chart_762110" d="M72.323,49.626a3.079,3.079,0,0,0,2.821-2.139H87.13v-.922H75.145a2.637,2.637,0,0,0-2.766-2.6,2.766,2.766,0,0,0-1.42.277l-9.892-8.463a2.959,2.959,0,0,0,.249-1.06,2.849,2.849,0,0,0-.535-1.659l14.751-14.8-.655-.655L60.126,32.358a2.766,2.766,0,0,0-2.314-.443L48.676,18.2a2.674,2.674,0,0,0,.608-1.687,2.766,2.766,0,0,0-2.72-2.886V6h-.922v7.744a2.766,2.766,0,0,0-2.01,2.766,3.227,3.227,0,0,0,.166.968L31.215,27.37a2.71,2.71,0,0,0-1.5-.461,2.766,2.766,0,0,0-1.623.535L18.243,17.6l-.645.655,9.828,9.828a2.839,2.839,0,0,0-.562,1.641,2.674,2.674,0,0,0,.59,1.77L18.676,44.085a1.788,1.788,0,0,0-.608-.12,2.674,2.674,0,0,0-2.849,2.6H6v.922h9.284a2.867,2.867,0,0,0,2.766,2.139,2.969,2.969,0,0,0,1.927-.793l13.377,7.523a4.3,4.3,0,0,0-.083.636,2.969,2.969,0,0,0,.535,1.7L17.6,74.886l.655.645L34.46,59.324a3.245,3.245,0,0,0,1.779.516,3.439,3.439,0,0,0,.738-.138l7.292,11.755A2.415,2.415,0,0,0,43.8,73.1a2.849,2.849,0,0,0,1.844,2.664V87.13h.922V75.91a2.766,2.766,0,0,0,2.766-2.766A2.876,2.876,0,0,0,48.3,70.922L53.452,56.9a3.328,3.328,0,0,0,.986.2,3.466,3.466,0,0,0,1.558-.4L74.868,75.532l.655-.655L56.706,56.051a3.005,3.005,0,0,0,.636-2.01,2.821,2.821,0,0,0-.046-.489l12.787-5A3.116,3.116,0,0,0,72.323,49.626Zm-2.858-3.061H46.934l9.772-9.505a3.245,3.245,0,0,0,1.844.406,2.618,2.618,0,0,0,1.42-.3l9.643,8.592a1.54,1.54,0,0,0-.148.811ZM56.107,36.507,46.565,45.9V19.3a2.766,2.766,0,0,0,.562-.055l8.98,13.709a2.849,2.849,0,0,0-.664,1.733,3.522,3.522,0,0,0,.664,1.816ZM45.643,19.276V45.9L31.9,31.482a3.135,3.135,0,0,0,.553-1.742,2.766,2.766,0,0,0-.1-.922L44.9,18.907C45.182,19.064,45.643,19.2,45.643,19.276ZM29.74,32.57a2.766,2.766,0,0,0,1.457-.489L45.311,46.565H20.843a2.074,2.074,0,0,0-.507-1.429L28.974,32.57A2.231,2.231,0,0,0,29.74,32.57Zm-8.906,14.7,24.477.221-7.375,7.329a2.913,2.913,0,0,0-1.641-.645,2.766,2.766,0,0,0-1.844.655L20.751,47.4ZM38.47,55.471l7.173-7.431.286,22.311a.922.922,0,0,0-.461.184L38.35,58.614a2.766,2.766,0,0,0,.553-1.733A2.065,2.065,0,0,0,38.47,55.471Zm8.095-7.431,5.605,4.748a2.978,2.978,0,0,0-.6,1.328,2.554,2.554,0,0,0,.323,1.5L46.8,70.286Zm7.919,3.393a2.766,2.766,0,0,0-1.844.765l-5.707-4.711H68.691L56.383,52.17A2.9,2.9,0,0,0,54.484,51.433Z" transform="translate(-6 -6)"/>
</svg>
