<svg id="noun_Coffee_Bean_1675771" data-name="noun_Coffee Bean_1675771" xmlns="http://www.w3.org/2000/svg" width="19.787" height="20.458" viewBox="0 0 19.787 20.458">
  <path id="Path_59" data-name="Path 59" d="M7.86,38.661l.044,0a.353.353,0,0,0,.333-.238l.706-2.053a7.923,7.923,0,0,0-.031-5.222,7.218,7.218,0,0,1-.052-4.685.363.363,0,0,0-.064-.315A.388.388,0,0,0,8.5,26c-.03,0-.06,0-.09,0A4.415,4.415,0,0,0,4,30.408v3.881a4.413,4.413,0,0,0,3.86,4.373ZM4.706,30.408A3.71,3.71,0,0,1,8.05,26.72a7.927,7.927,0,0,0-.217,2.805H6.823v.706h1.11a7.861,7.861,0,0,0,.315,1.159A7.137,7.137,0,0,1,8.575,32.7H7.528v.706h1.12a7.208,7.208,0,0,1-.059,1.411H7.528v.706h.929c-.051.209-.11.416-.181.62l-.609,1.772a3.707,3.707,0,0,1-2.962-3.626Z" transform="translate(-4 -18.241)"/>
  <path id="Path_60" data-name="Path 60" d="M17.762,31.4a7.215,7.215,0,0,1,.028,4.754l-.706,2.053a.353.353,0,0,0,.289.465,4.346,4.346,0,0,0,.55.038,4.415,4.415,0,0,0,4.41-4.41V30.421a4.385,4.385,0,0,0-4.285-4.4h-.01a.353.353,0,0,0-.335.241,7.929,7.929,0,0,0,.057,5.145Zm3.867-.982V34.3a3.7,3.7,0,0,1-3.728,3.7l.557-1.621a7.913,7.913,0,0,0,.343-3.672h1.064v-.706h-1.2a7.751,7.751,0,0,0-.242-.843,7.2,7.2,0,0,1-.385-3.038h.765v-.706h-.67a7,7,0,0,1,.158-.683A3.681,3.681,0,0,1,21.629,30.421Z" transform="translate(-12.456 -18.255)"/>
  <path id="Path_61" data-name="Path 61" d="M32.2,5.932l1.4.659a5.986,5.986,0,0,1,3.051,3.281,6.722,6.722,0,0,0,3.085,3.5l.665.358a.353.353,0,0,0,.431-.076,4.281,4.281,0,0,0-.1-5.776L38.291,5.327a4.276,4.276,0,0,0-6-.162c-.06.056-.115.115-.17.174l-.03.033a.353.353,0,0,0,.106.56Zm5.579-.117L40.225,8.37a3.573,3.573,0,0,1,.259,4.605l-.41-.221a6.012,6.012,0,0,1-1.921-1.643l1.476-1.181-.441-.551-1.432,1.146a5.989,5.989,0,0,1-.442-.906,6.692,6.692,0,0,0-1.68-2.488l.539-.809-.587-.392-.494.741a6.754,6.754,0,0,0-1.187-.72l-.936-.441a3.569,3.569,0,0,1,4.813.3Z" transform="translate(-22.12 -4.016)"/>
  <path id="Path_62" data-name="Path 62" d="M30.02,18.549a4.226,4.226,0,0,0,3.05,1.381h.1a4.223,4.223,0,0,0,3.01-1.248l.055-.055c.046-.046.088-.094.13-.141l.035-.042a.353.353,0,0,0-.1-.545l-.665-.358h0A6.016,6.016,0,0,1,32.875,14.4a6.688,6.688,0,0,0-3.409-3.666l-1.4-.659a.353.353,0,0,0-.408.079,4.279,4.279,0,0,0-.026,5.782ZM28,10.832l.953.449-.447.67.587.392.494-.739a5.971,5.971,0,0,1,1.532,1.254l-.8.8.5.5.741-.741a6.018,6.018,0,0,1,.657,1.239,6.721,6.721,0,0,0,1.676,2.487l-.749.749.5.5.794-.794a6.679,6.679,0,0,0,.865.562h0l.255.137a3.482,3.482,0,0,1-2.47.925,3.525,3.525,0,0,1-2.545-1.152L28.15,15.463A3.572,3.572,0,0,1,28,10.832Z" transform="translate(-18.573 -7.919)"/>
  <rect id="Rectangle_11" data-name="Rectangle 11" width="0.706" height="0.706" transform="translate(1.411 12.696)"/>
  <rect id="Rectangle_12" data-name="Rectangle 12" width="1.058" height="0.706" transform="translate(6.351 11.285)"/>
  <rect id="Rectangle_13" data-name="Rectangle 13" width="0.706" height="0.706" transform="translate(7.409 16.93)"/>
  <rect id="Rectangle_14" data-name="Rectangle 14" width="0.998" height="0.706" transform="translate(14.569 2.92) rotate(-45)"/>
  <rect id="Rectangle_15" data-name="Rectangle 15" width="0.998" height="0.706" transform="translate(12.453 8.918) rotate(-45)"/>
</svg>
