<svg id="Layer_1" data-name="Layer 1" xmlns="http://www.w3.org/2000/svg" viewBox="0 0 1125 842"><defs><style>.cls-1{fill:#fff;}</style></defs><g id="noun_Map_748499" data-name="noun Map 748499"><path id="Path_80" data-name="Path 80" class="cls-1" d="M888.23,411.82c3.54-5.91,5.32-9.46,4.73-9.46a23.8,23.8,0,0,1,2.36-1.77s0-2.36,4.74-3.54a66,66,0,0,0,7.67-2.36,24.82,24.82,0,0,0,7.1-8.28c.6-2.36,3-6.5,2.36-8.28a73.62,73.62,0,0,0-3.54-10.63c-.6,0,0,0-3.54-3.54a28.74,28.74,0,0,1-6.5-8.28c-.6-1.77-1.78-1.77,0-4.14s2.36-1.77,3-3.54,2.36-3.54-1.78-2.36-1.15.6-4.73,0c-3.55,0-12.42,1.78-8.28-3.54,4.73-5.32,5.91-8.87,6.5-8.87s4.73-4.74,5.32,0c0,4.14,1.77,3,2.36,5.91,0,3,5.32-2.95,5.32-2.95a8.54,8.54,0,0,1,3,1.77,8.76,8.76,0,0,1,1.15,5.32,7.24,7.24,0,0,0,1.78,1.15c3,2.36,5.91,1.14,5.91,5.31,0,4.74,0,4.74,1.78,5.92a4.5,4.5,0,0,0,5.32-.6,21.33,21.33,0,0,0,4.13-5.91s0-1.78-4.13-4.74-7.1-4.73-8.28-5.91c-1.78-1.15-1.15-5.32.6-7.09s2.36-2.37,1.77-4.74.6-3.54,4.74-3.54h4.73s.6.6.6-1.15,5.31-8.87,3.54-8.87c-1.15,0,0-1.77-.6-4.73s3-7.68,0-9.46a14.4,14.4,0,0,1-5.32-6.5c-1.77-3.54-1.77-3.54-8.27-4.73-7.1-.59-10,1.78-11.82-.59s-2.36,2.95-3.54-3a14.69,14.69,0,0,1,1.78-10.64,29.87,29.87,0,0,0,5.31-4.73,7.55,7.55,0,0,1,8.86-1.15,77.13,77.13,0,0,0,13,1.78c4.14.59,4.14,3.54,5.92,0,2.36-3.54,0-5.32,1.77-7.1s3.54-4.73,4.74-2.95,4.13,3.54,5.91,1.14l3-2.95,1.14,1.14s2.36-1.14,2.36,1.15,2.37,5.32,1.15,7.09-3,1.78-3,5.92,0,3.54,3,7.68c3,3.54,4.73.59,5.32,4.73s1.15,3,4.14,5.91,2.36,3,4.73,4.14,3,3,3,.6v-6.4c0-2.36,2.36-4.14.59-8.27s0-3.55-3.54-6.5c-3-3-5.32.59-6.5-3.54s5.32-5.92,6.5-6.5c1.78-.6,4.14-3.54,4.74-1.78.59,2.36-4.14,10,3.54,1.78a33.64,33.64,0,0,1,4.73-4.74c.6,0,4.14-.59,4.73,0s3-2.36,2.37-2.36-8.28-4.13-8.28-4.13l-5.32-3a7.21,7.21,0,0,1,3-1.15c1.15,0,1.78-3,3-3a54.09,54.09,0,0,1,12.41,3c1.78,1.15,8.27,1.15,7.68.6s-5.32-3.54-5.32-4.74-9.46-3-12.41-3-5.32,1.14-8.28,0a65.45,65.45,0,0,0-7.68-3c-1.77,0-25.41-4.73-26.6-4.14-1.15,0-3,5.32-3.54,4.74a38.06,38.06,0,0,0-5.92-1.78,76.09,76.09,0,0,0-15.37-2.36c-6.49-.6-11.23.59-13-1.78s-5.92-1.14-10.64-1.77h-12.4a45.38,45.38,0,0,1-9.46-.6c-1.14,0-3-2.36-4.73-2.36s-1.15-.6-4.73-1.15c-3-.59-3-4.14-4.14-1.14s-.6,2.36-2.36,2.95c-1.78,1.15-3,3-4.14,3h-5.92a7.65,7.65,0,0,0-4.73-1.15h-5.91a26.59,26.59,0,0,1-9.46-1.77c-3-1.78-3-3-5.91-2.36-3,0-3-.6-6.5-.6s-8.28,2.36-10.64,2.36a24.42,24.42,0,0,1-9.45-1.15c-1.78-1.14-2.37-2.95-9.46-1.77-7.09.59-10.64.59-9.46-1.15a48.22,48.22,0,0,1,3.55-4.73c.59,0,2.95-1.78,1.14-2.36a23.86,23.86,0,0,0-5.91-1.78c-3,0-3,1.15-7.68.6s3-1.78-7.1-1.78a62,62,0,0,0-13.59,1.15c-1.15,0-2.36-2.36-5.32,1.14a15.92,15.92,0,0,1-11.81,5.32A22,22,0,0,0,724.43,224c-5.32,1.77-8.28-.6-7.1,3.54s2.36,5.91,2.36,6.5-2.36,5.91-5.31,2.95-8.28-15.95-5.92-7.09c2.36,8.28,7.68,11.23,3,13-5.32,1.14-4.73-.6-5.32-1.15s0-4.14,0-6.5a5.82,5.82,0,0,0-1.77-4.73c-1.15-1.15-.6-3-3-3-2.36-.59,0-1.77-3.54-1.77s-6.5-2.37-5.32,2.95c.59,4.74,1.77,1.78,3.54,5.92,2.36,4.73,5.91,1.14,3,4.73a11.86,11.86,0,0,1-12.42.6c-1.77-1.15-1.14.59-4.73-1.78s-2.36-4.14-6.5-2.36-5.32,5.32-7.09,4.14-5.32,1.77-6.5,0a6.19,6.19,0,0,0-7.68,0c-1.15,1.77-4.14,1.14-8.86,3.54s-3,0-8.87,4.73c-5.32,4.74-8.86,8.28-10.64,5.32s-11.82-8.28-8.27-8.87,5.91-2.36,8.27-.6,5.32,1.15,5.92,0,3-2.95,0-4.14c-3-1.77-3.55-.59-8.28-2.36-5.32-1.77,0-1.14-7.1-2.36a92.25,92.25,0,0,1-11.72-2.51,29.08,29.08,0,0,0-7.1,0c-2.36,0-4.73-.59-7.09-.59a10,10,0,0,0-7.09,2.36c-3,2.36-5.32,3.54-7.68,5.32s-7.68,5.31-9.46,7.09a29.5,29.5,0,0,0-7.68,7.1c-.6,1.77.6,2.95-1.78,4.13a11.69,11.69,0,0,1-5.91,1.15c-1.78,0,0-2.36-1.78,0-1.77,3-1.14,12.41,0,10.64,1.15-1.15.6-5.32,6.5-1.78,5.92,4.14,9.46,3.54,9.46,7.09s4.14,3.55,4.73,4.14,3-1.14,3-1.14,5.91-3.55,5.91-5.32,3.54-5.92,3.54-5.92-1.77-.59-1.77-3.54a17.57,17.57,0,0,1,1.14-5.91c.6-3-3,0,5.32-5.32s8.28-1.78,8.28-1.78a2.3,2.3,0,0,1,0,3c-1.15,1.78-3.54,5.91-4.14,6.5s2.36,4.73,3.54,4.73,4.14-1.14,5.32-.59c1.78,0,4.14-.6,5.32,0,.59.59,3,2.36,1.14,3.54a8,8,0,0,1-6.49,2.36c-2.37-.6-5.32-4.14-3.55,1.14s0,6.5-1.77,6.5-5.32-2.95-4.74,1.15a6.36,6.36,0,0,1-4.13,6.5h-5.92a7.31,7.31,0,0,0-4.73,2.36c-.6,1.15-1.78,0-3,0s0-1.78-3-2.36-4.13-1.15-5.91,0-4.14,1.77-5.32.59c-1.14-.59.6-2.95-1.78-1.77s-3.54,4.14-4.73,4.14h-.59a11.6,11.6,0,0,0-5.92,1.77c-1.78.6.6,3.54-2.36,4.74s-.6-1.15-3.54,1.14-3.54,4.74-4.74,4.74-.59.59-3,1.14a10.45,10.45,0,0,1-3.54.6c-1.15,0,0,.59-3,0s-5.32.59-4.74,1.77,10.64,4.14,3,3.55c-7.68,0-5.32,1.14-3.54,2.36s2.36,2.36,3,2.36,2.36,3.54,2.36,3.54,2.36,0,.59,1.78.6,2.36-.59,4.73-1.15.6-2.36,1.15-3,2.36-5.32.59a23.49,23.49,0,0,0-8.28-3c-3.54,0-1.14-.59-3.54,1.15a7.53,7.53,0,0,0-2.95,6.5,29,29,0,0,1,0,7.09,8.09,8.09,0,0,0,0,5.32,6.3,6.3,0,0,0,2.36,3.54s3.54.6,4.73.6a7.36,7.36,0,0,1,4.73.6c2.36,1.14,4.14,1.77,5.32,0s6.5-3.55,8.28-5.32,2.95-2.36,1.77-3.54c-.59-1.78,1.78-5.32,3-6.5,1.15-.6,4.14-1.78,4.14-1.78l3-4.73s3-3,4.13-3,8.87,3,8.28-.6c-1.15-1.14,0-2.36,1.14-1.14.6,1.14,3,.59,3,.59s1.15-.59,1.78,0,1.78,4.14,3.54,5.32a26.47,26.47,0,0,1,4.14,2.36c1.14.6,2.36,0,4.14,1.78a46.59,46.59,0,0,0,4.73,3.54c0,.6,2.36,3,2.36,3s1.78.59,1.15,1.78a12.11,12.11,0,0,1-4.74,4.73c-1.14.59-4.73-.6-3.54.59s3,2.37,4.14,1.78l5.91-5.91V337.8c0-1.15,0-3.54,1.15-3s2.36,1.78,3,.6,1.14-.6,0-1.15-4.74-5.31-5.92-5.31c-1.77,0-5.32-3-5.32-3l-2.95-3c-1.78-2.36-2.36-1.78-3-3.54s-2.36-4.14.6-3.54a24.49,24.49,0,0,1,7.67,4.14c3,1.77,2.37,2.36,4.74,3.54,2.36,1.77,3,2.95,4.73,2.95a3.91,3.91,0,0,1,4.14,3.55c0,2.36.6,5.31,1.15,5.31.59.6,2.36,1.78,3,3l2.36,4.74c.6,1.14,1.78,1.77,2.37,2.95s1.14,0,1.77,0a1.14,1.14,0,0,0,1.6-.24,1.29,1.29,0,0,0,.18-.35v-3s3.54-1.15,3-1.78c-1.15-.59-4.14-3.54-4.14-4.73s0-3,1.14-3,3,3,5.32.6,6.5-3,5.32,0,0,3.54,0,7.09,1.15,2.36,3,4.14a10.41,10.41,0,0,0,4.73,3c1.15.59,3.54,0,5.32.59,2.36,0,3.54-.59,5.32,0a28,28,0,0,0,7.09,0c.6.6,4.14-1.14,4.14.6s1.15,0,.6,4.14a33.94,33.94,0,0,1-1.78,7.09c-3,5.32-4.14,7.1-5.32,7.1s-2.36,1.14-4.73.59a51.48,51.48,0,0,1-8.86-.59,80.56,80.56,0,0,1-12.42-.6c-2.36-1.15-6.49,0-8.27-2.36-1.78-1.78-4.14-1.78-5.32-3s-1.78-4.14-1.78,0-2.36,4.74-2.95,6.5c-.6,2.36.59,1.15-2.36.6a9.62,9.62,0,0,1-8.28-1.78c-4.14-3-6.5-3-8.27-4.73-2.37-1.15-4.14,2.36-6.5-1.78s-5.32-.6-5.32-4.14v-5.22c0-2.36,3-4.14,1.78-4.74s0-2.36-2.37-1.14c-1.77.59-4.73,1.14-6.49,1.77-2.37.6,4.73,0-5.32.6a52.94,52.94,0,0,0-13.6,1.78s-.59-.6-2.36.59c-1.14,1.15-3,3-5.32,1.78a6.54,6.54,0,0,0-4.73,0c-1.78,0-3-1.15-4.73,0s-4.14,1.77-4.74,1.14-2.36-3-2.36-3h0L505,355.09,502,358l-5.32,3,.6,3s-2.37,2.36-1.78,3.54V371a55.48,55.48,0,0,1-5.32,4.73,18.31,18.31,0,0,0-3.54,3.55,8.42,8.42,0,0,1-2.36,2.36,18.61,18.61,0,0,0-3,3.54,22.23,22.23,0,0,1-3,3.54,13.94,13.94,0,0,0-2.95,5.32,22.89,22.89,0,0,1-3,6.5l-.6,1.14a18.52,18.52,0,0,0,.6,7.1c.6,1.77,1.15,1.14.6,4.73a44.67,44.67,0,0,1-1.15,6.5,54.32,54.32,0,0,1-3,5.91c-.59,1.15,1.15,3.55,1.15,3.55s.59,3.54,0,4.13,0,2.36,0,2.36a30.87,30.87,0,0,1,4.14,3c1.14,1.15,3,3,3,3.54a24.1,24.1,0,0,0,3,5.32,52.83,52.83,0,0,0,3,4.74c.59.59,2.95,3.54,2.95,3.54s3.55,2.95,4.14,3.54c.6,1.14,3,1.78,4.14,2.36.6.6,3,.6,3.54,1.15,1.15.59,3-.6,4.14,0a6.37,6.37,0,0,0,4.73-1.15c.6-.6,3-2.36,4.14-1.78s2.36,0,3,0c1.14,0,3-1.14,3.54-1.14,1.15,0,3.54-1.15,4.73-1.15a41.52,41.52,0,0,1,4.74-1.78c1.14,0,2.36-1.14,3.54-.59s.59-1.15,3,0c2.36.59,3,0,4.13.59.6.6,1.78,0,3,1.15.6,1.15,2.36,1.78,2.36,3s1.78,2.36,1.78,2.36h1.77s2.37-1.78,3-.6,3,.6,3,.6l2.36,3,.6,1.14a12.69,12.69,0,0,1,1.14,5.92c0,1.77,0,5.31-1.14,5.91a14.91,14.91,0,0,0-1.15,4.14s-1.15,1.14,1.15,3A17.68,17.68,0,0,1,560,491c.6,1.15,3,4.14,3,5.92a11.26,11.26,0,0,0,1.77,5.32c1.15,2.36,2.36,2.95,3,5.31,0,3,.6,3,.6,4.74s-1.15,2.36,0,3.54a15.72,15.72,0,0,1,1.77,4.73c0,.6-.59,4.14-.59,4.14l-.6,1.78-.59,5.32-1.78,2.36a10.69,10.69,0,0,0-1.15,6.5c0,3-1.14,3,.6,5.31a59,59,0,0,1,4.73,8.28,17.43,17.43,0,0,1,2.36,6.5c0,1.77,1.15,2.36,1.78,4.14a14.54,14.54,0,0,1,.6,4.73v5.32c.59.59.59,3,1.14,4.13,0,1.15-.59,1.15.6,3s3,3,3.54,4.14c1.15,1.15.6.6,1.78,3a36,36,0,0,1,2.36,4.73A40.69,40.69,0,0,0,586,601.5a18.06,18.06,0,0,0,1.78,3.54,14.21,14.21,0,0,0,4.14,1.78c1.14,0,3-3,4.73-1.78a9.63,9.63,0,0,0,4.14,0c1.15,0,3-1.78,4.14-1.78s3-2.36,4.13-1.77,2.37-.6,3.55-1.78l4.73-4.73,3.54-3.54c1.15-1.15,3-4.14,5.32-4.74,1.78-.59,2.36-2.36,3-3.54s.59-2.36,1.77-3a31.63,31.63,0,0,1,1.78-3,8.15,8.15,0,0,1,4.14-5.32c1.14-.6,2.36-2.36,2.95-3,.6,0,2.37.6,1.78-1.77s0-5.92-.6-6.5-1.14,1.77-1.14-2.36a16.69,16.69,0,0,1,3-8.28,42.53,42.53,0,0,1,5.31-5.91c1.15-.6,1.78-1.78,3.55-3s5.91-3.54,5.91-5.32a55.32,55.32,0,0,1,1.78-5.32,39.07,39.07,0,0,0-.6-5.91c-.6-4.74.6-3.54-1.15-7.68s-1.77-9.46-3-10.64-.6-4.73-.6-5.91a10.49,10.49,0,0,1,3-4.74,55.63,55.63,0,0,1,4.14-5.31,89,89,0,0,0,7.09-8.88,20.72,20.72,0,0,1,5.32-6.49,29.52,29.52,0,0,0,6.5-5.92c1.77-2.36,5.32-7.68,5.91-8.27a18.73,18.73,0,0,1,2.36-3.55,26.27,26.27,0,0,0,3.54-5.31c.6-1.78,3-12.42,3-11.82a11.1,11.1,0,0,1-4.73,1.15c-1.15,0,1.77,1.14-5.92.59a37.19,37.19,0,0,0-11.81.6c-2.36-.6-4.14,2.36-5.32-1.78a17.19,17.19,0,0,0-3-8.27c-1.77-3-3-3.55-5.32-7.1s-2.36-1.78-4.13-4.73-3-1.78-4.14-5.32-2.36-2.36-4.14-7.1a67,67,0,0,1-3.54-8.27c-.6-3-1.78-3.54-2.36-5.91a74.59,74.59,0,0,0-7.68-15.37,15.66,15.66,0,0,1-1.78-4.14c0,.59,4.14,3.54,4.14,3.54a24.63,24.63,0,0,1,3-.6c.59,0,4.13,3,4.13,4.14s5.32,5.91,7.1,10.05c1.15,3.54,3,6.5,3,7.68a30.92,30.92,0,0,0,4.13,7.1c1.15,1.77,4.74,4.73,5.32,6.5S667,420,667,423.51a19,19,0,0,0,3,8.87c0,1.15,5.32,2.36,5.32,2.36l6.49-1.77a87.08,87.08,0,0,1,10.64-5.92,76.29,76.29,0,0,0,9.46-4.13s3.54-3,5.91-5.32c2.36-1.78,5.32-5.32,5.32-7.1.6-1.77,1.78-1.77,3.54-4.13,2.36-2.37,5.32-4.74,3-6.5-1.78-1.78-3-1.15-5.32-3.55a16.38,16.38,0,0,1-4.14-5.31c-1.77-3.55,0-7.68-3.54-3.55-4.14,4.14-2.36,5.32-6.5,5.92s-5.32,3.54-7.68.6c-1.77-3-3.54-1.15-4.73-5.32a37.84,37.84,0,0,0-2.36-5.92c0-1.77,0-1.77-2.36-5.32-2.36-4.13-.6-10.05.59-6.49s3.54,4.13,7.1,6.49a24.39,24.39,0,0,0,8.27,4.74,16.77,16.77,0,0,1,6.5.59c.6.6,1.15,0,2.36,0,1.15.6,1.78-.59,2.36,1.15.6,2.36,3.55,2.36,4.74,3.54s1.14.6,4.73,1.15a62,62,0,0,0,8.28.59h5.31l5.92.6a23,23,0,0,0,5.32,2.36c1.14,0,1.14,3,4.13,4.73a16.51,16.51,0,0,1,4.74,3.55c1.77,1.77,1.14,2.95,3.54,4.73a4.28,4.28,0,0,0,5.91-1.15c.6-.59,3-2.36,3,0s3,1.15,1.78,6.5c-.6,5.32-1.15,3.54,0,7.1s7.09,14.19,7.68,17.19,1.77,2.36,2.36,5.32c0,3,1.77,4.14,1.77,5.91,0,2.36,1.78,3,2.37,4.14,0,1.78,2.95,0,4.13,0a33.4,33.4,0,0,0,4.74-3.54s1.77-.6,1.14-3v-5.91c0-4.14-1.77-4.14-.59-8.28a28.06,28.06,0,0,1,3.54-8.27,13.67,13.67,0,0,1,3.54-5.32,19.37,19.37,0,0,0,8.28-5.32,47.26,47.26,0,0,1,5.31-5.91c2.37-2.37,5.92-4.74,6.5-4.14s.6.59,1.78.59,3.54,1.15,5.32,1.15,5.32,4.73,6.5,7.1c.59,2.36,0,1.77,3,5.31s5.32,1.15,5.32,5.32,0,4.14,1.15,5.32c1.14,1.78,2.95-3,4.73-2.36s1.78-.6,3,3.54,2.36,4.14,2.36,8.28v10.63c.6,3,2.36,4.14,2.36,4.74a18.29,18.29,0,0,0,1.15-7.68,13.53,13.53,0,0,1,1.14-8.87c1.15-1.15,3-3,3.54.59,1.15,3.54,1.78.6,4.14,4.73s4.74,3,4.74,5.32c0,1.78,1.77,2.36,3.54,3.54,1.77,1.78,3.54,0,5.32-1.77,2.36-1.78,8.27-7.68,8.27-10.05s3-1.78-1.78-8.28c-4.13-5.91-4.13-8.27-8.86-11.82s-7.09-4.13-3.54-8.87,5.32-8.27,7.1-6.5c2.36,1.15,5.91,1.15,5.91,6.5S884.69,418.32,888.23,411.82Z"/><path id="Path_81" data-name="Path 81" class="cls-1" d="M689.07,532.4l-1.15-5.92a50.6,50.6,0,0,1-2.95,7.1l-5.32,3s-1.78,1.77-3,1.77a9.62,9.62,0,0,0-3.54,1.78s-2.36-.6-1.78,1.77,1.15,5.32.6,5.92v4.73c0,2.36-.6,4.74-2.36,5.32-1.15.6-3,1.15-2.36,3a32.88,32.88,0,0,1,0,7.68l3.54,5.32a7.16,7.16,0,0,1,3-.6,6.47,6.47,0,0,0,4.13-1.78s2.36.6,2.36-2.36,1.15-6.5.6-7.09c0-.6,2.36-4.14,2.36-5.32,0-.6,3-4.73,3-5.92s1.77-3.54,2.36-5.31a22.18,22.18,0,0,1,.6-6.5c.59-1.15,0-2.36,0-3Z"/><path id="Path_82" data-name="Path 82" class="cls-1" d="M688.46,525.9h0C689.06,526.49,689.06,525.9,688.46,525.9Z"/><path id="Path_83" data-name="Path 83" class="cls-1" d="M1020,569c-1.78-3,.59-3.54-1.78-4.73s-4.14-.6-4.73-2.36-3-1.78-3.55-6.5c-.59-5.32-4.13-5.32-4.13-5.32s-3-1.15-2.36-1.78a7.89,7.89,0,0,0,.59-5.32,9.71,9.71,0,0,0-1.14-5.31,21,21,0,0,0-2.37-5.32c-.59-1.78-2.36-2.36-3-4.74a6.19,6.19,0,0,0-1.78-3.54c0-.59-.6-3-1.15,0s-1.77,8.28-1.77,8.28l-3,5.91c-.6,1.15-1.78,4.74-3,4.74s-2.36,1.14-3,1.14c-1.15,0-3,0-3.54-.59s-3-3-4.14-3-1.78-2.36-3-2.36c-.6,0-2.36-1.78-1.78-3,0-1.15.6-3.54.6-4.73A9.74,9.74,0,0,1,974,527s0-1.77-1.15-1.77h-4.73a31.51,31.51,0,0,1-4.74-.6c-1.14,0,1.15-.59-1.77,0s-4.14,3-5.92,4.74,0,1.14-1.77,1.77-1.15-1.14-2.37,1.78.6,3.54,0,4.14-6.49-1.78-6.49-1.78,1.14,0,0-1.78c-1.15-1.14-2.37-2.95-3.55-2.36a6.87,6.87,0,0,0-4.13,3c-1.15,1.15-1.15,2.36-1.78,3.54s-3,1.15-3,2.36,0,3.54-1.14,4.14c-.6,0-1.15-1.15-1.78-1.15s-.6-2.36-1.15-1.14-1.14,1.14-1.77,3c-.6,2.37-1.15,4.14-1.78,4.14s0,.6-2.36,1.78-3,1.15-6.5,3-3,1.77-5.32,1.77-3,1.15-4.73,1.15A4.46,4.46,0,0,0,902,559a5.12,5.12,0,0,1-4.14,2.36,4.15,4.15,0,0,0-2.36,1.15c-.59,1.14-1.14,12.41-1.77,13.59a27.57,27.57,0,0,0-1.15,10,25.56,25.56,0,0,1,.6,9.46c-.6,1.78,0,7.68-1.15,7.68s-1.78,0-1.78,1.14c0,.6,1.78,2.37,1.78,2.37h4.73c1.78,0,4.14-1.78,5.92-1.78,2.36,0,3.54-1.78,5.32-1.78s5.91-1.14,7.09-.59,3-3,4.73-2.37,5.92-1.77,7.68-1.77,3-3,4.74-2.36,5.91-1.15,8.27,0c1.78.59,4.74-3,5.92,0s5.32,3.54,5.32,5.32v4.25h2.95a54.47,54.47,0,0,1,5.92-3c.59,0,2.95-3,2.95-1.15a20.62,20.62,0,0,1-2.36,5.32c-.59,1.15.6,3,.6,3s3,1.15,1.78,3.54,0,1.78,0,3.54,0,1.15,1.14,2.36,3,3,4.74,3,2.36-1.78,3.54-1.14,4.13,0,4.73,1.14-5.32,3.54,5.32-.59,11.23-5.32,12.41-7.1a27.94,27.94,0,0,1,4.14-4.14c1.15-1.14,0-.59,3.54-3,3-2.37,3-1.15,5.92-5.92s5.31-5.91,5.31-7.09a4.46,4.46,0,0,0,1.78-4.14c0-3,2.36-5.92,2.36-7.1s.6-3,.6-4.73C1020.67,574.36,1021.81,572,1020,569Z"/><path id="Path_84" data-name="Path 84" class="cls-1" d="M897.1,492.2a32.88,32.88,0,0,1,7.68,0,21.12,21.12,0,0,0,3.54.6c1.15,0,1.78-.6,2.36-.6s2.36-3,2.36-3-1.14-1.14.6-2.95,3.54-2.36,3.54-4.14-.6-1.78,0-3,3-.59,2.36-1.77.6-.6-.6-3-2.36-3-1.14-5.32c1.14-3,2.36-3,1.77-4.73,0-1.78,1.15-2.36-.59-4.14a13.65,13.65,0,0,0-4.14-3l-1.15-.59c-1.14,1.77-4.73,6.49-5.91,6.49s-3,1.78-3.54,1.15-3.54,0-4.14,3.54-2.36,5.32-3,5.32,1.15,5.32-2.95,3-3,1.77-3.54,2.95.59,4.14,1.14,5.32a11.63,11.63,0,0,0,2.36,4.74,2.77,2.77,0,0,0,2.49,3Z"/><path id="Path_85" data-name="Path 85" class="cls-1" d="M1025.35,517c-1.77-1.15-2.95-2.36-8.27-6.5s-1.78-1.15-1.15-4.74c.6-3-.59-.59-1.77-2.36-1.15-1.14,0-2.36-3-5.31s-1.15-1.15-4.14-2.37-4.14-.59-5.91-2.95c-2.36-1.78-5.32-1.15-8.28-3-3.54-1.78-4.14-.6-4.73-1.78s-1.15-.59-3-.59-1.78,0-2.36,2.36-3,2.36-4.73,3.54-3,.6-4.74-2.36-1.77-1.15-2.36-5.91c0-4.74-4.14-2.37-5.32-1.78,0,0-2.95-.6-2.95,0v.59l4.13,3c4.14,3,0,3,0,3a3.12,3.12,0,0,0,.6,3c1.15,1.14,3,.59,4.73,1.14a10.39,10.39,0,0,0,3,.6h1.15s3,1.14,4.73,1.77,1.78,2.37,3.54,3,1.15,3,1.15,3a6.85,6.85,0,0,1,0,3.54c-.6,1.78.59,2.36,3,1.15,2.36-.6,1.77.59,3,1.77a6.18,6.18,0,0,0,6.5,1.15c2.36-.6,1.78,2.36,3.54,0s3-3.54,4.74-3.54,2.36.59,3,2.36,4.14,3,5.92,4.73a26.61,26.61,0,0,0,4.73,3,24.56,24.56,0,0,0,7.1.6C1028.31,520,1027.13,518.21,1025.35,517Z"/><path id="Path_86" data-name="Path 86" class="cls-1" d="M875.83,492.21a6.26,6.26,0,0,0-2.37-3.54c-1.14-.59-2.36-3-4.13-5.91-1.78-3.54,0,0-4.14-5.32s-3.54-2.36-6.5-4.14a55.76,55.76,0,0,1-5.32-4.14c-1.14-1.77-3-5.91-5.32-5.91a5.17,5.17,0,0,1-3.54-1.15h-.61a42,42,0,0,0,3,3.54,11.76,11.76,0,0,0,2.36,4.74,28.08,28.08,0,0,1,3,4.14c1.15.59,3,5.31,4.14,7.09.59,1.78,2.36,3,3.54,4.73a87.59,87.59,0,0,0,5.32,8.28c2.36,3,3,4.73,4.14,5.91a10.43,10.43,0,0,0,4.13,3s1.15,0,3-2.36a5.5,5.5,0,0,0,1.15-4.73C878.19,495.17,876.41,492.8,875.83,492.21Z"/><path id="Path_87" data-name="Path 87" class="cls-1" d="M408.9,501.66c.6-1.78-3-1.15-3.54-3-1.15-1.78-1.78,0-3-1.15s-3-.59-4.14-2.95c-.59-2.36-4.73-1.15-8.27-3.54s-2.36,0-4.73-.6-4.74,0-5.32-.6-2.36,2.36-3.54,0c-1.15-1.77-1.15-.59-5.32-4.13s-1.78-1.15-4.74-1.78c-1.77-.6-2.36.59-2.36,1.15v-2.37c0-1.77,0,0-1.77-.59a4.55,4.55,0,0,0-3,0,36.54,36.54,0,0,0-6.5,1.77c-1.78,0,2.36-1.77,4.73-5.91s-.59-4.14-1.77-8.28-3.54-4.73-6.5-6.49c-3-2.36-1.15-.6-3-.6a6.51,6.51,0,0,1-5.32-1.78c-1.77-1.77-2.95-.59-3.54-2.36s-1.78-1.77-4.73-5.32a13.06,13.06,0,0,0-7.1-3.54c-2.36-.59-2.95-1.14-6.5-4.14a2.85,2.85,0,0,0-2.36-1.14s.6,0,1.15-1.15c.6-2.95-5.32,0-10.05-1.14-4.74-.6-4.14,1.14-5.32,0-.6-1.78-1.78-1.15-4.14-2.36a7,7,0,0,1-4.14-2.37c-1.14-1.14-.59,0-2.95,5.32-2.36,4.74-.6,3-1.78,4.14s-3,1.78-2.36-2.36,0-1.15-2.36-6.5-3.54,3-4.74,3c-.59,0-4.13.59-4.13.59a49.2,49.2,0,0,1-6.5,7.68c-2.36,1.78-3,3-2.36,4.14.59,1.78-.6,3.54,2.36,5.32,2.95,2.36-1.78,3.54-1.78,5.91a13.17,13.17,0,0,1-3,5.92l-4.13,6.5a21.35,21.35,0,0,1-4.14,5.31,3.94,3.94,0,0,0-.37,5.55l.37.37c1.78,1.77,1.14,2.36,1.78,3s-3.55,2.95-3.55,2.95l.6,5.32s5.91,7.1,6.5,7.68a57,57,0,0,1,4.14,7.09,33.14,33.14,0,0,1,3,7.68c1.15,1.15,2.36,5.92,3.54,7.1a76.94,76.94,0,0,0,7.1,5.91c1.15,1.15,5.91,4.74,8.27,6.5a10.88,10.88,0,0,0,7.1,3c3,0,0,2.36,3.54,4.14s-.59,7.09,0,11.23-.59,8.87,0,10.64a78.75,78.75,0,0,0,.6,10.63,75.66,75.66,0,0,1,.59,10.64c.6,2.36,1.15,11.82,1.15,11.82l1.78,21.86a8.2,8.2,0,0,0,2.36,2.37c1.14.59,1.77,3.54,2.95,4.13s1.15,3,1.78,5.32.6,3,2.36,3.54c1.15.6,0,3,0,3.54s-1.77,1.78-2.36,3.55,3,5.91,3,5.91l2.95,5.32s4.14,5.91,5.32,7.09a75.07,75.07,0,0,0,7.1,4.14,15.84,15.84,0,0,0,5.32,0c1.14-.6,0,0-.6-1.78a5.86,5.86,0,0,1-.6-4.73c0-3,1.15-3,3-5.91,1.15-3,0-1.78,0-5.92s-1.78-3-4.14-3-.59-2.95-.59-4.13c0-.6.59-1.78,2.36-3a3.63,3.63,0,0,0,1.14-2.36,7.42,7.42,0,0,0-.59-4.73c-1.15-1.78-1.15-2.37-2.36-3s-.6-3.54-.6-3.54l1.78-.6.59,1.15a11.82,11.82,0,0,0,4.74,0c1.77-.6.59-3,.59-6.5s.6-1.15,1.15-2.36,3,.59,4.14,1.14,1.77-.59,2.36-.59,1.78-3.54,3.54-4.14,0,0,.6-1.15a19.21,19.21,0,0,1,1.77-2.95c1.15-1.78-2.95-2.37-5.32-4.14s-2.95-3-2.95-4.74c.59-1.77,1.14.6,5.32,1.78s3.54,0,4.73.6.6-.6.6-.6,2.95-.59,3.54-3c1.14-1.77,0,0,1.14-2.36s1.15-1.14,4.74-5.32.59-1.14.59-3a37.36,37.36,0,0,0,1.15-5.32c0-1.78,2.36-3,4.14-7.1s1.77-4.73,0-7.67,3.54-4.74,5.31-5.32a51.2,51.2,0,0,0,8.88-2.36,11.94,11.94,0,0,0,4.73-2.37c3-1.77,1.78.6,3-2.36.59-2.95,1.14-2.36,3.54-8.27s.59-1.78,1.14-4.74a43.66,43.66,0,0,1,1.15-7.09,45.74,45.74,0,0,1,1.15-9.46c.59-3.54,0,0,1.14-3.54a39,39,0,0,1,2.36-7.68c1.15-3.54,1.15-1.14,2.37-2.36s1.14-3,2.95-3.54,3.54-5.32,4.14-8.27C410.08,502.84,408.9,503.43,408.9,501.66Z"/><path id="Path_88" data-name="Path 88" class="cls-1" d="M256.4,449.66a2.63,2.63,0,0,0-2.36-1.78c-1.14,0-4.14-3.54-4.14-3.54a4.61,4.61,0,0,1-1.14-3,18.92,18.92,0,0,1,0-8.27,21.62,21.62,0,0,0,.59-8.28c0-1.15,1.15-1.15-.59-2.36a17.61,17.61,0,0,0-8.28-1.15,12.8,12.8,0,0,0-5.91,1.15,48.32,48.32,0,0,1,3.54-9.46,46.56,46.56,0,0,0,2.88-8.27c0-.6.59-1.15-.6-2.36a5.31,5.31,0,0,0-5.91-.6c-1.78.6-1.15-1.15-3,2.36a18.44,18.44,0,0,1-4.14,7.1,31.14,31.14,0,0,0-4.73,2.36,20.74,20.74,0,0,1-5.32-.6,16.47,16.47,0,0,1-8.28-5.32,18.22,18.22,0,0,1-1.77-7.68c0-1.77,3-7.68,3-8.87s2.95-6.5,2.95-7.68a13.85,13.85,0,0,1,1.15-4.73c.59-1.15,4.73-2.36,5.91-3.54a13,13,0,0,1,4.74-3,18.38,18.38,0,0,1,4.73-1.15c1.15,0,4.73-2.95,5.32,0s3,1.78,4.14,2.37,1.77,1.77,3.54-1.78c2.36-3.54,4.14-4.73,4.14-3.54,0,.59,3.54,0,4.13.59s1.78-.59,3.54,1.15,4.74,1.78,4.14,3c0,.59,1.15.59,1.15,1.77,0,.6,1.14-1.77,1.14,3a22.73,22.73,0,0,0,1.15,7.68s1.78,4.14,3,3c.59-.6,2.36-3,2.36-3s3-1.78.6-7.09a34.13,34.13,0,0,1-1.15-8.88c0-2.36,0-2.95,3-5.31a126.2,126.2,0,0,1,13-8.88c1.78-1.14,5.92-4.13,5.92-4.13a2.93,2.93,0,0,0,1.77-3c0-2.36,5.32-5.91,5.32-7.1s3.54-3.54,3.54-3.54,3.55-2.36,3.55-3.54,4.73-3.54,5.31-3.54,5.92,1.15,5.92-1.15,0-2.95,3-5.31,5.91-5.32,7.67-5.32a41.06,41.06,0,0,0,7.68-3c1.78-.6,7.68-3,2.37,0s-1.78,1.15-3,4.14-1.78,5.91,3,2.36c5.31-4.14,4.73-4.73,6.49-5.32,1.78,0,.6.6,4.74-.6s4.14-1.77,4.14-1.77,1.77-1.78.59-2.36,1.15-1.78-3,0-3.54,1.77-6.49,1.14-6.5-.59-3.55-2.95c3-3,6.5-3.55,4.14-4.74a16.47,16.47,0,0,0-9.45.6h-4.14c-1.78,0-1.15-2.36,0-3a29.82,29.82,0,0,1,8.87-3A93.33,93.33,0,0,1,354.41,299a17.08,17.08,0,0,0,7.68-.6,26,26,0,0,0,5.92-4.73,13.36,13.36,0,0,1,2.95-3s2.36-2.36,1.15-3.54-3-3.54-3.54-3c-1.15.6,0,3.54-2.36,0s-1.78-4.14-3-4.73-2.36,0-1.15-4.14.6-5.32.6-5.32.59-3,0-3.54c-.6,0-1.15-1.14-3,0-1.14.6-8.87,4.74-10.64,5.32s-3.54-3-3-5.32c.59-1.78,0-.59-.6-3.54-1.14-3-5.32-3-7.09-3s-5.32-2.36-6.5-.59a42.33,42.33,0,0,1-7.68,7.09c-1.15.6-3-4.73-3.54,3.54s2.95,10.64-1.15,11.24a27.35,27.35,0,0,0-8.27,2.95s-3.55,0-3.55,2.36-1.14,7.1-2.95,7.68a8.19,8.19,0,0,1-7.1-1.77c-1.77-1.78,0-7.68,0-7.68l2.36-2.36a135.78,135.78,0,0,1-16.55-3.55c0-1.14-5.32-3-5.32-4.73a12.16,12.16,0,0,1,0-6.5,37.12,37.12,0,0,1,11.24-8.87c3.54-1.15,10.05-4.14,11.81-4.73s5.32,0,5.92-1.78a5.78,5.78,0,0,0,1.14-3.54s-.59-3.54.6-3,3,1.15,3,2.36c0,.6,0,3,2.36.6a20,20,0,0,1,6.5-4.14c2.36-1.14,5.32-.59,7.09-1.78s5.32-2.36,5.32-4.73c0-3-.6-1.78-2.36-2.36-1.15,0,.6,0-4.14,2.36s-3,.6-6.5,2.36-3.54,1.78-3.54.6a21.12,21.12,0,0,1,.6-3.54l-1.72-.59c-1.78-.59-1.78,0-2.36-2.36,0-2.36,1.14-5.91-1.15-4.73s-5.32-.6-7.09,4.73-8.28,10.64-10.06,9.46-1.77-1.78-2.95-1.78-3-1.78-5.32-1.78H275.37c-1.77,0-4.14-1.14-5.32.6-1.77,1.78-4.13,3.54-4.13,4.73s-2.36-2.95-3-2.95a24.29,24.29,0,0,0-5.32-1.15,17.14,17.14,0,0,1-4.73-1.15c-.6,0,.59-2.36,0-2.36s-18.34-.59-18.34-.59a18.08,18.08,0,0,0-7.68-1.78,119.72,119.72,0,0,0-12.41,1.15c-4.14.59-11.24,3.54-13.6,3.54s-7.09,0-7.68-1.15,0-1.14-.59-1.14c-1.15,0,0-.6-3-3-2.36-1.78,1.15-3.54-3.54-3.54H174.26A138.56,138.56,0,0,0,160.07,234a64.19,64.19,0,0,1-10.64.59c-1.14-.59-8.27,3-9.45,3s-6.5,0-7.68,1.15c-1.15.59-7.68,2.36-5.32,3.54s1.77,3,2.36,3.54c0,.6-2.36,3-2.36,3a15,15,0,0,1-3.54-1.15,9,9,0,0,0-7.68-.59c-1.15.59-3.54,2.36-3,3.54s4.14,3.54,4.73,3,1.78-2.36,3.55-2.36,4.13-1.14,1.77,1.78-4.14,4.14-5.32,4.14-4.73.59-7.68.59-2.95-1.14-5.31,1.78c-3,3-3.55,1.15-4.14,4.14s-1.15,3,0,3.54-2.36,1.14,0,1.78,5.32,1.77,5.32,2.36,3-1.15,1.14,1.14-3,4.14.6,1.78c3-2.36,5.32-.6,7.68-1.78a43.11,43.11,0,0,0,7.09-3c1.78-1.15,2.36-3,4.74-3.55s.59,0,1.14,1.78,0,1.78,1.78.6,1.78,0,3.54-1.78,4.73-3,5.92-1.78a7.85,7.85,0,0,0,3,.6h1.15c2.36,0-1.15-.6,7.09,1.15s10.06.59,10.64,3.54,1.78,0,3,1.77,2.36,0,3,3.55a44.58,44.58,0,0,1-.59,13c-.6,1.15-.6,1.15-.6,3.54s3.54,13.6,2.36,14.78a5.76,5.76,0,0,1-3.54,1.14l-1.14,4.74a38,38,0,0,1-4.14,5.91c-1.78,2.36-4.14,4.74-5.32,6.5A44.59,44.59,0,0,1,150,332c-1.78,1.77-3.54,1.14-3,5.31s0,8.28.6,11.24a22.08,22.08,0,0,0,3,8.27,18.61,18.61,0,0,0,3.54,3c1.78,1.15,4.14,3,4.14,4.14v9.45a12.9,12.9,0,0,1,1.77,5.32,11.38,11.38,0,0,0,2.36,5.91l1.78,3.55s.6,0,1.78,2.36,1.14,2.36,1.14,2.95v.6c0-.6-.59-4.73-.59-5.91-.6-1.15-.6-3-1.15-4.74s0-3.54-1.14-5.91a10.64,10.64,0,0,1-2.37-5.32c-1.14-1.78-1.77-4.73-1.14-5.32,1.14-.59,1.77-4.14,4.14,0s2.36,3,2.95,5.92a9.23,9.23,0,0,0,1.78,5.31c.6,1.15,3,5.92,3.54,7.68,1.15,1.78,0-1.14,2.36,3a33.5,33.5,0,0,1,4.14,7.68c1.15,3,2.36,3,3,5.32s0,1.78,0,4.14a10.23,10.23,0,0,0,.59,5.31s3.54,1.15,4.14,2.37,4.14,2.36,4.73,3c.6,1.15,4.14,2.36,4.14,2.36s3,1.78,4.14,2.36a23.75,23.75,0,0,0,4.14,1.15,24.87,24.87,0,0,0,3,.6h3s2.36-1.78,3-1.15,3-1.15,3.54,0,2.36,1.15,3,2.36,1.77,1.15,3,2.36,3,1.15,4.14,2.36a5,5,0,0,0,4.14,1.15h3c1.14,0,1.77-.6,3,.6s1.78,2.36,3,3.54c.6,1.14,3,1.14,3,3.54s.59,1.78.59,3.54,1.15,3,1.78,3c.6.59,3.54,3,3.54,3l4.14.59,3,2.36,3.54,1.15Z"/><path id="Path_90" data-name="Path 90" class="cls-1" d="M473.91,234.51c2.36-1.78,3-2.36,3.54-4.73s-1.77-3.55.6-8.28,3-.6,10.63-3c7.68-2.95,1.78-5.32,5.32-8.87a16.83,16.83,0,0,1,8.28-5.32c5.32-2.36,0,0-.6-2.95s-4.14,0-7.09-2.36-4.74.59-7.1.59-4.73.6-10.63.6c-5.32-.6-10.64.59-13,0-3-.6-5.32.59-12.41,0s-8.28,3-10.06,1.14-7.09,4.14-13,4.14H417.16c-3.54,0-5.31-3-10.05-4.14A47.79,47.79,0,0,0,396.48,199c-4.74-.59-5.92-1.77-10.64-2.36-4.14-.59-1.78-.59-10.64,1.15s-5.32,1.14-8.27,3.54a41.27,41.27,0,0,1-13.06,1.84L333.24,205s3.54,1.78,2.36,2.36,0,.6,1.78,3,3,2.36,8.28,3,2.36.59,2.36.59a23.7,23.7,0,0,0,5.31,1.78c3,.59,1.15,1.14,7.1-1.78,5.32-3,1.15-.59,3.54,0s0,0,2.36-3,7.1-2.36,11.23-3.54a47.67,47.67,0,0,1,9.46-1.77c1.78-.6,8.28-1.78,13.59-3s-.59,2.36,1.78,3-4.73,3.54-4.73,3.54-5.32-.6-10.64-.6c-5.32.6-.6,3.54,1.15,3s2.95.6,7.09,1.15,3.54,1.77,6.5,4.13,3,1.78,4.73,4.14,1.15,4.14,2.36,7.1a36.81,36.81,0,0,1,1.78,7.09s-1.14,3-2.36,3.54a13.34,13.34,0,0,1-7.68.6c-4.14-.6-.6,4.73,0,7.09a34.09,34.09,0,0,0,1.78,8.28c1.14,1.77,2.36,4.14,4.13,6.5,1.78,1.77,3,1.77,5.32,3.54s7.1-5.92,8.87-8.28c1.78-1.77.6-2.36,3-5.31s4.14-3,13-5.32c8.27-2.36,4.14-3.54,5.32-4.14a35.68,35.68,0,0,1,9.45-3,80.29,80.29,0,0,0,11.82-2.36C471.55,234.51,471.55,236.88,473.91,234.51Z"/><path id="Path_91" data-name="Path 91" class="cls-1" d="M333.83,233.33c2.36-1.15-.6-5.32,8.87-1.78,9.45,3,8.27-.59,10.63,4.14s3.55,8.27,2.37,9.46a10.19,10.19,0,0,1-5.32,3.54c-4.14,1.14-5.32,2.95-3,4.73,3,1.78,8.28,4.14,10.64,5.32s9.45,1.78,5.91-2.36.6-5.32.6-5.32,7.09,5.32,4.13-.6c-2.36-5.91-4.13-5.91-2.36-5.91a12.87,12.87,0,0,1,4.74,1.78l1.77-3-1.77-5.32-5.32-5.32s4.14-4.14-1.78-4.73a12.24,12.24,0,0,1-8.87-3c-3.54-2.36-3.54-3-9.46-1.78s-8.27,1.78-8.27,1.78l-3-3c-1.77,1.78-7.09,4.74-5.32,5.92C330.28,229.78,331.47,234.51,333.83,233.33Z"/><path id="Path_92" data-name="Path 92" class="cls-1" d="M250.5,228.61c1.78,1.14,3.54.59,5.91.59s1.15-.59.6,3,1.78,3,3,4.14c.59,1.14,1.77-.6,5.32.59,3.54.6,1.77.6,5.31-.59,3-1.78,4.74-.6,7.1.59,1.78,1.15,7.09-1.77,11.23-2.36s.6-1.77,2.36-7.68c1.78-5.32-7.09,1.78-9.45.6s-5.32,1.78-7.68.59a31.06,31.06,0,0,1-8.28-5.91c-3-2.36-6.5.6-8.87-1.15s-8.87,4.14-11.23,6.5A10.2,10.2,0,0,1,250.5,228.61Z"/><path id="Path_93" data-name="Path 93" class="cls-1" d="M1073.83,128.66a20.58,20.58,0,0,0-16-6.5L771.8,127.51H770l-221.63-52a28.75,28.75,0,0,0-10,0l-225.8,46.7a2,2,0,0,0-1.14.6H65.5A20.42,20.42,0,0,0,45.24,143.4a18.23,18.23,0,0,0,.17,2.45v583.4A22.22,22.22,0,0,0,51.9,747a22,22,0,0,0,17.74,5.32l256.51-38.42h2.36l203.91,40.2c1.78,0,3,.59,4.74.59h3.54l238.78-34.86h1.76l275.43,33.1a19.43,19.43,0,0,0,16.55-5.92,22.25,22.25,0,0,0,6.5-17.19V145.26A24.8,24.8,0,0,0,1073.83,128.66Zm-6.51,600.59c0,1.78-1.78,3.54-3,5.32a10.09,10.09,0,0,1-5.92,1.78L783,703.24h-6.5L537.74,738.08h-2.36L331.47,697.89c-1.78,0-3-.59-4.74-.59h-3.54L66,735.13a7.24,7.24,0,0,1-6.5-1.78,6.76,6.76,0,0,1-3-5.31V145.27c0-3.54,4.73-5.32,8.28-5.32H310.79c1.78,0,3-1.15,4.73-1.15l225.8-46.69c1.14,0,1.77-.6,2.95,0l221.62,52a18.11,18.11,0,0,0,5.91.59l286.66-5.32a11.49,11.49,0,0,1,5.91,1.78c1.15,1.15,3,3,3,4.73Z"/></g></svg>