<svg id="Layer_1" data-name="Layer 1" xmlns="http://www.w3.org/2000/svg" viewBox="0 0 1125 898"><g id="noun_timer_2965811" data-name="noun timer 2965811"><path id="Path_100" data-name="Path 100" d="M393.22,199l6.39,6.38A8.84,8.84,0,0,0,406,208a9.18,9.18,0,0,0,6.38-2.61,9,9,0,0,0,0-12.68L399.7,180h0L387,167.33A9,9,0,0,0,374.33,180l6.39,6.38L374,193.15a170.65,170.65,0,0,0-105.33-43.72V131h27a9,9,0,1,0,0-18h-72a9,9,0,1,0,0,18h27v18.44a171.19,171.19,0,1,0,135.83,56.31Zm19.34,120.89A152.92,152.92,0,1,1,259.64,167,152.91,152.91,0,0,1,412.56,319.89Z"/><path id="Path_101" data-name="Path 101" d="M361.38,218.16c-.09-.09-.27-.18-.36-.27a143.54,143.54,0,0,0-202.76,0c-.09.09-.27.09-.36.27a1.14,1.14,0,0,1-.27.36,143.54,143.54,0,0,0,0,202.75c.09.09.09.27.27.36a1.22,1.22,0,0,1,.36.27,143.56,143.56,0,0,0,202.76,0c.09-.09.27-.09.36-.27a1.22,1.22,0,0,1,.27-.36,143.54,143.54,0,0,0,0-202.75C361.56,218.34,361.56,218.25,361.38,218.16ZM385.13,328.8a125.16,125.16,0,0,1-30.5,73.49A8.91,8.91,0,0,0,342,414.88a125.38,125.38,0,0,1-73.49,30.5,8.91,8.91,0,0,0-17.81,0,125.16,125.16,0,0,1-73.5-30.5,8.91,8.91,0,0,0-12.59-12.59,125.37,125.37,0,0,1-30.49-73.49,8.91,8.91,0,0,0,0-17.81,125,125,0,0,1,30.49-73.49,8.84,8.84,0,0,0,5.94,2.33,9.22,9.22,0,0,0,6.38-2.6,9,9,0,0,0,.27-12.33,125.39,125.39,0,0,1,73.5-30.49,8.91,8.91,0,0,0,17.81,0A125.15,125.15,0,0,1,342,224.9a8.91,8.91,0,0,0,12.59,12.6A125.35,125.35,0,0,1,385.13,311a8.91,8.91,0,0,0,0,17.81Z"/><path id="Path_102" data-name="Path 102" d="M268.64,294.53V220.94a9,9,0,0,0-18,0v73.59a27,27,0,1,0,18,0Z"/></g><g id="noun_chemex_1025620" data-name="noun chemex 1025620"><path id="Path_98" data-name="Path 98" d="M461.88,725.52a101.32,101.32,0,0,0,17.19,91.7,102.62,102.62,0,0,0,82.53,41.26H934.1a101.07,101.07,0,0,0,82.53-41.26,104.81,104.81,0,0,0,17.19-91.7v-1.14l-81.38-235A25.09,25.09,0,0,0,963.9,479.1a34.57,34.57,0,0,0,4.59-29.8L930.66,340.41l44.7-119.2a36.69,36.69,0,0,0-3.43-31A32.55,32.55,0,0,0,960.46,180L988,107.74a36.66,36.66,0,0,0-3.44-30.95A31.29,31.29,0,0,0,957,63H537.53A37.82,37.82,0,0,0,510,76.79a33.11,33.11,0,0,0-3.44,30.95L534.09,180a32.61,32.61,0,0,0-11.46,10.31,33.11,33.11,0,0,0-3.44,31l44.7,119.2L527.21,449.3a30.7,30.7,0,0,0,4.59,29.8,32.51,32.51,0,0,0,11.46,10.31l-81.38,235ZM585.67,128.37H908.89l-18.34,47H602.86ZM963.9,777.1A38,38,0,0,1,934.1,792H561.6a36.38,36.38,0,0,1-29.8-14.9,37.88,37.88,0,0,1-5.73-33.24l87.11-252.15H884.82l87.11,252.15A46.87,46.87,0,0,1,963.9,777.1ZM630.37,350.73a39,39,0,0,0,0-22.93l-32.09-86h298l-32.09,86a39,39,0,0,0,0,22.93l26.36,76.79H604Z"/><path id="Path_99" data-name="Path 99" d="M873.35,604H621.2L577.64,729A13.76,13.76,0,0,0,591.4,747.3H903.16a14.68,14.68,0,0,0,14.2-15.16,14.18,14.18,0,0,0-.45-3.18Z"/></g></svg>