<svg id="Layer_1" data-name="Layer 1" xmlns="http://www.w3.org/2000/svg" viewBox="0 0 1125 2123"><g id="noun_Roaster_Coffee_1565932" data-name="noun Roaster Coffee 1565932"><path id="Path_95" data-name="Path 95" d="M1016,1528.16c0-48.44-66-79.2-151.85-98L785.7,1201c132.71-108.8,152.1-304.57,43.3-437.28a310.59,310.59,0,0,0-123.25-90.84V532.23a29.37,29.37,0,0,0-29.37-29.37h-5.33V394.11L860.51,245.77h.15A29.35,29.35,0,0,0,890,216.46V121.37A29.37,29.37,0,0,0,860.66,92H316.35A29.37,29.37,0,0,0,287,121.37h0v95.06a29.35,29.35,0,0,0,29.34,29.34h.21L506,394.11V441H460V430.9a26.56,26.56,0,0,0-.45-2.67,38.54,38.54,0,1,0-57.52,0c0,1-.58,1.85-.58,2.85v39.36a29.36,29.36,0,0,0,29.37,29.36h75.26v3h-5.33a29.37,29.37,0,0,0-29.36,29.37h0V672.89A309.56,309.56,0,0,0,285.8,1030.13H138.36A29.37,29.37,0,0,0,109,1059.5h0v52a29.37,29.37,0,0,0,58.74.07v-22.74H305.48A312.79,312.79,0,0,0,391.31,1201L312.9,1430.16C227,1448.93,161,1479.75,161,1528.13c0,.87.42,1.69.45,2.54s-.45,1.45-.45,2.21V1906c0,97.76,268.72,123.79,427.51,123.79S1016,2003.69,1016,1905.93v-373c0-.76-.4-1.45-.46-2.21S1016,1529,1016,1528.16ZM647,561.44V866.92H530V561.44ZM345.72,150.88H831.33v36.33H345.72Zm419.46,95L631.6,350.4H545.41L411.84,245.92ZM564.66,409.13h47.69V503H564.66Zm23.86,621H346.32A251.29,251.29,0,0,1,471.39,737.52V896.26a29.36,29.36,0,0,0,29.36,29.36H676.53a29.36,29.36,0,0,0,29.37-29.36h0V737.52C829.3,802,877,954.37,812.54,1077.77s-216.85,171.15-340.25,106.64a252.15,252.15,0,0,1-100.57-95.7H588.55a29.37,29.37,0,1,0,1.89-58.7q-.95,0-1.89,0ZM441.84,1234.82a309.87,309.87,0,0,0,293.39,0l62.89,183.56a1563.58,1563.58,0,0,0-419.13,0ZM588.52,1463c219.56,0,351.19,40.78,368,65.09-16.86,24.22-148.34,65.06-368,65.06a1092.84,1092.84,0,0,1-314.22-37.57,14,14,0,0,0-2.09-.64,114.4,114.4,0,0,1-51.8-26.85C237.33,1503.82,368.94,1463,588.52,1463Zm0,508c-225.4,0-358.12-43-368.81-65.09V1595.91c4.33,2.09,8.63,4.18,13.29,6.06v156.88a29.37,29.37,0,0,0,58.73,0V1621.07A1323.64,1323.64,0,0,0,588.43,1652c112.9,0,280.86-13.32,368.84-56.07l.24,308.23C946.64,1928.12,813.8,1971.08,588.52,1971.08Z"/><circle id="Ellipse_1" data-name="Ellipse 1" cx="588.52" cy="960.83" r="30.49"/><path id="Path_96" data-name="Path 96" d="M262.4,1804.87A29.37,29.37,0,0,0,233,1834.24h0v27.49a29.37,29.37,0,0,0,58.74,0v-27.49A29.37,29.37,0,0,0,262.4,1804.87Z"/></g></svg>