<svg height='100px' width='100px'  fill="#000000" xmlns="http://www.w3.org/2000/svg" xmlns:xlink="http://www.w3.org/1999/xlink" viewBox="0 0 100 100" version="1.1" x="0px" y="0px"><title>36</title><desc>Created with Sketch.</desc><g stroke="none" stroke-width="1" fill="none" fill-rule="evenodd"><g fill="#000000"><path d="M9.83307241,50 C9.83307241,41.3043137 12.5367906,33.0888235 17.6667319,26.1519608 L19.9093933,29.7623529 C16.2320939,35.2047059 14.1452055,41.4439216 13.8,48.0392157 L18.5851272,48.0392157 C19.6657534,48.0392157 20.5420744,48.9170588 20.5420744,50 C20.5420744,51.0829412 19.6657534,51.9607843 18.5851272,51.9607843 L13.8001957,51.9607843 C14.7857143,70.3782353 29.5636008,85.1852941 47.9452055,86.172549 L47.9452055,81.3786275 C47.9452055,80.2956863 48.8213307,79.4178431 49.9021526,79.4178431 C50.9827789,79.4178431 51.8590998,80.2956863 51.8590998,81.3786275 L51.8590998,86.1729412 C58.4418787,85.8270588 64.6686888,83.7360784 70.1001957,80.0513725 L73.7035225,82.2986275 L73.7035225,82.2986275 C66.7804305,87.4384314 58.5812133,90.1476471 49.9021526,90.1476471 C27.8080235,90.1476471 9.83307241,72.137451 9.83307241,50 L9.83307241,50 Z M82.1377691,73.8480392 L79.8949119,70.2376471 C83.572407,64.7954902 85.6589041,58.5562745 86.0041096,51.9607843 L81.2191781,51.9607843 C80.1385519,51.9607843 79.2622309,51.0829412 79.2622309,50 C79.2622309,48.9170588 80.1385519,48.0392157 81.2191781,48.0392157 L86.0037182,48.0392157 C85.0183953,29.6217647 70.2405088,14.8147059 51.8590998,13.8276471 L51.8590998,18.6215686 C51.8590998,19.7045098 50.9827789,20.5823529 49.9021526,20.5823529 C48.8213307,20.5823529 47.9452055,19.7045098 47.9452055,18.6215686 L47.9452055,13.8272549 C41.3626223,14.1731373 35.1356164,16.2639216 29.7041096,19.9486275 L26.1007828,17.7013725 C33.0240705,12.5615686 41.2232877,9.85235294 49.9021526,9.85235294 C71.9962818,9.85235294 89.9712329,27.862549 89.9712329,50 C89.9712329,58.6958824 87.267319,66.9113725 82.1377691,73.8480392 L82.1377691,73.8480392 Z M25.1831703,21.7484314 C25.1829746,21.7482353 25.1829746,21.7482353 25.1827789,21.7480392 L22.5354207,20.0970588 L25.1831703,21.7484314 Z M40.0393346,31.0131373 L57.7986301,42.0882353 L61.5117417,48.0658824 L83.5454012,83.5358824 C83.5457926,83.5364706 83.546184,83.5370588 83.5465753,83.5376471 L78.0988258,74.7678431 C78.0982387,74.7670588 78.0978474,74.7662745 78.0972603,74.7654902 L83.8307241,83.994902 L42.0056751,57.9117647 L21.507045,24.9127451 L21.6389432,25.124902 L15.9737769,16.005098 L16.4313112,16.2903922 L16.4318982,16.2907843 L40.0393346,31.0131373 Z M0,50 C0,63.3554902 5.19060665,75.9115686 14.6158513,85.3552941 C24.0412916,94.7990196 36.5727984,100 49.9021526,100 C61.9436399,100 73.4755382,95.6815686 82.5455969,87.812549 L88.9011742,91.7762745 C89.2203523,91.9752941 89.5786693,92.0723529 89.934638,92.0723529 C90.4403131,92.0723529 90.9414873,91.8764706 91.3191781,91.4980392 C91.9624266,90.8533333 92.0776908,89.8494118 91.5966732,89.0754902 L87.6409002,82.7072549 C95.4943249,73.6196078 99.8043053,62.0652941 99.8043053,50 C99.8043053,36.6445098 94.6136986,24.0884314 85.1882583,14.6447059 C75.7630137,5.20098039 63.2315068,0 49.9021526,0 C37.8604697,0 26.3287671,4.31843137 17.2587084,12.1872549 L10.9033268,8.22372549 C10.1307241,7.74215686 9.12876712,7.8572549 8.4853229,8.50196078 C7.84207436,9.14666667 7.72700587,10.1505882 8.20763209,10.9245098 L12.1634051,17.292549 C4.30978474,26.3801961 0,37.9347059 0,50 L0,50 Z M54.103092,45.7999608 C56.4169863,48.1185882 56.4169863,51.8915294 54.103092,54.2101569 C52.9459491,55.3695686 51.4259883,55.9491765 49.9060274,55.9491765 C48.3860665,55.9491765 46.8663014,55.3695686 45.7089628,54.2101569 C44.5880235,53.0870196 43.9706067,51.5934902 43.9706067,50.0050588 C43.9706067,48.4166275 44.5880235,46.923098 45.7089628,45.7999608 C48.0234442,43.4811373 51.7888063,43.4813333 54.103092,45.7999608"></path></g></g></svg>