<svg height='100px' width='100px'  fill="#000000" xmlns:dc="http://purl.org/dc/elements/1.1/" xmlns:cc="http://creativecommons.org/ns#" xmlns:rdf="http://www.w3.org/1999/02/22-rdf-syntax-ns#" xmlns:svg="http://www.w3.org/2000/svg" xmlns="http://www.w3.org/2000/svg" xmlns:sodipodi="http://sodipodi.sourceforge.net/DTD/sodipodi-0.dtd" xmlns:inkscape="http://www.inkscape.org/namespaces/inkscape" version="1.1" x="0px" y="0px" viewBox="0 0 97.8 97.8" enable-background="new 0 0 97.8 97.8" xml:space="preserve"><g transform="matrix(0,1.0625461,1.0625461,0,110.54725,4.8219581)" style="" fill="#000000"><path style="" d="m 23.037051,-42.899006 c 0,-1.202838 -0.975206,-2.178545 -2.179046,-2.178545 -1.203338,0 -2.178544,0.975707 -2.178544,2.178545 0,1.203338 0.975206,2.179044 2.178544,2.179044 1.20384,0 2.179046,-0.975706 2.179046,-2.179044 m 0,5.292032 c 0,-1.203337 -0.975206,-2.179045 -2.179046,-2.179045 -1.203338,0 -2.178544,0.975708 -2.178544,2.179045 0,1.203339 0.975206,2.179548 2.178544,2.179548 1.20384,0 2.179046,-0.976209 2.179046,-2.179548 m 0,5.292034 c 0,-1.203339 -0.975206,-2.179045 -2.179046,-2.179045 -1.203338,0 -2.178544,0.975706 -2.178544,2.179045 0,1.203339 0.975206,2.179045 2.178544,2.179045 1.20384,0 2.179046,-0.975706 2.179046,-2.179045 M 45.5061,-53.517245 c 0,-1.203338 -0.975707,-2.178544 -2.179045,-2.178544 -1.203338,0 -2.179046,0.975206 -2.179046,2.178544 0,1.20384 0.975708,2.179046 2.179046,2.179046 1.203338,0 2.179045,-0.975206 2.179045,-2.179046 m 5.602944,5.292035 c 0,-1.203339 -0.975206,-2.179047 -2.179045,-2.179047 -1.203339,0 -2.178545,0.975708 -2.178545,2.179047 0,1.203338 0.975206,2.179546 2.178545,2.179546 1.203839,0 2.179045,-0.976208 2.179045,-2.179546 m -5.602944,0 c 0,-1.203339 -0.975707,-2.179047 -2.179045,-2.179047 -1.203338,0 -2.179046,0.975708 -2.179046,2.179047 0,1.203338 0.975708,2.179546 2.179046,2.179546 1.203338,0 2.179045,-0.976208 2.179045,-2.179546 m 11.206391,5.291777 c 0,-1.202837 -0.975206,-2.178545 -2.179046,-2.178545 -1.203841,0 -2.179046,0.975708 -2.179046,2.178545 0,1.203338 0.975205,2.179044 2.179046,2.179044 1.20384,0 2.179046,-0.975706 2.179046,-2.179044 m -5.603447,0 c 0,-1.202837 -0.975206,-2.178545 -2.179045,-2.178545 -1.203339,0 -2.178545,0.975708 -2.178545,2.178545 0,1.203338 0.975206,2.179044 2.178545,2.179044 1.203839,0 2.179045,-0.975706 2.179045,-2.179044 m -5.602944,0 c 0,-1.202837 -0.975707,-2.178545 -2.179045,-2.178545 -1.203338,0 -2.179046,0.975708 -2.179046,2.178545 0,1.203338 0.975708,2.179044 2.179046,2.179044 1.203338,0 2.179045,-0.975706 2.179045,-2.179044 m -5.603445,0 c 0,-1.202837 -0.975206,-2.178545 -2.179046,-2.178545 -1.203338,0 -2.179046,0.975708 -2.179046,2.178545 0,1.203338 0.975708,2.179044 2.179046,2.179044 1.20384,0 2.179046,-0.975706 2.179046,-2.179044 m -5.603446,0 c 0,-1.202837 -0.975205,-2.178545 -2.179045,-2.178545 -1.203339,0 -2.178544,0.975708 -2.178544,2.178545 0,1.203338 0.975205,2.179044 2.178544,2.179044 1.20384,0 2.179045,-0.975706 2.179045,-2.179044 m -5.602944,0 c 0,-1.202837 -0.975206,-2.178545 -2.179046,-2.178545 -1.203338,0 -2.178544,0.975708 -2.178544,2.178545 0,1.203338 0.975206,2.179044 2.178544,2.179044 1.20384,0 2.179046,-0.975706 2.179046,-2.179044 m 33.619171,5.292032 c 0,-1.203337 -0.975205,-2.179044 -2.179046,-2.179044 -1.203338,0 -2.178543,0.975707 -2.178543,2.179044 0,1.203339 0.975205,2.179548 2.178543,2.179548 1.203841,0 2.179046,-0.976209 2.179046,-2.179548 m -5.602945,0 c 0,-1.203337 -0.975206,-2.179044 -2.179046,-2.179044 -1.203841,0 -2.179046,0.975707 -2.179046,2.179044 0,1.203339 0.975205,2.179548 2.179046,2.179548 1.20384,0 2.179046,-0.976209 2.179046,-2.179548 m -5.603447,0 c 0,-1.203337 -0.975206,-2.179044 -2.179045,-2.179044 -1.203339,0 -2.178545,0.975707 -2.178545,2.179044 0,1.203339 0.975206,2.179548 2.178545,2.179548 1.203839,0 2.179045,-0.976209 2.179045,-2.179548 m -5.602944,0 c 0,-1.203337 -0.975707,-2.179044 -2.179045,-2.179044 -1.203338,0 -2.179046,0.975707 -2.179046,2.179044 0,1.203339 0.975708,2.179548 2.179046,2.179548 1.203338,0 2.179045,-0.976209 2.179045,-2.179548 m -5.603445,0 c 0,-1.203337 -0.975206,-2.179044 -2.179046,-2.179044 -1.203338,0 -2.179046,0.975707 -2.179046,2.179044 0,1.203339 0.975708,2.179548 2.179046,2.179548 1.20384,0 2.179046,-0.976209 2.179046,-2.179548 m -5.603446,0 c 0,-1.203337 -0.975205,-2.179044 -2.179045,-2.179044 -1.203339,0 -2.178544,0.975707 -2.178544,2.179044 0,1.203339 0.975205,2.179548 2.178544,2.179548 1.20384,0 2.179045,-0.976209 2.179045,-2.179548 m -5.602944,0 c 0,-1.203337 -0.975206,-2.179044 -2.179046,-2.179044 -1.203338,0 -2.178544,0.975707 -2.178544,2.179044 0,1.203339 0.975206,2.179548 2.178544,2.179548 1.20384,0 2.179046,-0.976209 2.179046,-2.179548 m 28.016226,5.292035 c 0,-1.203339 -0.975206,-2.179046 -2.179046,-2.179046 -1.203841,0 -2.179046,0.975707 -2.179046,2.179046 0,1.203338 0.975205,2.179044 2.179046,2.179044 1.20384,0 2.179046,-0.975706 2.179046,-2.179044 m -5.603447,0 c 0,-1.203339 -0.975206,-2.179046 -2.179045,-2.179046 -1.203339,0 -2.178545,0.975707 -2.178545,2.179046 0,1.203338 0.975206,2.179044 2.178545,2.179044 1.203839,0 2.179045,-0.975706 2.179045,-2.179044 m -5.602944,0 c 0,-1.203339 -0.975707,-2.179046 -2.179045,-2.179046 -1.203338,0 -2.179046,0.975707 -2.179046,2.179046 0,1.203338 0.975708,2.179044 2.179046,2.179044 1.203338,0 2.179045,-0.975706 2.179045,-2.179044 m -5.603445,0 c 0,-1.203339 -0.975206,-2.179046 -2.179046,-2.179046 -1.203338,0 -2.179046,0.975707 -2.179046,2.179046 0,1.203338 0.975708,2.179044 2.179046,2.179044 1.20384,0 2.179046,-0.975706 2.179046,-2.179044 m -5.603446,0 c 0,-1.203339 -0.975205,-2.179046 -2.179045,-2.179046 -1.203339,0 -2.178544,0.975707 -2.178544,2.179046 0,1.203338 0.975205,2.179044 2.178544,2.179044 1.20384,0 2.179045,-0.975706 2.179045,-2.179044 m -5.602944,0 c 0,-1.203339 -0.975206,-2.179046 -2.179046,-2.179046 -1.203338,0 -2.178544,0.975707 -2.178544,2.179046 0,1.203338 0.975206,2.179044 2.178544,2.179044 1.20384,0 2.179046,-0.975706 2.179046,-2.179044 m 22.412779,5.291781 c 0,-1.203339 -0.975206,-2.179046 -2.179045,-2.179046 -1.203339,0 -2.178545,0.975707 -2.178545,2.179046 0,1.203338 0.975206,2.179546 2.178545,2.179546 1.203839,0 2.179045,-0.976208 2.179045,-2.179546 m -5.602944,0 c 0,-1.203339 -0.975707,-2.179046 -2.179045,-2.179046 -1.203338,0 -2.179046,0.975707 -2.179046,2.179046 0,1.203338 0.975708,2.179546 2.179046,2.179546 1.203338,0 2.179045,-0.976208 2.179045,-2.179546 m 0,5.291777 c 0,-1.202838 -0.975707,-2.179046 -2.179045,-2.179046 -1.203338,0 -2.179046,0.976208 -2.179046,2.179046 0,1.203339 0.975708,2.179045 2.179046,2.179045 1.203338,0 2.179045,-0.975706 2.179045,-2.179045 M 23.015755,-82.052945 c 0,-1.202837 -0.975206,-2.178544 -2.179046,-2.178544 -1.203338,0 -2.178543,0.975707 -2.178543,2.178544 0,1.203338 0.975205,2.179046 2.178543,2.179046 1.20384,0 2.179046,-0.975708 2.179046,-2.179046 m 0,5.292032 c 0,-1.203337 -0.975206,-2.179043 -2.179046,-2.179043 -1.203338,0 -2.178543,0.975706 -2.178543,2.179043 0,1.203339 0.975205,2.179548 2.178543,2.179548 1.20384,0 2.179046,-0.976209 2.179046,-2.179548 m 0,5.292035 c 0,-1.203339 -0.975206,-2.179046 -2.179046,-2.179046 -1.203338,0 -2.178543,0.975707 -2.178543,2.179046 0,1.203338 0.975205,2.179045 2.178543,2.179045 1.20384,0 2.179046,-0.975707 2.179046,-2.179045 m 22.46905,-21.202306 c 0,-1.203342 -0.975708,-2.178547 -2.179047,-2.178547 -1.203337,0 -2.179045,0.975205 -2.179045,2.178547 0,1.203839 0.975708,2.179045 2.179045,2.179045 1.203339,0 2.179047,-0.975206 2.179047,-2.179045 m 5.602943,5.292035 c 0,-1.203338 -0.975205,-2.179043 -2.179045,-2.179043 -1.203338,0 -2.178544,0.975705 -2.178544,2.179043 0,1.203338 0.975206,2.179547 2.178544,2.179547 1.20384,0 2.179045,-0.976209 2.179045,-2.179547 m -5.602943,0 c 0,-1.203338 -0.975708,-2.179043 -2.179047,-2.179043 -1.203337,0 -2.179045,0.975705 -2.179045,2.179043 0,1.203338 0.975708,2.179547 2.179045,2.179547 1.203339,0 2.179047,-0.976209 2.179047,-2.179547 m 11.206389,5.291777 c 0,-1.202837 -0.975206,-2.178544 -2.179046,-2.178544 -1.203841,0 -2.179045,0.975707 -2.179045,2.178544 0,1.203339 0.975204,2.179046 2.179045,2.179046 1.20384,0 2.179046,-0.975707 2.179046,-2.179046 m -5.603446,0 c 0,-1.202837 -0.975205,-2.178544 -2.179045,-2.178544 -1.203338,0 -2.178544,0.975707 -2.178544,2.178544 0,1.203339 0.975206,2.179046 2.178544,2.179046 1.20384,0 2.179045,-0.975707 2.179045,-2.179046 m -5.602943,0 c 0,-1.202837 -0.975708,-2.178544 -2.179047,-2.178544 -1.203337,0 -2.179045,0.975707 -2.179045,2.178544 0,1.203339 0.975708,2.179046 2.179045,2.179046 1.203339,0 2.179047,-0.975707 2.179047,-2.179046 m -5.603447,0 c 0,-1.202837 -0.975205,-2.178544 -2.179046,-2.178544 -1.203338,0 -2.179045,0.975707 -2.179045,2.178544 0,1.203339 0.975707,2.179046 2.179045,2.179046 1.203841,0 2.179046,-0.975707 2.179046,-2.179046 m -5.603445,0 c 0,-1.202837 -0.975205,-2.178544 -2.179045,-2.178544 -1.203339,0 -2.178545,0.975707 -2.178545,2.178544 0,1.203339 0.975206,2.179046 2.178545,2.179046 1.20384,0 2.179045,-0.975707 2.179045,-2.179046 m -5.602945,0 c 0,-1.202837 -0.975205,-2.178544 -2.179045,-2.178544 -1.203339,0 -2.178545,0.975707 -2.178545,2.178544 0,1.203339 0.975206,2.179046 2.178545,2.179046 1.20384,0 2.179045,-0.975707 2.179045,-2.179046 m 33.619173,5.292033 c 0,-1.203338 -0.975206,-2.179044 -2.179047,-2.179044 -1.203338,0 -2.178543,0.975706 -2.178543,2.179044 0,1.203339 0.975205,2.179547 2.178543,2.179547 1.203841,0 2.179047,-0.976208 2.179047,-2.179547 m -5.602947,0 c 0,-1.203338 -0.975206,-2.179044 -2.179046,-2.179044 -1.203841,0 -2.179045,0.975706 -2.179045,2.179044 0,1.203339 0.975204,2.179547 2.179045,2.179547 1.20384,0 2.179046,-0.976208 2.179046,-2.179547 m -5.603446,0 c 0,-1.203338 -0.975205,-2.179044 -2.179045,-2.179044 -1.203338,0 -2.178544,0.975706 -2.178544,2.179044 0,1.203339 0.975206,2.179547 2.178544,2.179547 1.20384,0 2.179045,-0.976208 2.179045,-2.179547 m -5.602943,0 c 0,-1.203338 -0.975708,-2.179044 -2.179047,-2.179044 -1.203337,0 -2.179045,0.975706 -2.179045,2.179044 0,1.203339 0.975708,2.179547 2.179045,2.179547 1.203339,0 2.179047,-0.976208 2.179047,-2.179547 m -5.603447,0 c 0,-1.203338 -0.975205,-2.179044 -2.179046,-2.179044 -1.203338,0 -2.179045,0.975706 -2.179045,2.179044 0,1.203339 0.975707,2.179547 2.179045,2.179547 1.203841,0 2.179046,-0.976208 2.179046,-2.179547 m -5.603445,0 c 0,-1.203338 -0.975205,-2.179044 -2.179045,-2.179044 -1.203339,0 -2.178545,0.975706 -2.178545,2.179044 0,1.203339 0.975206,2.179547 2.178545,2.179547 1.20384,0 2.179045,-0.976208 2.179045,-2.179547 m -5.602945,0 c 0,-1.203338 -0.975205,-2.179044 -2.179045,-2.179044 -1.203339,0 -2.178545,0.975706 -2.178545,2.179044 0,1.203339 0.975206,2.179547 2.178545,2.179547 1.20384,0 2.179045,-0.976208 2.179045,-2.179547 m 28.016226,5.292034 c 0,-1.203339 -0.975206,-2.179046 -2.179046,-2.179046 -1.203841,0 -2.179045,0.975707 -2.179045,2.179046 0,1.203338 0.975204,2.179045 2.179045,2.179045 1.20384,0 2.179046,-0.975707 2.179046,-2.179045 m -5.603446,0 c 0,-1.203339 -0.975205,-2.179046 -2.179045,-2.179046 -1.203338,0 -2.178544,0.975707 -2.178544,2.179046 0,1.203338 0.975206,2.179045 2.178544,2.179045 1.20384,0 2.179045,-0.975707 2.179045,-2.179045 m -5.602943,0 c 0,-1.203339 -0.975708,-2.179046 -2.179047,-2.179046 -1.203337,0 -2.179045,0.975707 -2.179045,2.179046 0,1.203338 0.975708,2.179045 2.179045,2.179045 1.203339,0 2.179047,-0.975707 2.179047,-2.179045 m -5.603447,0 c 0,-1.203339 -0.975205,-2.179046 -2.179046,-2.179046 -1.203338,0 -2.179045,0.975707 -2.179045,2.179046 0,1.203338 0.975707,2.179045 2.179045,2.179045 1.203841,0 2.179046,-0.975707 2.179046,-2.179045 m -5.603445,0 c 0,-1.203339 -0.975205,-2.179046 -2.179045,-2.179046 -1.203339,0 -2.178545,0.975707 -2.178545,2.179046 0,1.203338 0.975206,2.179045 2.178545,2.179045 1.20384,0 2.179045,-0.975707 2.179045,-2.179045 m -5.602945,0 c 0,-1.203339 -0.975205,-2.179046 -2.179045,-2.179046 -1.203339,0 -2.178545,0.975707 -2.178545,2.179046 0,1.203338 0.975206,2.179045 2.178545,2.179045 1.20384,0 2.179045,-0.975707 2.179045,-2.179045 m 22.41278,5.291781 c 0,-1.203339 -0.975205,-2.179045 -2.179045,-2.179045 -1.203338,0 -2.178544,0.975706 -2.178544,2.179045 0,1.203339 0.975206,2.179547 2.178544,2.179547 1.20384,0 2.179045,-0.976208 2.179045,-2.179547 m -5.602943,0 c 0,-1.203339 -0.975708,-2.179045 -2.179047,-2.179045 -1.203337,0 -2.179045,0.975706 -2.179045,2.179045 0,1.203339 0.975708,2.179547 2.179045,2.179547 1.203339,0 2.179047,-0.976208 2.179047,-2.179547 m 0,5.291778 c 0,-1.202837 -0.975708,-2.179046 -2.179047,-2.179046 -1.203337,0 -2.179045,0.976209 -2.179045,2.179046 0,1.203338 0.975708,2.179045 2.179045,2.179045 1.203339,0 2.179047,-0.975707 2.179047,-2.179045" fill="#000000" fill-opacity="1" fill-rule="nonzero" stroke="none"></path></g></svg>