<svg height='100px' width='100px'  fill="#000000" xmlns="http://www.w3.org/2000/svg" data-name="Layer 1" viewBox="0 0 100 100" x="0px" y="0px"><title>Noun_Project_50Icon_5px_grid - coffee line</title><path d="M71.47,31.52C67.8,16.76,60.28,8,60,7.59a1.47,1.47,0,0,0-1.46-.48L30.39,13.42a2,2,0,0,0-.34.12,4.42,4.42,0,0,0-2.29,3.3c-.27,2.09.93,4.42,3.56,6.94-2,4.45-4.4,12.49-4.89,26.17-.83,23.45-.74,33.41-.74,33.51a1.27,1.27,0,0,0,.09.47.54.54,0,0,0,0,.11,1.65,1.65,0,0,0,.22.36l.05.07s0,0,0,0a1.6,1.6,0,0,0,.42.3h0l17.64,8,.13,0,.07,0h0a1.49,1.49,0,0,0,.36.05h0a1.63,1.63,0,0,0,.31,0l.06,0,.1,0,.14,0L73.32,80.45a1.53,1.53,0,0,0,.89-1.33C74.25,77.78,75.1,46.14,71.47,31.52ZM35.22,22.77a49.55,49.55,0,0,1,4.71,11.11c-2,1.2-4.74,4.81-4.67,15.67A1.5,1.5,0,0,0,36.76,51h0a1.52,1.52,0,0,0,1.49-1.51c0-7.5,1.36-11,2.54-12.41.22.94.43,1.92.61,2.93,2.55,13.87,2.4,34.87,2.14,45.17L38.26,74.09V62.91a1.5,1.5,0,0,0-3,0V73.78L28.7,80c0-4.68.18-14.28.73-29.91C30,33.6,33.41,25.8,35.22,22.77Zm1.07,54.16,5.44,11.45L29.85,83Zm34.94,1.16-24.79,11c.29-7.91.93-33.18-2.08-49.57C42.29,28.23,38,21.07,35.55,17.8l-.35-.46a1.5,1.5,0,1,0-2.38,1.82l.31.42c.1.14.21.28.31.43-.19.27-.42.6-.66,1-2-2.06-2.1-3.28-2.05-3.75a1.41,1.41,0,0,1,.56-1l27-6a61.3,61.3,0,0,1,10.32,22C71.75,45.09,71.34,72.65,71.23,78.09ZM67.68,42.38a1.49,1.49,0,0,0-1.25-.19l-18.2,5.34a1.49,1.49,0,0,0-1,1.74c0,.09,1.82,9.3,1.64,31.47a1.51,1.51,0,0,0,1.5,1.51,1.55,1.55,0,0,0,.56-.11L68.7,74.9a1.49,1.49,0,0,0,.93-1.36,264.33,264.33,0,0,0-1.29-30.08A1.49,1.49,0,0,0,67.68,42.38Zm-1,30.12-14.82,6c0-16.51-1-25.32-1.48-28.49l15.21-4.46C66.69,56.58,66.68,69,66.65,72.5ZM58.79,60.61a14.41,14.41,0,0,0-3.21,6.12s0,0,0,0h0c-1.68-1.51-2.06-4.52-.92-7.32a8,8,0,0,1,3-3.77A4.36,4.36,0,0,1,61.47,55l0,0A11.65,11.65,0,0,1,58.79,60.61Zm3.87-4.89c1.72,1.51,2.12,4.53,1,7.36a8.09,8.09,0,0,1-3,3.78,4.85,4.85,0,0,1-2.6.83,3.84,3.84,0,0,1-1.26-.22s0,0,0,0a12.35,12.35,0,0,1,3-6,13.43,13.43,0,0,0,2.86-5.66h0Z"></path></svg>