<?xml version="1.0" encoding="utf-8"?>
<!-- Generator: Adobe Illustrator 23.1.1, SVG Export Plug-In . SVG Version: 6.00 Build 0)  -->
<svg version="1.1" id="Layer_1" xmlns="http://www.w3.org/2000/svg" xmlns:xlink="http://www.w3.org/1999/xlink" x="0px" y="0px"
	 viewBox="0 0 100 100" style="enable-background:new 0 0 100 100;" xml:space="preserve">
<g>
	<g>
		<g>
			<path d="M80.5,71c2.5-4.5,2.6-9,0.4-12.2c-2.4-2.8-8.6-0.4-11.9,1.3c-0.4,0.2-0.7,0.6-0.7,1.1c-0.4,4.9-1,11.7-2.1,17.6
				c-0.2,0.9,0.6,1.7,1.5,1.6C73.6,79.6,78,75.5,80.5,71z M11.9,49.1c0-6.2,25.6-6.4,28.5-6.4s28.5,0.2,28.5,6.4c0,0.7,0,1.5,0,2.3
				c0,1.1,0.9,2.4,2.1,1.8l0,0c6.5-3.1,11-2,14.3,2.1l0.1,0.1c3.6,5,3.6,11.8,0,18.3c-1.7,3.1-4.3,6.1-7.6,8.4
				c-3.3,2.4-7.2,4-11.5,4.4c-1.5,0.5-2.7,1.8-3.5,2.9c-0.2,0.3-0.4,0.7-0.6,0.9C62,90.8,61.9,91,61.9,91c-0.8,1.3-2.9,2.3-6.9,3
				s-9.1,1.1-14.7,1.1S29.7,94.7,25.7,94c-4.3-0.8-6.5-1.8-7-3.4C13.2,84,11.9,54.4,11.9,49.1z M40.4,45.6
				c-11.1,0-18.6,1.1-22.6,2.3c-1.3,0.4-1.3,2.2,0,2.6c3.9,1.1,11.4,2.3,22.6,2.3S59,51.6,63,50.4c1.3-0.4,1.3-2.2,0-2.6
				C59,46.7,51.5,45.6,40.4,45.6z"/>
		</g>
	</g>
</g>
</svg>
