<svg height='100px' width='100px'  fill="#000000" xmlns="http://www.w3.org/2000/svg" viewBox="0 0 95.96 95.95" x="0px" y="0px"><title>cancel</title><g data-name="Layer 2"><g><path d="M81.92,14a48,48,0,1,0,0,67.88A48.06,48.06,0,0,0,81.92,14ZM79.8,79.8a45,45,0,1,1,0-63.64A45.06,45.06,0,0,1,79.8,79.8Z"></path><path d="M63.65,32.3a1.5,1.5,0,0,0-2.12,0L48,45.86,34.42,32.3a1.5,1.5,0,0,0-2.12,2.12L45.86,48,32.3,61.53a1.5,1.5,0,1,0,2.12,2.12L48,50.1,61.53,63.65a1.5,1.5,0,0,0,2.12-2.12L50.1,48,63.65,34.42A1.5,1.5,0,0,0,63.65,32.3Z"></path></g></g></svg>