<svg height='100px' width='100px'  fill="#000000" xmlns="http://www.w3.org/2000/svg" viewBox="0 0 100 100" x="0px" y="0px"><title>Creator Icon_18</title><path d="M21.70508,69.46973a1,1,0,0,0,0,2h4.03613V82.7085a1,1,0,0,0,1,1H78.29492a1,1,0,0,0,1-1V17.2915a1,1,0,0,0-1-1H26.74121a1,1,0,0,0-1,1V28.53027H21.70508a1,1,0,0,0,0,2h4.03613v8.23486H21.70508a1,1,0,0,0,0,2h4.03613V49H21.70508a1,1,0,0,0,0,2h4.03613v8.23486H21.70508a1,1,0,0,0,0,2h4.03613v8.23486ZM77.29492,81.7085H72.22974V18.2915h5.06519ZM27.74121,61.23486h4.03613a1,1,0,0,0,0-2H27.74121V51h4.03613a1,1,0,0,0,0-2H27.74121V40.76514h4.03613a1,1,0,0,0,0-2H27.74121V30.53027h4.03613a1,1,0,0,0,0-2H27.74121V18.2915H63.13208v63.417H27.74121V71.46973h4.03613a1,1,0,0,0,0-2H27.74121Z"></path></svg>