<svg height='100px' width='100px'  fill="#000000" xmlns="http://www.w3.org/2000/svg" data-name="Layer 17" viewBox="0 0 100 100" x="0px" y="0px"><title>Artboard 1</title><path d="M77.94,53.32A3.34,3.34,0,0,0,81,51H94V50H81a2.86,2.86,0,0,0-3-2.82,3,3,0,0,0-1.54.3L65.73,38.3A3.21,3.21,0,0,0,66,37.15a3.09,3.09,0,0,0-.58-1.8l16-16.05-.71-.71-16,16a3,3,0,0,0-2.51-.48L52.29,19.23a2.9,2.9,0,0,0,.66-1.83A3,3,0,0,0,50,14.27V6H49v8.4a3,3,0,0,0-2.18,3A3.5,3.5,0,0,0,47,18.45L33.35,29.18a2.94,2.94,0,0,0-1.63-.5,3,3,0,0,0-1.76.58L19.28,18.58l-.7.71L29.24,29.95a3.08,3.08,0,0,0-.61,1.78,2.9,2.9,0,0,0,.64,1.92L19.75,47.31a1.94,1.94,0,0,0-.66-.13A2.9,2.9,0,0,0,16,50H6v1H16.07a3.11,3.11,0,0,0,3,2.32,3.22,3.22,0,0,0,2.09-.86l14.51,8.16a4.66,4.66,0,0,0-.09.69,3.22,3.22,0,0,0,.58,1.84L18.58,80.72l.71.7L36.87,63.84a3.52,3.52,0,0,0,1.93.56,3.73,3.73,0,0,0,.8-.15L47.51,77A2.62,2.62,0,0,0,47,78.78,3.09,3.09,0,0,0,49,81.67L49,94h1V81.83a3,3,0,0,0,3-3,3.12,3.12,0,0,0-1.12-2.41l5.59-15.21a3.61,3.61,0,0,0,1.07.22A3.76,3.76,0,0,0,60.23,61L80.7,81.42l.71-.71L61,60.29a3.26,3.26,0,0,0,.69-2.18,3.06,3.06,0,0,0-.05-.53l13.87-5.42A3.38,3.38,0,0,0,77.94,53.32ZM74.84,50H50.4L61,39.69a3.52,3.52,0,0,0,2,.44,2.84,2.84,0,0,0,1.54-.33L75,49.12A1.67,1.67,0,0,0,74.84,50ZM60.35,39.09,50,49.28V20.43a3,3,0,0,0,.61-.06l9.74,14.87a3.09,3.09,0,0,0-.72,1.88A3.82,3.82,0,0,0,60.35,39.09ZM49,20.4V49.28L34.09,33.64a3.4,3.4,0,0,0,.6-1.89,3,3,0,0,0-.11-1L48.19,20C48.5,20.17,49,20.32,49,20.4ZM31.75,34.82a3,3,0,0,0,1.58-.53L48.64,50H22.1a2.25,2.25,0,0,0-.55-1.55l9.37-13.63A2.42,2.42,0,0,0,31.75,34.82ZM22.09,50.76,48.64,51l-8,7.95a3.16,3.16,0,0,0-1.78-.7,3,3,0,0,0-2,.71L22,50.91Zm19.13,8.9L49,51.6l.31,24.2a1,1,0,0,0-.5.2L41.09,63.07a3,3,0,0,0,.6-1.88A2.24,2.24,0,0,0,41.22,59.66ZM50,51.6l6.08,5.15a3.23,3.23,0,0,0-.65,1.44,2.77,2.77,0,0,0,.35,1.63L50.25,75.73Zm8.59,3.68a3,3,0,0,0-2,.83L50.4,51H74L60.65,56.08A3.14,3.14,0,0,0,58.59,55.28Z"></path></svg>