<?xml version="1.0" encoding="utf-8"?>
<!-- Generator: Adobe Illustrator 23.1.1, SVG Export Plug-In . SVG Version: 6.00 Build 0)  -->
<svg version="1.1" id="Layer_1" xmlns="http://www.w3.org/2000/svg" xmlns:xlink="http://www.w3.org/1999/xlink" x="0px" y="0px"
	 viewBox="0 0 100 100" style="enable-background:new 0 0 100 100;" xml:space="preserve">
<g>
	<path d="M38.7,49.2l0.5,1.2c3.7,9,7.5,18.2,9.6,27.7v0.1c0,0.6,0.3,1.2,0.8,1.6c0.4,0.4,0.9,0.6,1.4,0.6c0.1,0,0.2,0,0.2,0
		c1.1-0.1,1.9-1,1.9-2.1v-0.1c2.1-9.9,6.2-19.7,10.1-29.1l0.7-1.7c0.6-1.5,1.3-2.9,2-4.4c1.7-3.7,3.4-7.5,4.4-11.6
		c0.9-3.6,1-6.9,0.4-10C69.1,12,60.8,5.3,51,5.3c-7.4,0-14.6,4.2-18,10.6c-5.1,9.5-0.5,19.6,3.5,28.5C37.3,46,38.1,47.6,38.7,49.2z
		 M36.8,17.8c2.6-5,8.4-8.3,14.2-8.3c7.7,0,14.3,5.3,15.6,12.6c0.5,2.5,0.3,5.2-0.4,8.2c-0.9,3.6-2.5,7.3-4.1,10.8
		c-0.7,1.5-1.4,3-2,4.5l-0.7,1.7c-3,7.2-6.1,14.6-8.4,22.1c-2.2-7.1-5-14-7.8-20.7l-0.5-1.2c-0.7-1.6-1.4-3.3-2.2-5.1
		C36.6,34.2,32.7,25.5,36.8,17.8z"/>
	<path d="M51.1,34.7c5.5,0,9.9-4.4,9.9-9.9s-4.4-9.9-9.9-9.9s-9.9,4.4-9.9,9.9S45.7,34.7,51.1,34.7z M51.1,19.2
		c3.1,0,5.6,2.5,5.6,5.6s-2.5,5.6-5.6,5.6c-3.1,0-5.6-2.5-5.6-5.6S48,19.2,51.1,19.2z"/>
</g>
</svg>
