<svg height='100px' width='100px'  fill="#000000" xmlns="http://www.w3.org/2000/svg" xmlns:xlink="http://www.w3.org/1999/xlink" version="1.1" x="0px" y="0px" viewBox="0 0 100 100" enable-background="new 0 0 100 100" xml:space="preserve"><g><g><path d="M86.001,95.5c-0.435,0-0.865-0.188-1.162-0.55L50,52.369L15.161,94.95c-0.525,0.64-1.47,0.734-2.111,0.211    c-0.641-0.524-0.736-1.47-0.211-2.111l36-44c0.57-0.696,1.752-0.696,2.322,0l36,44c0.524,0.642,0.43,1.587-0.211,2.111    C86.671,95.389,86.335,95.5,86.001,95.5z"></path></g><g><path d="M49.563,52.036c-0.236,0-0.473-0.056-0.688-0.167L3.312,28.333c-0.736-0.38-1.024-1.285-0.644-2.021    c0.379-0.736,1.283-1.026,2.021-0.644l44.873,23.18l44.749-23.179c0.731-0.382,1.641-0.094,2.021,0.642s0.094,1.641-0.643,2.022    L50.252,51.868C50.036,51.98,49.799,52.036,49.563,52.036z"></path></g><g><path d="M49.5,52.5c-0.829,0-1.5-0.672-1.5-1.5V2c0-0.829,0.671-1.5,1.5-1.5S51,1.171,51,2v49C51,51.828,50.329,52.5,49.5,52.5z"></path></g><g><path d="M48.992,17.125l31.993,17.809L74.17,80H24.951l-6.437-45.114L48.992,17.125 M48.992,15.125    c-0.344,0-0.688,0.089-0.997,0.266L17.518,32.901c-0.71,0.408-1.1,1.208-0.983,2.019l6.437,45.114    C23.113,81.019,23.957,82,24.951,82H74.17c0.988,0,1.829-0.972,1.978-1.949l6.815-44.941c0.126-0.83-0.279-1.713-1.016-2.117    l-31.993-17.59C49.655,15.238,49.323,15.125,48.992,15.125L48.992,15.125z"></path></g><g><path d="M49.235,27.125L70.97,39.304L66.34,70H32.902L28.53,39.271L49.235,27.125 M49.235,25.125    c-0.344,0-0.688,0.089-0.997,0.266L27.534,37.287c-0.71,0.408-1.1,1.208-0.983,2.019l4.372,30.729    C31.064,71.019,31.908,72,32.902,72H66.34c0.988,0,1.829-0.972,1.978-1.949l4.63-30.571c0.126-0.83-0.279-1.713-1.016-2.117    l-21.734-11.96C49.898,25.238,49.566,25.125,49.235,25.125L49.235,25.125z"></path></g><g><path d="M49.454,36.125l12.502,7.111L59.293,61H40.059l-2.515-17.782L49.454,36.125 M49.454,34.125    c-0.344,0-0.688,0.089-0.996,0.266l-11.91,6.843c-0.71,0.408-1.1,1.208-0.983,2.019l2.514,17.782    C38.22,62.019,39.063,63,40.059,63h19.234c0.988,0,1.829-0.972,1.978-1.949l2.663-17.639c0.126-0.83-0.279-1.713-1.016-2.117    l-12.501-6.893C50.117,34.238,49.785,34.125,49.454,34.125L49.454,34.125z"></path></g></g></svg>