<svg height='100px' width='100px'  fill="#000000" xmlns="http://www.w3.org/2000/svg" xmlns:xlink="http://www.w3.org/1999/xlink" version="1.1" x="0px" y="0px" viewBox="0 0 100 100" enable-background="new 0 0 100 100" xml:space="preserve"><g><path fill="#000000" d="M63.381,72.637h-4.419v-1.342h1.315c0.189,0,0.344-0.154,0.344-0.344v-1.465   c0-0.189-0.154-0.344-0.344-0.344h-2.131V40.756c0-0.19-0.153-0.344-0.343-0.344h-0.876V21.986h3.35   c0.189,0,0.344-0.154,0.344-0.344v-1.465c0-0.19-0.154-0.343-0.344-0.343H39.418c-0.189,0-0.344,0.153-0.344,0.343v1.465   c0,0.19,0.154,0.344,0.344,0.344h3.303v18.426h-0.901c-0.188,0-0.343,0.153-0.343,0.344v28.387h-2.059   c-0.189,0-0.344,0.154-0.344,0.344v1.465c0,0.189,0.154,0.344,0.344,0.344h1.372v1.342h-4.448c-0.189,0-0.342,0.152-0.342,0.342   v2.049c0,0.189,0.152,0.344,0.342,0.344h4.401V77.4c0,0.188,0.153,0.342,0.343,0.342h17.533c0.189,0,0.343-0.154,0.343-0.342   v-2.029h4.419c0.189,0,0.343-0.154,0.343-0.344v-2.049C63.724,72.789,63.57,72.637,63.381,72.637z M45.145,48.203   c0.19,0,0.344-0.153,0.344-0.343v-6.763h8.65v6.763c0,0.189,0.153,0.343,0.343,0.343c0.19,0,0.343-0.153,0.343-0.343v-6.763h1.418   v8.96H43.406v-8.96h1.396v6.763C44.802,48.05,44.955,48.203,45.145,48.203z M54.139,40.412h-8.65V21.986h8.65V40.412z    M56.228,50.744c-0.037,0.33-0.309,0.592-0.649,0.592c-0.033,0-0.064,0.013-0.096,0.021c-0.034-0.011-0.069-0.021-0.107-0.021   H44.299c-0.043,0-0.084,0.01-0.121,0.025c-0.035-0.012-0.07-0.025-0.108-0.025c-0.341,0-0.611-0.262-0.648-0.592H56.228z    M44.346,52.023h10.955l0.527,2.513H43.797L44.346,52.023z M43.646,55.223h12.325l0.138,0.654H43.504L43.646,55.223z    M43.406,56.563h12.836v12.511H43.406V56.563z M57.461,41.098v27.977h-0.533V56.221c0-0.092-0.037-0.175-0.096-0.236l-0.844-4.025   c0.545-0.174,0.939-0.685,0.939-1.287c0-0.008-0.004-0.016-0.004-0.023s0.004-0.016,0.004-0.023v-9.527H57.461z M56.242,40.412   h-1.418V21.986h1.418V40.412z M39.761,20.521h20.173v0.779H39.761V20.521z M43.406,21.986h1.396v18.426h-1.396V21.986z    M42.163,41.098h0.558v9.39c0,0.032,0.01,0.062,0.018,0.093c-0.008,0.029-0.018,0.06-0.018,0.092c0,0.602,0.393,1.111,0.936,1.287   l-0.896,4.107c-0.023,0.047-0.039,0.098-0.039,0.154v12.854h-0.558V41.098z M39.761,69.83h20.173v0.777H39.761V69.83z    M41.477,71.295h16.799v1.342H41.477V71.295z M41.43,75.371h1.393v1.686H41.43V75.371z M56.269,75.371v1.686h-1.21v-1.686H56.269z    M54.372,77.057h-1.21v-1.686h1.21V77.057z M52.475,77.057h-1.209v-1.686h1.209V77.057z M50.578,77.057h-1.332v-1.686h1.332V77.057   z M48.56,77.057h-1.21v-1.686h1.21V77.057z M46.662,77.057h-1.257v-1.686h1.257V77.057z M44.719,77.057h-1.21v-1.686h1.21V77.057z    M58.275,77.057h-1.32v-1.686h1.32V77.057z M63.037,74.684H36.686v-1.361h26.352V74.684z"></path><path fill="#000000" d="M49.824,46.188c0.844,0,1.53-0.687,1.53-1.531c0-0.844-0.687-1.53-1.53-1.53s-1.531,0.687-1.531,1.53   C48.293,45.502,48.98,46.188,49.824,46.188z M49.824,43.812c0.465,0,0.844,0.379,0.844,0.845s-0.379,0.845-0.844,0.845   c-0.466,0-0.845-0.379-0.845-0.845S49.358,43.812,49.824,43.812z"></path><path fill="#000000" d="M49.824,39.742c0.844,0,1.53-0.688,1.53-1.531c0-0.845-0.687-1.531-1.53-1.531s-1.531,0.687-1.531,1.531   C48.293,39.055,48.98,39.742,49.824,39.742z M49.824,37.366c0.465,0,0.844,0.378,0.844,0.845c0,0.465-0.379,0.844-0.844,0.844   c-0.466,0-0.845-0.379-0.845-0.844C48.979,37.744,49.358,37.366,49.824,37.366z"></path><path fill="#000000" d="M49.824,33.248c0.844,0,1.53-0.686,1.53-1.529c0-0.845-0.687-1.531-1.53-1.531s-1.531,0.687-1.531,1.531   C48.293,32.562,48.98,33.248,49.824,33.248z M49.824,30.874c0.465,0,0.844,0.378,0.844,0.845c0,0.465-0.379,0.843-0.844,0.843   c-0.466,0-0.845-0.378-0.845-0.843C48.979,31.252,49.358,30.874,49.824,30.874z"></path><path fill="#000000" d="M49.824,27.442c0.844,0,1.53-0.687,1.53-1.531s-0.687-1.531-1.53-1.531s-1.531,0.687-1.531,1.531   S48.98,27.442,49.824,27.442z M49.824,25.066c0.465,0,0.844,0.378,0.844,0.845c0,0.465-0.379,0.844-0.844,0.844   c-0.466,0-0.845-0.379-0.845-0.844C48.979,25.445,49.358,25.066,49.824,25.066z"></path></g></svg>