<svg height='100px' width='100px'  fill="#000000" xmlns="http://www.w3.org/2000/svg" xmlns:xlink="http://www.w3.org/1999/xlink" version="1.1" x="0px" y="0px" viewBox="0 0 100 100" style="enable-background:new 0 0 100 100;" xml:space="preserve"><g><path d="M25.1,73.1c-0.8,2.8-0.3,5.7,1.5,8c1.7,2.3,4.4,3.6,7.2,3.6h32.5c2.9,0,5.5-1.3,7.2-3.6c1.7-2.3,2.3-5.2,1.5-8   c0,0,0-0.1,0-0.1l-7.1-20.5c0.4-0.2,0.8-0.5,1-0.9c0.5-0.8,0.7-1.7,0.4-2.6l-3.3-9.5l3.9-10.4c0.3-0.9,0.2-1.9-0.3-2.7   c-0.3-0.4-0.6-0.7-1-0.9l2.4-6.3c0.3-0.9,0.2-1.9-0.3-2.7c-0.5-0.8-1.4-1.2-2.4-1.2H31.7c-0.9,0-1.8,0.5-2.4,1.2   c-0.5,0.8-0.7,1.8-0.3,2.7l2.4,6.3c-0.4,0.2-0.7,0.5-1,0.9c-0.5,0.8-0.7,1.8-0.3,2.7l3.9,10.4L30.8,49c-0.3,0.9-0.2,1.9,0.4,2.6   c0.3,0.4,0.6,0.7,1,0.9L25.1,73C25.1,73,25.1,73.1,25.1,73.1z M35.9,21h28.2l-1.6,4.1H37.4L35.9,21z M68.9,77.6   c-0.6,0.8-1.6,1.3-2.6,1.3H33.8c-1.1,0-2-0.5-2.6-1.3c-0.6-0.8-0.8-1.9-0.5-2.9l7.6-22h23.7l7.6,22C69.7,75.8,69.5,76.8,68.9,77.6z    M39.8,40.4c0.2-0.6,0.2-1.3,0-2L37,30.9H63l-2.8,7.5c-0.2,0.6-0.2,1.3,0,2l2.3,6.7H37.5L39.8,40.4z"></path><path d="M61,62.5H39l-3.8,10.9c-0.3,0.8,0.3,1.6,1.2,1.6h27.2c0.8,0,1.4-0.8,1.2-1.6L61,62.5z"></path></g></svg>