<svg height='100px' width='100px'  fill="#000000" xmlns="http://www.w3.org/2000/svg" xmlns:xlink="http://www.w3.org/1999/xlink" version="1.1" x="0px" y="0px" viewBox="0 0 100 100" style="enable-background:new 0 0 100 100;" xml:space="preserve"><path d="M77.63,61.44C72.52,66.78,69.97,69.46,64.1,75c0,0-2.9,2.75-5.57,2.79c-0.07,0-0.19,0-0.35-0.01  c-1.63-0.15-2.74-1.58-3.35-2.37c-0.53-0.68-0.65-1.03-1.33-2.27c-0.56-1.03-1.28-2.2-2.03-3.37c-0.82-1.3-2.4-3.98-5.64-9.89  c-1.56-2.83-2.81-4.45-4.67-6.46c-0.9-0.98-2.32-2.39-3.35-3.42c-1.03-1.03-1.93-1.9-2.62-2.56c-0.19-0.18-0.19-0.49-0.01-0.67  l14.86-14.86c0.18-0.18,0.48-0.18,0.67,0c2.25,2.24,4.5,4.48,6.74,6.72c0.01,0.01,0.02,0.02,0.04,0.03c1.14,0.93,2.12,1.6,2.83,2.06  c0.91,0.59,2.48,1.51,3.26,1.99c0.04,0.03,0.18,0.11,0.37,0.22c0.13,0.08,0.29,0.17,0.56,0.33c4.65,2.67,9.2,5.53,13.9,8.12  c0.87,0.48,2.17,1.39,2.58,2.89l0,0v0C81.91,56.99,78.67,60.35,77.63,61.44z M45.56,35.19l-0.4-0.4c-0.23-0.23-0.6-0.23-0.82,0  l-6.12,6.12c-0.23,0.23-0.23,0.6,0,0.82l0.4,0.4c0.23,0.23,0.6,0.23,0.82,0l6.12-6.12C45.79,35.78,45.79,35.41,45.56,35.19z   M55.61,32.62l-1.88,1.88l3.96,3.96l1.88-1.88L55.61,32.62z M55.84,32.39l3.94,3.94c0.74-0.74,1.47-1.47,2.21-2.21  c0.25-0.26,0.7-0.64,1.36-0.89c0.48-0.18,0.91-0.23,1.3-0.24c1.59-0.05,2.97,0.48,3.03,0.51c1.62,0.63,7.91,2.63,16.69,5.41  c0.12,0.04,0.26-0.03,0.3-0.15c0.53-1.6,1.06-3.19,1.58-4.79c0.04-0.12-0.03-0.26-0.15-0.3c-6.7-2.17-13.4-4.35-20.11-6.52  c-0.48-0.16-0.76-0.41-0.93-0.57c-0.36-0.34-0.55-0.73-0.64-0.98c-0.54-1.13-1.08-2.26-1.62-3.39c-0.06-0.12-0.2-0.17-0.31-0.11  c-1.57,0.75-3.14,1.49-4.7,2.24c-0.12,0.06-0.17,0.2-0.11,0.32c0.13,0.24,0.2,0.43,0.37,0.7c0.11,0.18,0.17,0.38,0.27,0.79  c0.31,1.2,0.12,2.36,0.12,2.36c-0.08,0.49-0.2,1.27-0.75,1.99c-0.07,0.1-0.14,0.17-0.46,0.5C56.66,31.58,56.19,32.05,55.84,32.39z   M54.38,75.42c0.02-0.01,0.04-0.03,0.04-0.03c0.03-0.04,0.03-0.09,0-0.13c-0.19-0.3-0.39-0.62-0.58-0.97  c-0.18-0.33-0.34-0.64-0.48-0.95c-0.03-0.07-0.11-0.09-0.17-0.04c-1.41,1-2.69,1.59-3.61,1.94c-1.16,0.44-1.98,0.74-3.05,0.64  c-1.13-0.11-1.91-0.6-2.88-1.25c-2.42-1.61-4.23-2.97-4.65-3.28c-3.11-2.32-3.44-2.38-5.55-3.94c-0.29-0.21-0.94-0.7-1.9-1.25  c-0.19-0.11-0.62-0.35-1.25-0.66c-1.84-0.89-3.61-1.45-3.87-1.53c-2.07-0.65-3.81-0.93-5.49-1.21c0,0-1.5-0.24-1.82-0.3  c-0.04-0.01-0.07,0.01-0.1,0.03l-2.37,2.37c0,0-0.11,0.16,0.1,0.11c0.2-0.05,0.61-0.11,0.61-0.11c0.26-0.03,0.64-0.07,1.1-0.09  c0.87-0.02,1.55,0.07,2.69,0.27c1.36,0.24,2.2,0.39,3.41,0.71c1,0.26,1.89,0.5,3.04,0.97c0.15,0.06,0.72,0.3,1.47,0.67  c1.41,0.71,2.42,1.4,2.84,1.69c2.62,1.81,6.15,4.43,7.25,5.25c1.19,0.89,1.7,1.27,2.55,1.76c1.41,0.82,2.47,1.45,3.91,1.76  C45.59,77.85,49,78.6,54.38,75.42z M16.08,66.44c0,0,2.33,3.36,2.33,4.66c0,1.29-1.05,2.33-2.33,2.33c-1.28,0-2.33-1.04-2.33-2.33  C13.75,69.81,16.08,66.44,16.08,66.44z M17.5,70.38c-0.16,0-0.29,0.13-0.29,0.29s0.13,0.29,0.29,0.29s0.29-0.13,0.29-0.29  C17.79,70.51,17.65,70.38,17.5,70.38z M16.08,72.52c0,0.19,0.17,0.33,0.34,0.29c0.65-0.13,1.16-0.62,1.34-1.25  c0.05-0.18-0.09-0.37-0.28-0.37l0,0c-0.13,0-0.24,0.09-0.28,0.22c-0.11,0.42-0.46,0.74-0.89,0.83  C16.18,72.27,16.08,72.38,16.08,72.52L16.08,72.52z"></path></svg>