<svg id="Layer_1" data-name="Layer 1" xmlns="http://www.w3.org/2000/svg" viewBox="0 0 1125 1084"><defs><style>.cls-1,.cls-2{fill:#fff;}.cls-2{fill-rule:evenodd;}</style></defs><path id="Path_58" data-name="Path 58" class="cls-1" d="M498,409.56h73a9.16,9.16,0,0,0,9.17-9.17V386.72h9.17a13.76,13.76,0,0,0,13.7-13.7V336.49a13.75,13.75,0,0,0-13.7-13.69h-9.17v-9.17h13.7a4.58,4.58,0,0,0,4.58-4.59v-18.2a4.58,4.58,0,0,0-4.58-4.58h-9.17v-105a4.58,4.58,0,0,0-4.58-4.58H566.45V144.8h18.26v-9.17H484.28v9.17h18.26v31.92h-13.7a4.58,4.58,0,0,0-4.58,4.58v105h-9.17a4.6,4.6,0,0,0-4.59,4.59v18.26a4.59,4.59,0,0,0,4.59,4.58h13.7v86.66a9.16,9.16,0,0,0,9.17,9.17Zm0-9.17V359.33h73v41.06Zm91.3-68.48a4.59,4.59,0,0,1,4.59,4.58V373a4.6,4.6,0,0,1-4.59,4.59h-9.17V331.93ZM571,350.19H498V313.67h73ZM511.68,144.8h45.65v31.92H511.68Zm0,41.09h45.65v82.17H511.68ZM479.75,295.42h9.17a4.59,4.59,0,0,0,4.59-4.59v-105h9.17v86.74a4.58,4.58,0,0,0,4.58,4.59h54.79a4.58,4.58,0,0,0,4.58-4.59V185.84h9.17v105a4.6,4.6,0,0,0,4.59,4.59h9.17v9.17H479.75Z"/><rect id="Rectangle_7" data-name="Rectangle 7" class="cls-1" x="524.75" y="184.55" width="22.92" height="22.92"/><rect id="Rectangle_9" data-name="Rectangle 9" class="cls-1" x="524.75" y="218.93" width="22.92" height="22.92"/><rect id="Rectangle_10" data-name="Rectangle 10" class="cls-1" x="524.75" y="241.86" width="22.92" height="22.92"/><path id="Path_59" data-name="Path 59" class="cls-1" d="M817.75,576.57h.5a4,4,0,0,0,3.82-2.72l8.09-23.53a90.82,90.82,0,0,0-.35-59.86,82.68,82.68,0,0,1-.6-53.7,4.18,4.18,0,0,0-.73-3.61,4.46,4.46,0,0,0-3.39-1.69h-1A50.6,50.6,0,0,0,773.51,482v44.48a50.6,50.6,0,0,0,44.24,50.13ZM781.6,482a42.52,42.52,0,0,1,38.33-42.27,90.94,90.94,0,0,0-2.49,32.15H805.86V480h12.73a89.67,89.67,0,0,0,3.61,13.29,82.43,82.43,0,0,1,3.75,15H814v8.09h12.83a82.61,82.61,0,0,1-.67,16.18H814v8.09h10.64c-.58,2.39-1.26,4.77-2.07,7.1l-7,20.31a42.49,42.49,0,0,1-33.95-41.56Z"/><path id="Path_60" data-name="Path 60" class="cls-1" d="M834.32,493.19a82.65,82.65,0,0,1,.32,54.49l-8.09,23.53a4.05,4.05,0,0,0,2.51,5.14,4.34,4.34,0,0,0,.81.19,49.15,49.15,0,0,0,6.3.43,50.61,50.61,0,0,0,50.55-50.54V482a50.26,50.26,0,0,0-49.12-50.43h-.11a4,4,0,0,0-3.84,2.76,90.82,90.82,0,0,0,.65,59Zm44.33-11.26v44.5a42.41,42.41,0,0,1-42.41,42.41h-.32l6.38-18.58a90.58,90.58,0,0,0,3.93-42.09h12.2v-8.09H844.67a87.28,87.28,0,0,0-2.77-9.66,82.45,82.45,0,0,1-4.41-34.82h8.77v-8.1h-7.68a77.7,77.7,0,0,1,1.81-7.82A42.19,42.19,0,0,1,878.65,482Z"/><path id="Path_61" data-name="Path 61" class="cls-1" d="M889,364.49,905.09,372a68.65,68.65,0,0,1,35,37.61,77,77,0,0,0,35.36,40.11l7.62,4.11A4.06,4.06,0,0,0,988,453a49.06,49.06,0,0,0-1.15-66.2l-28-29.24a49,49,0,0,0-68.77-1.85c-.68.64-1.31,1.31-1.94,2l-.35.38a4.06,4.06,0,0,0,.19,5.72,4.26,4.26,0,0,0,1,.7Zm64-1.34,28,29.28a41,41,0,0,1,3,52.78l-4.7-2.53a69,69,0,0,1-22-18.83l16.92-13.54L969.14,404l-16.42,13.13a69.14,69.14,0,0,1-5.06-10.38,76.69,76.69,0,0,0-19.26-28.52l6.18-9.27-6.73-4.5-5.66,8.5a77,77,0,0,0-13.61-8.25l-10.72-5.06A40.89,40.89,0,0,1,953,363.09Z"/><path id="Path_62" data-name="Path 62" class="cls-1" d="M904.71,464.36a48.42,48.42,0,0,0,35,15.83h1.14a48.4,48.4,0,0,0,34.5-14.3l.63-.63c.53-.53,1-1.08,1.49-1.62l.41-.48a4,4,0,0,0-.37-5.71,4.17,4.17,0,0,0-.78-.54l-7.62-4.1h0a68.94,68.94,0,0,1-31.64-36,76.64,76.64,0,0,0-39.07-42l-16.05-7.55a4,4,0,0,0-4.67.9,49,49,0,0,0-.3,66.27Zm-23.15-88.45,10.92,5.15-5.12,7.68,6.73,4.49,5.66-8.47a68.51,68.51,0,0,1,17.56,14.38l-9.17,9.17,5.73,5.73,8.49-8.5a69,69,0,0,1,7.53,14.2,77,77,0,0,0,19.21,28.51l-8.58,8.58,5.73,5.73,9.1-9.1a76.83,76.83,0,0,0,9.91,6.45h0l2.92,1.57a39.91,39.91,0,0,1-28.31,10.6,40.44,40.44,0,0,1-29.17-13.21L883.28,429A40.93,40.93,0,0,1,881.56,375.91Z"/><rect id="Rectangle_11" data-name="Rectangle 11" class="cls-1" x="789.68" y="488.04" width="8.09" height="8.09"/><rect id="Rectangle_12" data-name="Rectangle 12" class="cls-1" x="846.3" y="471.87" width="12.13" height="8.09"/><rect id="Rectangle_13" data-name="Rectangle 13" class="cls-1" x="858.43" y="536.57" width="8.09" height="8.09"/><rect id="Rectangle_14" data-name="Rectangle 14" class="cls-1" x="941.68" y="370.77" width="11.44" height="8.09" transform="translate(12.45 779.69) rotate(-45)"/><rect id="Rectangle_15" data-name="Rectangle 15" class="cls-1" x="917.43" y="439.51" width="11.44" height="8.09" transform="translate(-43.26 782.68) rotate(-45)"/><g id="Group_5" data-name="Group 5"><path id="Path_94" data-name="Path 94" class="cls-2" d="M61.73,506.28A96.86,96.86,0,0,1,80.81,448.2L86.28,457a87.06,87.06,0,0,0-14.9,44.52H83.05a4.78,4.78,0,0,1,0,9.54H71.39a88.26,88.26,0,0,0,83.18,83.34V582.72a4.77,4.77,0,1,1,9.54,0h0V594.4a86.69,86.69,0,0,0,44.43-14.9l8.78,5.48h0a96.33,96.33,0,0,1-58,19.12A97.82,97.82,0,0,1,61.73,506.28Zm176.12,58.09-5.47-8.79a87.06,87.06,0,0,0,14.9-44.52H235.61a4.78,4.78,0,0,1,0-9.54h11.66a88.25,88.25,0,0,0-83.16-83.34v11.67a4.77,4.77,0,0,1-9.54,0h0V418.18a86.72,86.72,0,0,0-44.44,14.9l-8.78-5.48a96.4,96.4,0,0,1,58-19.12,97.81,97.81,0,0,1,97.6,97.79,96.8,96.8,0,0,1-19.08,58.09ZM99.12,437.47h0l-6.46-4ZM135.3,460l43.26,27,9,14.55L241.28,588h0L228,566.62h0l14,22.48L140.09,525.55,90.17,445.17l.33.53L76.69,423.46l1.14.7h0ZM37.77,506.28a121.5,121.5,0,0,0,201.08,92.11L254.33,608a4.77,4.77,0,0,0,6.57-6.58L251.26,586A121.66,121.66,0,0,0,79.82,414.18l-15.49-9.65a4.77,4.77,0,0,0-6.57,6.58l9.64,15.5A121.61,121.61,0,0,0,37.77,506.28Zm131.81-10.23a14.45,14.45,0,1,1-20.44,0,14.45,14.45,0,0,1,20.44,0"/></g><path class="cls-1" d="M699.21,646.7c-2.14,5.35,1.07,11.77,6.42,13.91,9.63,4.28,19.26,7.5,28.89,11.78,1.07,0,2.14,1.07,4.28,1.07,4.28,0,8.57-2.14,9.64-6.42A10.29,10.29,0,0,0,742,653.12c-9.63-4.28-19.26-7.49-28.89-11.77C707.77,639.21,701.35,641.35,699.21,646.7Z"/><path class="cls-1" d="M281.84,302.11c-2.14-5.36-7.49-8.57-12.84-7.5-5.35,2.14-8.56,7.5-7.49,12.85,3.21,10.7,6.42,20.33,9.63,30q3.21,6.42,9.63,6.42a8.09,8.09,0,0,0,4.28-1.07c5.35-2.14,8.56-8.56,6.42-13.91C287.19,322.44,284,312.81,281.84,302.11Z"/><path class="cls-1" d="M645.7,614.6c-5.35-2.14-11.77,1.07-13.91,6.42s1.07,11.77,6.42,13.91c9.63,4.28,19.26,7.49,28.89,11.77,1.07,0,2.14,1.07,4.28,1.07,4.28,0,8.56-2.14,9.63-6.42,2.14-5.35-1.07-11.77-6.42-13.91C665,622.09,655.33,618.88,645.7,614.6Z"/><path class="cls-1" d="M913.24,734.46c-5.35-3.21-11.77-2.14-15,3.21s-2.14,11.77,3.21,15c8.56,5.35,17.12,11.77,24.61,17.12,2.15,1.07,4.29,2.14,6.43,2.14a9.73,9.73,0,0,0,8.56-4.28c3.21-4.28,2.14-11.77-2.14-15C931.44,746.23,921.8,739.81,913.24,734.46Z"/><path class="cls-1" d="M398.49,486.18c-2.14-2.14-4.28-3.22-6.42-5.36-4.28-4.28-10.7-3.21-15,1.07s-3.21,10.71,1.07,15l6.43,6.42c5.35,5.35,11.77,9.63,18.19,13.91,2.14,1.07,4.28,2.14,6.42,2.14a9.73,9.73,0,0,0,8.56-4.28c3.21-4.28,2.14-11.77-2.14-15C410.26,495.81,404.91,490.46,398.49,486.18Z"/><path class="cls-1" d="M876.86,713.05c-9.63-5.35-18.2-9.63-27.83-15-5.35-2.14-11.77,0-13.91,5.35s0,11.77,5.35,13.91c9.63,4.28,18.19,9.63,27.83,13.92a9.65,9.65,0,0,0,5.35,1.07,11.22,11.22,0,0,0,9.63-5.36C883.28,721.61,882.21,715.19,876.86,713.05Z"/><path class="cls-1" d="M972.1,780.47a10.6,10.6,0,1,0-15,15c7.49,7.49,13.91,15,20.33,21.4,2.14,2.14,5.35,4.28,8.56,4.28,2.14,0,4.29-1.07,6.43-2.14,4.28-4.28,5.35-10.7,1.07-15A147.47,147.47,0,0,0,972.1,780.47Z"/><path class="cls-1" d="M1022.4,845.75l-3.21-6.42c-3.21-5.35-9.63-7.49-15-4.28s-7.49,9.63-4.28,15c1.07,2.14,2.14,3.21,3.21,5.35a11.24,11.24,0,0,0,9.63,5.35,9.65,9.65,0,0,0,5.35-1.07C1022.4,857.53,1024.54,851.11,1022.4,845.75Z"/><path class="cls-1" d="M288.26,378.09a229.85,229.85,0,0,0,15,27.82,11.24,11.24,0,0,0,9.63,5.35c2.14,0,4.28,0,5.36-1.07,5.35-3.21,6.42-9.63,3.21-15-5.36-8.56-9.64-17.12-15-26.75-2.14-5.35-8.56-7.5-13.91-5.35C287.19,366.32,285.05,372.74,288.26,378.09Z"/><path class="cls-1" d="M578.28,587.84c-5.35-2.14-11.77,0-13.91,5.35s0,11.77,5.35,13.92c9.63,4.28,19.26,8.56,28.89,11.77,1.07,0,2.14,1.07,4.28,1.07,4.28,0,8.56-2.14,9.63-6.42a10.29,10.29,0,0,0-6.42-13.92A217.11,217.11,0,0,0,578.28,587.84Z"/><path class="cls-1" d="M355.68,470.12a11.31,11.31,0,0,0,8.56-18.19c-6.42-7.49-12.84-15-19.26-23.54-3.21-4.28-10.7-5.35-15-2.14s-5.35,10.7-2.14,15c6.42,8.56,12.84,17.12,20.33,24.61C350.33,469.05,352.47,470.12,355.68,470.12Z"/><path class="cls-1" d="M475.54,538.61c-9.63-5.35-18.19-10.7-26.75-16.05-5.35-3.21-11.78-2.14-15,3.21s-2.14,11.77,3.21,15c8.57,5.36,18.2,10.71,27.83,16.06a9.65,9.65,0,0,0,5.35,1.07,11.24,11.24,0,0,0,9.63-5.35C483,548.25,480.89,541.82,475.54,538.61Z"/><path class="cls-1" d="M249.73,151.21a10.72,10.72,0,0,0-10.7,10.7c0,10.7,1.07,21.41,1.07,32.11,0,5.35,5.35,9.63,10.7,9.63h1.07c6.43,0,10.71-5.35,9.64-11.77-1.07-9.63-1.07-20.34-1.07-31C260.44,155.49,255.08,151.21,249.73,151.21Z"/><path class="cls-1" d="M265.79,232.54c-1.07-5.35-6.42-9.63-11.78-8.56s-9.63,6.42-8.56,11.77a267.26,267.26,0,0,0,5.35,31c1.07,5.35,5.35,8.56,10.71,8.56h2.14a11.1,11.1,0,0,0,8.56-12.84C269,252.88,267.93,243.25,265.79,232.54Z"/><path class="cls-1" d="M535.47,591.05q6.42,0,9.63-6.42c2.14-5.35,0-11.77-5.35-13.91-9.63-4.28-19.26-8.56-27.82-12.84-5.35-2.14-11.78,0-13.92,5.35s0,11.77,5.36,13.91c9.63,4.28,19.26,9.63,28.89,13.91Z"/><path class="cls-1" d="M810.51,681l-28.9-12.84c-5.35-2.15-11.77,0-13.91,5.35s0,11.77,5.35,13.91c9.63,4.28,19.26,8.56,28.89,11.77,1.07,1.07,3.21,1.07,4.29,1.07q6.42,0,9.63-6.42C818,689.51,815.86,683.09,810.51,681Z"/><path class="cls-1" d="M1025.61,884.28c-5.35,1.07-9.63,7.49-7.49,12.84a327.81,327.81,0,0,1,5.35,34.25c0,5.35,5.35,9.63,10.7,9.63h1.07c6.42,0,10.7-5.35,9.63-11.77-1.07-12.84-3.21-25.69-5.35-37.46C1037.38,886.42,1032,883.21,1025.61,884.28Z"/><path id="Path_59-2" data-name="Path 59" class="cls-1" d="M661.8,1022.82h.51a4,4,0,0,0,3.81-2.73l8.09-23.53a90.79,90.79,0,0,0-.35-59.85,82.81,82.81,0,0,1-.6-53.7,4.18,4.18,0,0,0-.73-3.61,4.46,4.46,0,0,0-3.39-1.69h-1a50.59,50.59,0,0,0-50.55,50.52v44.48a50.58,50.58,0,0,0,44.24,50.12Zm-36.15-94.59A42.52,42.52,0,0,1,664,886a90.94,90.94,0,0,0-2.49,32.15H649.92v8.09h12.72a89.88,89.88,0,0,0,3.61,13.28,82.73,82.73,0,0,1,3.75,15H658v8.09h12.83a82.47,82.47,0,0,1-.67,16.17H658v8.09h10.64c-.58,2.4-1.26,4.77-2.07,7.11l-7,20.31a42.49,42.49,0,0,1-34-41.56Z"/><path id="Path_60-2" data-name="Path 60" class="cls-1" d="M678.38,939.44a82.77,82.77,0,0,1,.32,54.49l-8.1,23.53a4.05,4.05,0,0,0,2.51,5.14,4.34,4.34,0,0,0,.81.19,49.15,49.15,0,0,0,6.3.43,50.61,50.61,0,0,0,50.55-50.54V928.22a50.25,50.25,0,0,0-49.12-50.43h-.11a4,4,0,0,0-3.84,2.76,91,91,0,0,0,.65,59Zm44.32-11.26v44.5a42.41,42.41,0,0,1-42.41,42.41H680l6.38-18.57a90.58,90.58,0,0,0,3.93-42.09h12.2v-8.09H688.73a90.39,90.39,0,0,0-2.78-9.67,82.56,82.56,0,0,1-4.41-34.82h8.77v-8.09h-7.68a77.89,77.89,0,0,1,1.81-7.83,42.2,42.2,0,0,1,38.26,42.3Z"/><path id="Path_61-2" data-name="Path 61" class="cls-1" d="M733.09,810.73l16,7.56a68.6,68.6,0,0,1,35,37.6A77,77,0,0,0,819.47,896l7.62,4.1a4,4,0,0,0,4.94-.87,49.06,49.06,0,0,0-1.15-66.2l-28-29.24a49,49,0,0,0-68.77-1.86c-.69.65-1.32,1.32-1.95,2l-.35.38A4,4,0,0,0,732,810a3.76,3.76,0,0,0,1,.7ZM797,809.39l28,29.29a40.94,40.94,0,0,1,3,52.78l-4.7-2.53a69,69,0,0,1-22-18.84l16.92-13.53-5-6.32-16.42,13.14A68.78,68.78,0,0,1,791.71,853a76.65,76.65,0,0,0-19.26-28.51l6.18-9.28-6.73-4.49-5.66,8.49a77.9,77.9,0,0,0-13.6-8.25l-10.73-5.05a40.89,40.89,0,0,1,55.16,3.44Z"/><path id="Path_62-2" data-name="Path 62" class="cls-1" d="M748.76,910.61a48.42,48.42,0,0,0,35,15.83h1.15a48.41,48.41,0,0,0,34.5-14.3l.63-.63c.52-.53,1-1.08,1.49-1.62l.4-.48a4,4,0,0,0-.37-5.71,4.17,4.17,0,0,0-.78-.54l-7.62-4.1h0a69,69,0,0,1-31.64-36,76.64,76.64,0,0,0-39.07-42l-16-7.55a4.05,4.05,0,0,0-4.68.9,49,49,0,0,0-.3,66.27Zm-23.15-88.45,10.92,5.15L731.41,835l6.73,4.49L743.8,831a68.51,68.51,0,0,1,17.56,14.37l-9.17,9.17,5.73,5.73,8.49-8.49a68.74,68.74,0,0,1,7.53,14.2,77.13,77.13,0,0,0,19.21,28.51l-8.58,8.58,5.73,5.73,9.1-9.1a76.76,76.76,0,0,0,9.91,6.44h0l2.93,1.57a40,40,0,0,1-28.31,10.61,40.42,40.42,0,0,1-29.17-13.21l-27.43-29.88A40.93,40.93,0,0,1,725.61,822.16Z"/><rect id="Rectangle_11-2" data-name="Rectangle 11" class="cls-1" x="633.73" y="934.29" width="8.09" height="8.09"/><rect id="Rectangle_12-2" data-name="Rectangle 12" class="cls-1" x="690.35" y="918.12" width="12.13" height="8.09"/><rect id="Rectangle_13-2" data-name="Rectangle 13" class="cls-1" x="702.48" y="982.82" width="8.09" height="8.09"/><rect id="Rectangle_14-2" data-name="Rectangle 14" class="cls-1" x="785.73" y="817.01" width="11.44" height="8.09" transform="translate(-348.77 800.12) rotate(-45)"/><rect id="Rectangle_15-2" data-name="Rectangle 15" class="cls-1" x="761.48" y="885.76" width="11.44" height="8.09" transform="translate(-404.48 803.11) rotate(-45)"/><path id="Path_58-2" data-name="Path 58" class="cls-1" d="M683.4,322.57h73a9.16,9.16,0,0,0,9.17-9.16V299.73h9.17a13.76,13.76,0,0,0,13.7-13.7V249.51a13.77,13.77,0,0,0-13.7-13.7h-9.17v-9.17h13.7a4.58,4.58,0,0,0,4.58-4.58V203.85a4.58,4.58,0,0,0-4.58-4.58h-9.17v-105a4.59,4.59,0,0,0-4.59-4.58H751.87V57.81h18.26V48.64H669.7v9.17H688V89.73h-13.7a4.58,4.58,0,0,0-4.58,4.59v105h-9.17a4.58,4.58,0,0,0-4.59,4.58v18.26a4.58,4.58,0,0,0,4.59,4.58H674.2v86.67a9.17,9.17,0,0,0,9.17,9.16Zm0-9.16V272.34h73v41.07Zm91.3-68.49a4.58,4.58,0,0,1,4.58,4.59V286a4.58,4.58,0,0,1-4.58,4.59h-9.17V244.94ZM756.44,263.2h-73V226.69h73ZM697.09,57.81h45.65V89.73H697.09Zm0,41.09h45.65v82.17H697.09ZM665.17,208.43h9.17a4.59,4.59,0,0,0,4.59-4.59v-105h9.17V185.6a4.58,4.58,0,0,0,4.58,4.58h54.79a4.58,4.58,0,0,0,4.58-4.58V98.85h9.17v105a4.58,4.58,0,0,0,4.59,4.59H775v9.17H665.17Z"/><rect id="Rectangle_7-2" data-name="Rectangle 7" class="cls-1" x="710.17" y="97.56" width="22.92" height="22.92"/><rect id="Rectangle_9-2" data-name="Rectangle 9" class="cls-1" x="710.17" y="131.94" width="22.92" height="22.92"/><rect id="Rectangle_10-2" data-name="Rectangle 10" class="cls-1" x="710.17" y="154.87" width="22.92" height="22.92"/><path id="Path_58-3" data-name="Path 58" class="cls-1" d="M323.4,908.57h73a9.16,9.16,0,0,0,9.17-9.16V885.73h9.17a13.76,13.76,0,0,0,13.7-13.7V835.51a13.77,13.77,0,0,0-13.7-13.7h-9.17v-9.17h13.7a4.58,4.58,0,0,0,4.58-4.58V789.85a4.58,4.58,0,0,0-4.58-4.58h-9.17v-105a4.59,4.59,0,0,0-4.59-4.58H391.87v-31.9h18.26v-9.17H309.7v9.17H328v31.92h-13.7a4.58,4.58,0,0,0-4.58,4.59v105h-9.17a4.58,4.58,0,0,0-4.59,4.58v18.26a4.58,4.58,0,0,0,4.59,4.58H314.2v86.67a9.17,9.17,0,0,0,9.17,9.16Zm0-9.16V858.34h73v41.07Zm91.3-68.49a4.58,4.58,0,0,1,4.58,4.59V872a4.58,4.58,0,0,1-4.58,4.59h-9.17V830.94ZM396.44,849.2h-73V812.69h73ZM337.09,643.81h45.65v31.92H337.09Zm0,41.09h45.65v82.17H337.09ZM305.17,794.43h9.17a4.59,4.59,0,0,0,4.59-4.59v-105h9.17V771.6a4.58,4.58,0,0,0,4.58,4.58h54.79a4.58,4.58,0,0,0,4.58-4.58V684.85h9.17v105a4.58,4.58,0,0,0,4.59,4.59H415v9.17H305.17Z"/><rect id="Rectangle_7-3" data-name="Rectangle 7" class="cls-1" x="350.17" y="683.56" width="22.92" height="22.92"/><rect id="Rectangle_9-3" data-name="Rectangle 9" class="cls-1" x="350.17" y="717.94" width="22.92" height="22.92"/><rect id="Rectangle_10-3" data-name="Rectangle 10" class="cls-1" x="350.17" y="740.87" width="22.92" height="22.92"/></svg>