<svg id="Layer_1" data-name="Layer 1" xmlns="http://www.w3.org/2000/svg" viewBox="0 0 1125 922"><defs><style>.cls-1{fill:#fff;}</style></defs><path id="noun_journal_1670382" data-name="noun journal 1670382" class="cls-1" d="M71.18,366.45a5.18,5.18,0,1,0,0,10.35H92.07V435a5.18,5.18,0,0,0,5.18,5.18H364.13A5.17,5.17,0,0,0,369.3,435V96.3a5.17,5.17,0,0,0-5.17-5.18H97.25a5.17,5.17,0,0,0-5.17,5.18h0v58.18H71.18a5.18,5.18,0,1,0,0,10.35H92.07v42.63H71.18a5.18,5.18,0,0,0,0,10.35h20.9v42.63H71.18a5.18,5.18,0,1,0,0,10.35H92.07v42.62H71.18a5.18,5.18,0,0,0,0,10.36H92.07v42.62ZM359,429.84H332.73V101.52H359Zm-256.54-106h20.89a5.18,5.18,0,0,0,0-10.36H102.43V270.84h20.89a5.18,5.18,0,1,0,0-10.35H102.43v-42.6h20.89a5.18,5.18,0,1,0,0-10.35H102.43V164.87h20.89a5.18,5.18,0,1,0,0-10.35H102.43v-53H285.67V429.84H102.43v-53h20.89a5.18,5.18,0,1,0,0-10.35H102.43Z"/><path id="noun_Spider_chart_762110" data-name="noun Spider chart 762110" class="cls-1" d="M954.49,565.14a26.66,26.66,0,0,0,24.43-18.53h103.83v-8H978.93a22.84,22.84,0,0,0-23.13-22.55c-.28,0-.55,0-.83,0a24,24,0,0,0-12.3,2.39L857,445.2a25.79,25.79,0,0,0,2.16-9.18,24.68,24.68,0,0,0-4.64-14.37l127.78-128.2-5.68-5.67L848.84,415.57a24,24,0,0,0-20-3.84l-79.14-118.8a23.24,23.24,0,0,0,5.27-14.61,24,24,0,0,0-22.9-25l-.67,0V187.25h-8v67.08a24,24,0,0,0-17.41,24,27.89,27.89,0,0,0,1.44,8.39l-109,85.68a23.48,23.48,0,0,0-13-4A23.94,23.94,0,0,0,571.36,373l-85.31-85.27-5.59,5.68,85.13,85.13a24.61,24.61,0,0,0-4.87,14.21,23.21,23.21,0,0,0,5.11,15.33l-76,109.06a15.29,15.29,0,0,0-5.27-1,23.15,23.15,0,0,0-24.63,21.58c0,.31,0,.63,0,.94H380v8h80.42a24.83,24.83,0,0,0,24,18.53,25.73,25.73,0,0,0,16.69-6.87l115.87,65.17a36.32,36.32,0,0,0-.72,5.5,25.71,25.71,0,0,0,4.64,14.73L480.48,783.94l5.67,5.59L626.52,649.14a28.06,28.06,0,0,0,15.41,4.47,29.52,29.52,0,0,0,6.39-1.19l63.17,101.82a20.91,20.91,0,0,0-4.07,14.23,24.68,24.68,0,0,0,16,23.08V890h8V792.81a24,24,0,0,0,24-24,24.9,24.9,0,0,0-8.94-19.24L791,628.15a28.65,28.65,0,0,0,8.54,1.73,30.06,30.06,0,0,0,13.49-3.46L976.53,789.54l5.68-5.68-163-163.07a26,26,0,0,0,5.51-17.41,25,25,0,0,0-.39-4.23l110.76-43.31A27,27,0,0,0,954.49,565.14Zm-24.76-26.51H734.57l84.64-82.34a28.1,28.1,0,0,0,16,3.52,22.68,22.68,0,0,0,12.3-2.6L931,531.64a13.3,13.3,0,0,0-1.29,7ZM814,451.5l-82.66,81.37V302.46a24.08,24.08,0,0,0,4.87-.48L814,420.73a24.67,24.67,0,0,0-5.76,15A30.54,30.54,0,0,0,814,451.47ZM723.39,302.25V532.87L604.35,408a27.22,27.22,0,0,0,4.79-15.09,24,24,0,0,0-.87-8L717,299.05C719.39,300.41,723.39,301.59,723.39,302.25ZM585.64,417.4a24,24,0,0,0,12.62-4.23L720.51,538.63H508.57a18,18,0,0,0-4.39-12.38L579,417.4A19.48,19.48,0,0,0,585.64,417.4ZM508.49,544.73l212,1.92-63.88,63.48a25.29,25.29,0,0,0-14.22-5.59,24,24,0,0,0-16,5.68L507.77,545.86Zm152.76,71,62.14-64.37,2.47,193.26a8.07,8.07,0,0,0-4,1.59L660.22,643A24,24,0,0,0,665,628,17.88,17.88,0,0,0,661.25,615.77Zm70.12-64.37,48.55,41.13a25.83,25.83,0,0,0-5.19,11.5,22.17,22.17,0,0,0,2.79,13L733.41,744.1ZM800,580.79a24,24,0,0,0-16,6.63l-49.44-40.81H923L816.42,587.18A25.13,25.13,0,0,0,800,580.79Z"/></svg>