<svg xmlns="http://www.w3.org/2000/svg" width="90.242" height="59.289" viewBox="0 0 90.242 59.289">
  <g id="noun_Map_748499" transform="translate(-2.5 -4.625)">
    <path id="Path_80" data-name="Path 80" d="M110.751,45.472c.309-.516.464-.825.413-.825a2.057,2.057,0,0,1,.206-.155s0-.206.413-.309a5.7,5.7,0,0,0,.67-.206,2.172,2.172,0,0,0,.619-.722c.052-.206.258-.567.206-.722a6.45,6.45,0,0,0-.309-.928c-.052,0,0,0-.309-.309a2.506,2.506,0,0,1-.567-.722c-.052-.155-.155-.155,0-.361s.206-.155.258-.309.206-.309-.155-.206-.1.052-.413,0c-.309,0-1.083.155-.722-.309.413-.464.516-.774.567-.774s.413-.413.464,0c0,.361.155.258.206.516,0,.258.464-.258.464-.258a.754.754,0,0,1,.258.155.766.766,0,0,1,.1.464.638.638,0,0,0,.155.1c.258.206.516.1.516.464,0,.413,0,.413.155.516a.393.393,0,0,0,.464-.052,1.884,1.884,0,0,0,.361-.516s0-.155-.361-.413-.619-.413-.722-.516c-.155-.1-.1-.464.052-.619s.206-.206.155-.413.052-.309.413-.309h.413s.052.052.052-.1.464-.774.309-.774c-.1,0,0-.155-.052-.413s.258-.67,0-.825a1.261,1.261,0,0,1-.464-.567c-.155-.309-.155-.309-.722-.413-.619-.052-.877.155-1.031-.052s-.206.258-.309-.258a1.284,1.284,0,0,1,.155-.928,2.609,2.609,0,0,0,.464-.413.658.658,0,0,1,.773-.1,6.706,6.706,0,0,0,1.134.155c.361.052.361.309.516,0,.206-.309,0-.464.155-.619s.309-.413.413-.258.361.309.516.1l.258-.258.1.1s.206-.1.206.1.206.464.1.619-.258.155-.258.516,0,.309.258.67c.258.309.413.052.464.413s.1.258.361.516.206.258.413.361.258.258.258.052V34.8c0-.206.206-.361.052-.722s0-.309-.309-.567c-.258-.258-.464.052-.567-.309s.464-.516.567-.567c.155-.052.361-.309.413-.155.052.206-.361.877.309.155a2.948,2.948,0,0,1,.413-.413c.052,0,.361-.052.413,0s.258-.206.206-.206-.722-.361-.722-.361l-.464-.258a.634.634,0,0,1,.258-.1c.1,0,.155-.258.258-.258a4.678,4.678,0,0,1,1.083.258c.155.1.722.1.67.052s-.464-.309-.464-.413-.825-.258-1.083-.258-.464.1-.722,0a5.784,5.784,0,0,0-.67-.258c-.155,0-2.217-.413-2.321-.361-.1,0-.258.464-.309.413a3.4,3.4,0,0,0-.516-.155,6.693,6.693,0,0,0-1.341-.206c-.567-.052-.98.052-1.134-.155s-.516-.1-.928-.155H110.8a3.913,3.913,0,0,1-.825-.052c-.1,0-.258-.206-.413-.206s-.1-.052-.413-.1c-.258-.052-.258-.361-.361-.1s-.052.206-.206.258c-.155.1-.258.258-.361.258h-.516a.666.666,0,0,0-.413-.1h-.516a2.336,2.336,0,0,1-.825-.155c-.258-.155-.258-.258-.516-.206-.258,0-.258-.052-.567-.052s-.722.206-.928.206a2.137,2.137,0,0,1-.825-.1c-.155-.1-.206-.258-.825-.155-.619.052-.928.052-.825-.1a4.183,4.183,0,0,1,.309-.413c.052,0,.258-.155.1-.206a2.09,2.09,0,0,0-.516-.155c-.258,0-.258.1-.67.052s.258-.155-.619-.155a5.409,5.409,0,0,0-1.186.1c-.1,0-.206-.206-.464.1a1.39,1.39,0,0,1-1.031.464,1.919,1.919,0,0,0-.928.1c-.464.155-.722-.052-.619.309s.206.516.206.567-.206.516-.464.258-.722-1.392-.516-.619c.206.722.67.98.258,1.134-.464.1-.413-.052-.464-.1s0-.361,0-.567a.508.508,0,0,0-.155-.413c-.1-.1-.052-.258-.258-.258-.206-.052,0-.155-.309-.155s-.567-.206-.464.258c.052.413.155.155.309.516.206.413.516.1.258.413a1.033,1.033,0,0,1-1.083.052c-.155-.1-.1.052-.413-.155s-.206-.361-.567-.206-.464.464-.619.361-.464.155-.567,0a.542.542,0,0,0-.67,0c-.1.155-.361.1-.773.309s-.258,0-.774.413c-.464.413-.773.722-.928.464s-1.031-.722-.722-.774.516-.206.722-.052.464.1.516,0,.258-.258,0-.361c-.258-.155-.309-.052-.722-.206-.464-.155,0-.1-.619-.206A8.122,8.122,0,0,1,86,29.847a2.475,2.475,0,0,0-.619,0c-.206,0-.413-.052-.619-.052a.872.872,0,0,0-.619.206c-.258.206-.464.309-.67.464s-.67.464-.825.619a2.59,2.59,0,0,0-.67.619c-.052.155.052.258-.155.361a1.02,1.02,0,0,1-.516.1c-.155,0,0-.206-.155,0-.155.258-.1,1.083,0,.928.1-.1.052-.464.567-.155.516.361.825.309.825.619s.361.309.413.361.258-.1.258-.1.516-.309.516-.464.309-.516.309-.516-.155-.052-.155-.309a1.526,1.526,0,0,1,.1-.516c.052-.258-.258,0,.464-.464s.722-.155.722-.155a.2.2,0,0,1,0,.258c-.1.155-.309.516-.361.567s.206.413.309.413.361-.1.464-.052c.155,0,.361-.052.464,0,.052.052.258.206.1.309a.7.7,0,0,1-.567.206c-.206-.052-.464-.361-.309.1s0,.567-.155.567-.464-.258-.413.1a.556.556,0,0,1-.361.567h-.516a.637.637,0,0,0-.413.206c-.052.1-.155,0-.258,0s0-.155-.258-.206-.361-.1-.516,0-.361.155-.464.052c-.1-.052.052-.258-.155-.155s-.309.361-.413.361h-.052a1.013,1.013,0,0,0-.516.155c-.155.052.052.309-.206.413s-.052-.1-.309.1-.309.413-.413.413-.052.052-.258.1a.907.907,0,0,1-.309.052c-.1,0,0,.052-.258,0s-.464.052-.413.155.928.361.258.309c-.67,0-.464.1-.309.206s.206.206.258.206.206.309.206.309.206,0,.052.155.052.206-.052.413-.1.052-.206.1-.258.206-.464.052a2.033,2.033,0,0,0-.722-.258c-.309,0-.1-.052-.309.1a.657.657,0,0,0-.258.567,2.475,2.475,0,0,1,0,.619.711.711,0,0,0,0,.464.558.558,0,0,0,.206.309s.309.052.413.052a.649.649,0,0,1,.413.052c.206.1.361.155.464,0s.567-.309.722-.464.258-.206.155-.309c-.052-.155.155-.464.258-.567.1-.052.361-.155.361-.155l.258-.413s.258-.258.361-.258.774.258.722-.052c-.1-.1,0-.206.1-.1.052.1.258.052.258.052s.1-.052.155,0,.155.361.309.464a2.242,2.242,0,0,1,.361.206c.1.052.206,0,.361.155a4.113,4.113,0,0,0,.413.309c0,.052.206.258.206.258s.155.052.1.155a1.055,1.055,0,0,1-.413.413c-.1.052-.413-.052-.309.052s.258.206.361.155l.516-.516v-.1c0-.1,0-.309.1-.258s.206.155.258.052.1-.052,0-.1-.413-.464-.516-.464c-.155,0-.464-.258-.464-.258l-.258-.258c-.155-.206-.206-.155-.258-.309s-.206-.361.052-.309a2.14,2.14,0,0,1,.67.361c.258.155.206.206.413.309.206.155.258.258.413.258a.341.341,0,0,1,.361.309c0,.206.052.464.1.464.052.052.206.155.258.258l.206.413c.052.1.155.155.206.258s.1,0,.155,0a.1.1,0,0,0,.155-.052v-.258s.309-.1.258-.155c-.1-.052-.361-.309-.361-.413s0-.258.1-.258.258.258.464.052.567-.258.464,0,0,.309,0,.619.1.206.258.361a.912.912,0,0,0,.413.258c.1.052.309,0,.464.052.206,0,.309-.052.464,0a2.475,2.475,0,0,0,.619,0c.052.052.361-.1.361.052s.1,0,.052.361a2.967,2.967,0,0,1-.155.619c-.258.464-.361.619-.464.619s-.206.1-.413.052a4.453,4.453,0,0,1-.773-.052,6.922,6.922,0,0,1-1.083-.052c-.206-.1-.567,0-.722-.206-.155-.155-.361-.155-.464-.258s-.155-.361-.155,0-.206.413-.258.567c-.052.206.052.1-.206.052a.836.836,0,0,1-.722-.155c-.361-.258-.567-.258-.722-.413-.206-.1-.361.206-.567-.155s-.464-.052-.464-.361V40.16c0-.206.258-.361.155-.413s0-.206-.206-.1c-.155.052-.413.1-.567.155-.206.052.413,0-.464.052a4.607,4.607,0,0,0-1.186.155s-.052-.052-.206.052c-.1.1-.258.258-.464.155a.569.569,0,0,0-.413,0c-.155,0-.258-.1-.413,0s-.361.155-.413.1-.206-.258-.206-.258h0l-.361.464-.258.258-.464.258.052.258s-.206.206-.155.309v.309a4.759,4.759,0,0,1-.464.413,1.588,1.588,0,0,0-.309.309.724.724,0,0,1-.206.206,1.635,1.635,0,0,0-.258.309,1.963,1.963,0,0,1-.258.309,1.22,1.22,0,0,0-.258.464,1.974,1.974,0,0,1-.258.567l-.052.1a1.618,1.618,0,0,0,.052.619c.052.155.1.1.052.413a3.854,3.854,0,0,1-.1.567,4.79,4.79,0,0,1-.258.516c-.052.1.1.309.1.309s.052.309,0,.361,0,.206,0,.206a2.579,2.579,0,0,1,.361.258c.1.1.258.258.258.309a2.09,2.09,0,0,0,.258.464,4.759,4.759,0,0,0,.258.413c.052.052.258.309.258.309s.309.258.361.309c.052.1.258.155.361.206.052.052.258.052.309.1.1.052.258-.052.361,0a.556.556,0,0,0,.413-.1c.052-.052.258-.206.361-.155s.206,0,.258,0c.1,0,.258-.1.309-.1.1,0,.309-.1.413-.1a3.552,3.552,0,0,1,.413-.155c.1,0,.206-.1.309-.052s.052-.1.258,0c.206.052.258,0,.361.052.052.052.155,0,.258.1.052.1.206.155.206.258s.155.206.155.206h.155s.206-.155.258-.052.258.052.258.052l.206.258.052.1a1.109,1.109,0,0,1,.1.516c0,.155,0,.464-.1.516a1.312,1.312,0,0,0-.1.361s-.1.1.1.258a1.55,1.55,0,0,1,.413.464c.052.1.258.361.258.516a.979.979,0,0,0,.155.464c.1.206.206.258.258.464,0,.258.052.258.052.413s-.1.206,0,.309a1.348,1.348,0,0,1,.155.413c0,.052-.052.361-.052.361l-.052.155-.052.464-.155.206a.936.936,0,0,0-.1.567c0,.258-.1.258.052.464a5.152,5.152,0,0,1,.413.722,1.53,1.53,0,0,1,.206.567c0,.155.1.206.155.361a1.282,1.282,0,0,1,.052.413V59.7c.052.052.052.258.1.361,0,.1-.052.1.052.258s.258.258.309.361c.1.1.052.052.155.258a3.04,3.04,0,0,1,.206.413,3.549,3.549,0,0,0,.1.67,1.523,1.523,0,0,0,.155.309,1.232,1.232,0,0,0,.361.155c.1,0,.258-.258.413-.155a.842.842,0,0,0,.361,0c.1,0,.258-.155.361-.155s.258-.206.361-.155.206-.052.309-.155l.413-.413.309-.309c.1-.1.258-.361.464-.413.155-.052.206-.206.258-.309s.052-.206.155-.258a2.682,2.682,0,0,1,.155-.258.713.713,0,0,1,.361-.464c.1-.052.206-.206.258-.258.052,0,.206.052.155-.155s0-.516-.052-.567-.1.155-.1-.206a1.463,1.463,0,0,1,.258-.722,3.762,3.762,0,0,1,.464-.516c.1-.052.155-.155.309-.258s.516-.309.516-.464a4.867,4.867,0,0,1,.155-.464,3.472,3.472,0,0,0-.052-.516c-.052-.413.052-.309-.1-.67s-.155-.825-.258-.928-.052-.413-.052-.516a.912.912,0,0,1,.258-.413,4.994,4.994,0,0,1,.361-.464,7.716,7.716,0,0,0,.619-.774,1.819,1.819,0,0,1,.464-.567,2.569,2.569,0,0,0,.567-.516c.155-.206.464-.67.516-.722a1.6,1.6,0,0,1,.206-.309,2.317,2.317,0,0,0,.309-.464c.052-.155.258-1.083.258-1.031a.971.971,0,0,1-.413.1c-.1,0,.155.1-.516.052a3.227,3.227,0,0,0-1.031.052c-.206-.052-.361.206-.464-.155a1.505,1.505,0,0,0-.258-.722c-.155-.258-.258-.309-.464-.619s-.206-.155-.361-.413-.258-.155-.361-.464-.206-.206-.361-.619a5.9,5.9,0,0,1-.309-.722c-.052-.258-.155-.309-.206-.516a6.5,6.5,0,0,0-.67-1.341,1.342,1.342,0,0,1-.155-.361c0,.052.361.309.361.309a2.234,2.234,0,0,1,.258-.052c.052,0,.361.258.361.361s.464.516.619.877c.1.309.258.567.258.67a2.7,2.7,0,0,0,.361.619c.1.155.413.413.464.567s.464.619.464.928a1.651,1.651,0,0,0,.258.774c0,.1.464.206.464.206l.567-.155a7.483,7.483,0,0,1,.928-.516,6.507,6.507,0,0,0,.825-.361s.309-.258.516-.464c.206-.155.464-.464.464-.619.052-.155.155-.155.309-.361.206-.206.464-.413.258-.567-.155-.155-.258-.1-.464-.309a1.422,1.422,0,0,1-.361-.464c-.155-.309,0-.67-.309-.309-.361.361-.206.464-.567.516s-.464.309-.67.052c-.155-.258-.309-.1-.413-.464a3.3,3.3,0,0,0-.206-.516c0-.155,0-.155-.206-.464-.206-.361-.052-.877.052-.567s.309.361.619.567a2.115,2.115,0,0,0,.722.413,1.451,1.451,0,0,1,.567.052c.052.052.1,0,.206,0,.1.052.155-.052.206.1.052.206.309.206.413.309s.1.052.413.1a5.326,5.326,0,0,0,.722.052h.464l.516.052a2.021,2.021,0,0,0,.464.206c.1,0,.1.258.361.413a1.424,1.424,0,0,1,.413.309c.155.155.1.258.309.413a.374.374,0,0,0,.516-.1c.052-.052.258-.206.258,0s.258.1.155.567c-.052.464-.1.309,0,.619s.619,1.238.67,1.5.155.206.206.464c0,.258.155.361.155.516,0,.206.155.258.206.361,0,.155.258,0,.361,0a2.861,2.861,0,0,0,.413-.309s.155-.052.1-.258v-.516c0-.361-.155-.361-.052-.722a2.464,2.464,0,0,1,.309-.722,1.189,1.189,0,0,1,.309-.464,1.683,1.683,0,0,0,.722-.464,4.188,4.188,0,0,1,.464-.516c.206-.206.516-.413.567-.361s.052.052.155.052.309.1.464.1.464.413.567.619c.052.206,0,.155.258.464s.464.1.464.464,0,.361.1.464c.1.155.258-.258.413-.206s.155-.052.258.309.206.361.206.722v.928c.052.258.206.361.206.413a1.593,1.593,0,0,0,.1-.67,1.183,1.183,0,0,1,.1-.774c.1-.1.258-.258.309.052.1.309.155.052.361.413s.413.258.413.464c0,.155.155.206.309.309.155.155.309,0,.464-.155.206-.155.722-.67.722-.877s.258-.155-.155-.722c-.361-.516-.361-.722-.773-1.031s-.619-.361-.309-.774.464-.722.619-.567c.206.1.516.1.516.567S110.442,46.039,110.751,45.472Z" transform="translate(-34.717 -11.467)"/>
    <path id="Path_81" data-name="Path 81" d="M109.6,81.516,109.5,81a4.466,4.466,0,0,1-.258.619l-.464.258s-.155.155-.258.155a.84.84,0,0,0-.309.155s-.206-.052-.155.155.1.464.052.516v.413c0,.206-.052.413-.206.464-.1.052-.258.1-.206.258a2.829,2.829,0,0,1,0,.67l.309.464a.626.626,0,0,1,.258-.052.569.569,0,0,0,.361-.155s.206.052.206-.206.1-.567.052-.619c0-.052.206-.361.206-.464,0-.052.258-.413.258-.516s.155-.309.206-.464a1.934,1.934,0,0,1,.052-.567c.052-.1,0-.206,0-.258Z" transform="translate(-50.942 -36.991)"/>
    <path id="Path_82" data-name="Path 82" d="M111.3,80.9h0c.052.052.052,0,0,0Z" transform="translate(-52.695 -36.942)"/>
    <path id="Path_83" data-name="Path 83" d="M156.745,84.4c-.155-.258.052-.309-.155-.413s-.361-.052-.413-.206-.258-.155-.309-.567c-.052-.464-.361-.464-.361-.464s-.258-.1-.206-.155a.689.689,0,0,0,.052-.464.848.848,0,0,0-.1-.464,1.832,1.832,0,0,0-.206-.464c-.052-.155-.206-.206-.258-.413a.54.54,0,0,0-.155-.309c0-.052-.052-.258-.1,0s-.155.722-.155.722l-.258.516c-.052.1-.155.413-.258.413s-.206.1-.258.1c-.1,0-.258,0-.309-.052s-.258-.258-.361-.258-.155-.206-.258-.206c-.052,0-.206-.155-.155-.258,0-.1.052-.309.052-.413a.84.84,0,0,1,.155-.309s0-.155-.1-.155h-.413a2.777,2.777,0,0,1-.413-.052c-.1,0,.1-.052-.155,0s-.361.258-.516.413,0,.1-.155.155-.1-.1-.206.155.052.309,0,.361-.567-.155-.567-.155.1,0,0-.155c-.1-.1-.206-.258-.309-.206a.6.6,0,0,0-.361.258c-.1.1-.1.206-.155.309s-.258.1-.258.206,0,.309-.1.361c-.052,0-.1-.1-.155-.1s-.052-.206-.1-.1-.1.1-.155.258c-.052.206-.1.361-.155.361s0,.052-.206.155-.258.1-.567.258-.258.155-.464.155-.258.1-.413.1a.389.389,0,0,0-.361.206.447.447,0,0,1-.361.206.36.36,0,0,0-.206.1c-.052.1-.1,1.083-.155,1.186a2.412,2.412,0,0,0-.1.877,2.232,2.232,0,0,1,.052.825c-.052.155,0,.67-.1.67s-.155,0-.155.1c0,.052.155.206.155.206h.413c.155,0,.361-.155.516-.155.206,0,.309-.155.464-.155s.516-.1.619-.052.258-.258.413-.206.516-.155.67-.155.258-.258.413-.206.516-.1.722,0c.155.052.413-.258.516,0s.464.309.464.464V87.6h.258a4.791,4.791,0,0,1,.516-.258c.052,0,.258-.258.258-.1a1.832,1.832,0,0,1-.206.464c-.052.1.052.258.052.258s.258.1.155.309,0,.155,0,.309,0,.1.1.206.258.258.413.258.206-.155.309-.1.361,0,.413.1-.464.309.464-.052.98-.464,1.083-.619a2.382,2.382,0,0,1,.361-.361c.1-.1,0-.052.309-.258.258-.206.258-.1.516-.516s.464-.516.464-.619a.387.387,0,0,0,.155-.361c0-.258.206-.516.206-.619s.052-.258.052-.413C156.8,84.864,156.9,84.658,156.745,84.4Z" transform="translate(-69.211 -36.678)"/>
    <path id="Path_84" data-name="Path 84" d="M146.054,72.294a2.829,2.829,0,0,1,.67,0,1.823,1.823,0,0,0,.309.052c.1,0,.155-.052.206-.052s.206-.258.206-.258-.1-.1.052-.258.309-.206.309-.361-.052-.155,0-.258.258-.052.206-.155.052-.052-.052-.258-.206-.258-.1-.464c.1-.258.206-.258.155-.413,0-.155.1-.206-.052-.361a1.19,1.19,0,0,0-.361-.258l-.1-.052c-.1.155-.413.567-.516.567s-.258.155-.309.1-.309,0-.361.309-.206.464-.258.464.1.464-.258.258-.258.155-.309.258.052.361.1.464a1.015,1.015,0,0,0,.206.413A.241.241,0,0,0,146.054,72.294Z" transform="translate(-69.246 -31.276)"/>
    <path id="Path_85" data-name="Path 85" d="M163.166,76.548c-.155-.1-.258-.206-.722-.567s-.155-.1-.1-.413c.052-.258-.052-.052-.155-.206-.1-.1,0-.206-.258-.464s-.1-.1-.361-.206-.361-.052-.516-.258c-.206-.155-.464-.1-.722-.258-.309-.155-.361-.052-.413-.155s-.1-.052-.258-.052-.155,0-.206.206-.258.206-.413.309-.258.052-.413-.206-.155-.1-.206-.516c0-.413-.361-.206-.464-.155,0,0-.258-.052-.258,0v.052l.361.258c.361.258,0,.258,0,.258a.27.27,0,0,0,.052.258c.1.1.258.052.413.1a.9.9,0,0,0,.258.052h.1s.258.1.413.155.155.206.309.258.1.258.1.258a.591.591,0,0,1,0,.309c-.052.155.052.206.258.1.206-.052.155.052.258.155a.539.539,0,0,0,.567.1c.206-.052.155.206.309,0s.258-.309.413-.309.206.052.258.206.361.258.516.413a2.3,2.3,0,0,0,.413.258,2.125,2.125,0,0,0,.619.052C163.424,76.806,163.321,76.651,163.166,76.548Z" transform="translate(-75.168 -33.364)"/>
    <path id="Path_86" data-name="Path 86" d="M140.385,72.73a.546.546,0,0,0-.206-.309c-.1-.052-.206-.258-.361-.516-.155-.309,0,0-.361-.464s-.309-.206-.567-.361a4.992,4.992,0,0,1-.464-.361c-.1-.155-.258-.516-.464-.516a.452.452,0,0,1-.309-.1H137.6a3.8,3.8,0,0,0,.258.309,1.016,1.016,0,0,0,.206.413,2.579,2.579,0,0,1,.258.361c.1.052.258.464.361.619.052.155.206.258.309.413a7.812,7.812,0,0,0,.464.722c.206.258.258.413.361.516a.923.923,0,0,0,.361.258s.1,0,.258-.206a.48.48,0,0,0,.1-.413C140.591,72.988,140.436,72.781,140.385,72.73Z" transform="translate(-65.433 -31.711)"/>
    <path id="Path_87" data-name="Path 87" d="M51.359,71.423c.052-.155-.258-.1-.309-.258-.1-.155-.155,0-.258-.1s-.258-.052-.361-.258c-.052-.206-.413-.1-.722-.309s-.206,0-.413-.052-.413,0-.464-.052-.206.206-.309,0c-.1-.155-.1-.052-.464-.361s-.155-.1-.413-.155c-.155-.052-.206.052-.206.1v-.206c0-.155,0,0-.155-.052a.4.4,0,0,0-.258,0,3.17,3.17,0,0,0-.567.155c-.155,0,.206-.155.413-.516s-.052-.361-.155-.722-.309-.413-.567-.567c-.258-.206-.1-.052-.258-.052a.568.568,0,0,1-.464-.155c-.155-.155-.258-.052-.309-.206s-.155-.155-.413-.464a1.135,1.135,0,0,0-.619-.309c-.206-.052-.258-.1-.567-.361-.1-.1-.155-.1-.206-.1,0,0,.052,0,.1-.1.052-.258-.464,0-.877-.1-.413-.052-.361.1-.464,0-.052-.155-.155-.1-.361-.206a.611.611,0,0,1-.361-.206c-.1-.1-.052,0-.258.464-.206.413-.052.258-.155.361s-.258.155-.206-.206,0-.1-.206-.567-.309.258-.413.258c-.052,0-.361.052-.361.052a4.274,4.274,0,0,1-.567.67c-.206.155-.258.258-.206.361.052.155-.052.309.206.464.258.206-.155.309-.155.516a1.151,1.151,0,0,1-.258.516l-.361.567a1.873,1.873,0,0,1-.361.464.343.343,0,0,0,0,.516c.155.155.1.206.155.258s-.309.258-.309.258l.052.464s.516.619.567.67a4.986,4.986,0,0,1,.361.619,2.858,2.858,0,0,1,.258.67c.1.1.206.516.309.619a6.549,6.549,0,0,0,.619.516c.1.1.516.413.722.567a.951.951,0,0,0,.619.258c.258,0,0,.206.309.361s-.052.619,0,.98-.052.774,0,.928a7,7,0,0,0,.052.928,6.614,6.614,0,0,1,.052.928c.052.206.1,1.031.1,1.031l.155,1.908a.724.724,0,0,0,.206.206c.1.052.155.309.258.361s.1.258.155.464.052.258.206.309c.1.052,0,.258,0,.309s-.155.155-.206.309.258.516.258.516l.258.464s.361.516.464.619a6.575,6.575,0,0,0,.619.361,1.364,1.364,0,0,0,.464,0c.1-.052,0,0-.052-.155a.51.51,0,0,1-.052-.413c0-.258.1-.258.258-.516.1-.258,0-.155,0-.516s-.155-.258-.361-.258-.052-.258-.052-.361c0-.052.052-.155.206-.258a.319.319,0,0,0,.1-.206.649.649,0,0,0-.052-.413c-.1-.155-.1-.206-.206-.258s-.052-.309-.052-.309l.155-.052.052.1a1.025,1.025,0,0,0,.413,0c.155-.052.052-.258.052-.567s.052-.1.1-.206.258.052.361.1.155-.052.206-.052.155-.309.309-.361,0,0,.052-.1a1.655,1.655,0,0,1,.155-.258c.1-.155-.258-.206-.464-.361s-.258-.258-.258-.413c.052-.155.1.052.464.155s.309,0,.413.052.052-.052.052-.052.258-.052.309-.258c.1-.155,0,0,.1-.206s.1-.1.413-.464.052-.1.052-.258a3.287,3.287,0,0,0,.1-.464c0-.155.206-.258.361-.619s.155-.413,0-.67.309-.413.464-.464a4.4,4.4,0,0,0,.774-.206,1.037,1.037,0,0,0,.413-.206c.258-.155.155.052.258-.206.052-.258.1-.206.309-.722s.052-.155.1-.413a3.808,3.808,0,0,1,.1-.619,4.008,4.008,0,0,1,.1-.825c.052-.309,0,0,.1-.309a3.336,3.336,0,0,1,.206-.67c.1-.309.1-.1.206-.206s.1-.258.258-.309.309-.464.361-.722C51.462,71.526,51.359,71.578,51.359,71.423Z" transform="translate(-17.145 -29.58)"/>
    <path id="Path_88" data-name="Path 88" d="M25.345,49.964a.23.23,0,0,0-.206-.155c-.1,0-.361-.309-.361-.309a.4.4,0,0,1-.1-.258,1.661,1.661,0,0,1,0-.722,1.9,1.9,0,0,0,.052-.722c0-.1.1-.1-.052-.206a1.529,1.529,0,0,0-.722-.1,1.109,1.109,0,0,0-.516.1,4.245,4.245,0,0,1,.309-.825A4.042,4.042,0,0,0,24,46.045c0-.052.052-.1-.052-.206a.464.464,0,0,0-.516-.052c-.155.052-.1-.1-.258.206a1.61,1.61,0,0,1-.361.619,2.868,2.868,0,0,0-.413.206,1.776,1.776,0,0,1-.464-.052,1.435,1.435,0,0,1-.722-.464,1.588,1.588,0,0,1-.155-.67c0-.155.258-.67.258-.774s.258-.567.258-.67a1.214,1.214,0,0,1,.1-.413c.052-.1.413-.206.516-.309a1.123,1.123,0,0,1,.413-.258,1.594,1.594,0,0,1,.413-.1c.1,0,.413-.258.464,0s.258.155.361.206.155.155.309-.155c.206-.309.361-.413.361-.309,0,.052.309,0,.361.052s.155-.052.309.1.413.155.361.258c0,.052.1.052.1.155,0,.052.1-.155.1.258a1.965,1.965,0,0,0,.1.67s.155.361.258.258c.052-.052.206-.258.206-.258s.258-.155.052-.619a3.01,3.01,0,0,1-.1-.774c0-.206,0-.258.258-.464a11.167,11.167,0,0,1,1.134-.774c.155-.1.516-.361.516-.361a.257.257,0,0,0,.155-.258c0-.206.464-.516.464-.619s.309-.309.309-.309.309-.206.309-.309.413-.309.464-.309.516.1.516-.1,0-.258.258-.464.516-.464.67-.464a3.581,3.581,0,0,0,.67-.258c.155-.052.67-.258.206,0s-.155.1-.258.361-.155.516.258.206c.464-.361.413-.413.567-.464.155,0,.052.052.413-.052s.361-.155.361-.155.155-.155.052-.206.1-.155-.258,0-.309.155-.567.1-.567-.052-.309-.258c.258-.258.567-.309.361-.413a1.437,1.437,0,0,0-.825.052h-.361c-.155,0-.1-.206,0-.258a2.6,2.6,0,0,1,.774-.258,8.084,8.084,0,0,1,1.5-.1,1.485,1.485,0,0,0,.67-.052,2.25,2.25,0,0,0,.516-.413,1.161,1.161,0,0,1,.258-.258s.206-.206.1-.309-.258-.309-.309-.258c-.1.052,0,.309-.206,0s-.155-.361-.258-.413-.206,0-.1-.361.052-.464.052-.464.052-.258,0-.309c-.052,0-.1-.1-.258,0-.1.052-.774.413-.928.464s-.309-.258-.258-.464c.052-.155,0-.052-.052-.309-.1-.258-.464-.258-.619-.258s-.464-.206-.567-.052a3.663,3.663,0,0,1-.67.619c-.1.052-.258-.413-.309.309s.258.928-.1.98a2.378,2.378,0,0,0-.722.258s-.309,0-.309.206-.1.619-.258.67a.713.713,0,0,1-.619-.155c-.155-.155,0-.67,0-.67l.206-.206a11.878,11.878,0,0,1-1.444-.309c0-.1-.464-.258-.464-.413a1.055,1.055,0,0,1,0-.567,3.234,3.234,0,0,1,.98-.774c.309-.1.877-.361,1.031-.413s.464,0,.516-.155a.509.509,0,0,0,.1-.309s-.052-.309.052-.258.258.1.258.206c0,.052,0,.258.206.052a1.742,1.742,0,0,1,.567-.361c.206-.1.464-.052.619-.155s.464-.206.464-.413c0-.258-.052-.155-.206-.206-.1,0,.052,0-.361.206s-.258.052-.567.206-.309.155-.309.052a1.823,1.823,0,0,1,.052-.309L30.5,31.4c-.155-.052-.155,0-.206-.206,0-.206.1-.516-.1-.413s-.464-.052-.619.413-.722.928-.877.825-.155-.155-.258-.155-.258-.155-.464-.155H27c-.155,0-.361-.1-.464.052-.155.155-.361.309-.361.413s-.206-.258-.258-.258a2.125,2.125,0,0,0-.464-.1,1.5,1.5,0,0,1-.413-.1c-.052,0,.052-.206,0-.206s-1.6-.052-1.6-.052a1.583,1.583,0,0,0-.67-.155,10.635,10.635,0,0,0-1.083.1c-.361.052-.98.309-1.186.309s-.619,0-.67-.1,0-.1-.052-.1c-.1,0,0-.052-.258-.258-.206-.155.1-.309-.309-.309H18.178a12.1,12.1,0,0,0-1.238.206,5.6,5.6,0,0,1-.928.052c-.1-.052-.722.258-.825.258s-.567,0-.67.1c-.1.052-.67.206-.464.309s.155.258.206.309c0,.052-.206.258-.206.258a1.3,1.3,0,0,1-.309-.1.787.787,0,0,0-.67-.052c-.1.052-.309.206-.258.309s.361.309.413.258.155-.206.309-.206.361-.1.155.155-.361.361-.464.361-.413.052-.67.052-.258-.1-.464.155c-.258.258-.309.1-.361.361s-.1.258,0,.309-.206.1,0,.155.464.155.464.206.258-.1.1.1-.258.361.052.155c.258-.206.464-.052.67-.155a3.741,3.741,0,0,0,.619-.258c.155-.1.206-.258.413-.309s.052,0,.1.155,0,.155.155.052.155,0,.309-.155.413-.258.516-.155a.69.69,0,0,0,.258.052h.1c.206,0-.1-.052.619.1s.877.052.928.309.155,0,.258.155.206,0,.258.309a3.889,3.889,0,0,1-.052,1.134c-.052.1-.052.1-.052.309s.309,1.186.206,1.289a.509.509,0,0,1-.309.1l-.1.413a3.253,3.253,0,0,1-.361.516c-.155.206-.361.413-.464.567a3.846,3.846,0,0,1-.361.619c-.155.155-.309.1-.258.464s0,.722.052.98a1.936,1.936,0,0,0,.258.722,1.635,1.635,0,0,0,.309.258c.155.1.361.258.361.361v.825a1.128,1.128,0,0,1,.155.464.984.984,0,0,0,.206.516l.155.309s.052,0,.155.206.1.206.1.258v.052c0-.052-.052-.413-.052-.516-.052-.1-.052-.258-.1-.413s0-.309-.1-.516a.927.927,0,0,1-.206-.464c-.1-.155-.155-.413-.1-.464.1-.052.155-.361.361,0s.206.258.258.516a.8.8,0,0,0,.155.464c.052.1.258.516.309.67.1.155,0-.1.206.258a2.9,2.9,0,0,1,.361.67c.1.258.206.258.258.464s0,.155,0,.361a.9.9,0,0,0,.052.464s.309.1.361.206.361.206.413.258c.052.1.361.206.361.206s.258.155.361.206a2.1,2.1,0,0,0,.361.1,2.233,2.233,0,0,0,.258.052h.258s.206-.155.258-.1.258-.1.309,0,.206.1.258.206.155.1.258.206.258.1.361.206a.435.435,0,0,0,.361.1h.258c.1,0,.155-.052.258.052s.155.206.258.309c.052.1.258.1.258.309s.052.155.052.309.1.258.155.258c.052.052.309.258.309.258l.361.052.258.206.309.1Z" transform="translate(-4.436 -12.658)"/>
    <path id="Path_89" data-name="Path 89" d="M51.4,26.6Z" transform="translate(-23.684 -10.643)"/>
    <path id="Path_90" data-name="Path 90" d="M63.473,28.471c.206-.155.258-.206.309-.413s-.155-.309.052-.722.258-.052.928-.258c.67-.258.155-.464.464-.774a1.467,1.467,0,0,1,.722-.464c.464-.206,0,0-.052-.258s-.361,0-.619-.206-.413.052-.619.052-.413.052-.928.052c-.464-.052-.928.052-1.134,0-.258-.052-.464.052-1.083,0s-.722.258-.877.1-.619.361-1.134.361h-.98c-.309,0-.464-.258-.877-.361a4.138,4.138,0,0,0-.928-.206c-.413-.052-.516-.155-.928-.206-.361-.052-.155-.052-.928.1s-.464.1-.722.309A3.592,3.592,0,0,1,53,25.738l-1.8.155s.309.155.206.206,0,.052.155.258.258.206.722.258.206.052.206.052a2.063,2.063,0,0,0,.464.155c.258.052.1.1.619-.155.464-.258.1-.052.309,0s0,0,.206-.258.619-.206.98-.309a4.115,4.115,0,0,1,.825-.155c.155-.052.722-.155,1.186-.258s-.052.206.155.258-.413.309-.413.309-.464-.052-.928-.052c-.464.052-.052.309.1.258s.258.052.619.1.309.155.567.361.258.155.413.361.1.361.206.619a3.245,3.245,0,0,1,.155.619s-.1.258-.206.309a1.161,1.161,0,0,1-.67.052c-.361-.052-.052.413,0,.619a2.975,2.975,0,0,0,.155.722c.1.155.206.361.361.567.155.155.258.155.464.309s.619-.516.774-.722c.155-.155.052-.206.258-.464s.361-.258,1.134-.464c.722-.206.361-.309.464-.361a3.113,3.113,0,0,1,.825-.258,7.026,7.026,0,0,0,1.031-.206C63.267,28.471,63.267,28.678,63.473,28.471Z" transform="translate(-23.587 -9.936)"/>
    <path id="Path_91" data-name="Path 91" d="M50.883,30.48c.206-.1-.052-.464.774-.155.825.258.722-.052.928.361s.309.722.206.825a.882.882,0,0,1-.464.309c-.361.1-.464.258-.258.413.258.155.722.361.928.464s.825.155.516-.206.052-.464.052-.464.619.464.361-.052c-.206-.516-.361-.516-.206-.516a1.13,1.13,0,0,1,.413.155l.155-.258-.155-.464-.464-.464s.361-.361-.155-.413a1.067,1.067,0,0,1-.774-.258c-.309-.206-.309-.258-.825-.155s-.722.155-.722.155l-.258-.258c-.155.155-.619.413-.464.516C50.574,30.17,50.677,30.583,50.883,30.48Z" transform="translate(-23.219 -12.048)"/>
    <path id="Path_92" data-name="Path 92" d="M36.813,29.944c.155.1.309.052.516.052s.1-.052.052.258.155.258.258.361c.052.1.155-.052.464.052.309.052.155.052.464-.052.258-.155.413-.052.619.052.155.1.619-.155.98-.206s.052-.155.206-.67c.155-.464-.619.155-.825.052s-.464.155-.67.052a2.72,2.72,0,0,1-.722-.516c-.258-.206-.567.052-.774-.1s-.774.361-.98.567A.886.886,0,0,1,36.813,29.944Z" transform="translate(-16.419 -11.924)"/>
    <path id="Path_93" data-name="Path 93" d="M92.227,9.3a1.793,1.793,0,0,0-1.392-.567L65.876,9.2h-.155L46.384,4.664a2.5,2.5,0,0,0-.877,0l-19.7,4.074a.18.18,0,0,0-.1.052H4.253A1.782,1.782,0,0,0,2.5,10.8V61.7a1.942,1.942,0,0,0,.567,1.547,1.922,1.922,0,0,0,1.547.464l22.38-3.352H27.2l17.791,3.507c.155,0,.258.052.413.052h.309l20.833-3.042H66.7l24.03,2.888a1.694,1.694,0,0,0,1.444-.516,1.943,1.943,0,0,0,.567-1.5v-51A2.162,2.162,0,0,0,92.227,9.3ZM91.659,61.7c0,.155-.155.309-.258.464a.871.871,0,0,1-.516.155l-24.03-2.888h-.567L45.455,62.47h-.206L27.458,58.964c-.155,0-.258-.052-.413-.052h-.309L4.3,62.213a.632.632,0,0,1-.567-.155.592.592,0,0,1-.258-.464V10.749c0-.309.413-.464.722-.464H25.654c.155,0,.258-.1.413-.1l19.7-4.074c.1,0,.155-.052.258,0L65.36,10.645a1.59,1.59,0,0,0,.516.052l25.01-.464a1,1,0,0,1,.516.155c.1.1.258.258.258.413Z"/>
  </g>
</svg>
