<svg xmlns="http://www.w3.org/2000/svg" width="29.959" height="64" viewBox="0 0 29.959 64">
  <g id="noun_Roaster_Coffee_1565932" data-name="noun_Roaster Coffee_1565932" transform="translate(-35.02 -17.999)">
    <path id="Path_95" data-name="Path 95" d="M64.979,65.431c0-1.6-2.181-2.616-5.016-3.236l-2.591-7.569a10.263,10.263,0,0,0-2.641-17.444V32.535a.97.97,0,0,0-.97-.97h-.176V27.973l6.258-4.9h.005a.969.969,0,0,0,.97-.969v-3.14a.97.97,0,0,0-.97-.97H41.869a.97.97,0,0,0-.97.97v3.14a.969.969,0,0,0,.97.969h.006l6.257,4.9v1.548H46.615v-.333A.937.937,0,0,0,46.6,29.1a1.273,1.273,0,1,0-1.9,0c0,.032-.019.061-.019.094v1.3a.97.97,0,0,0,.97.97h2.486v.1h-.176a.97.97,0,0,0-.97.97v4.647a10.225,10.225,0,0,0-6.131,11.8H35.99a.97.97,0,0,0-.97.97v1.718a.97.97,0,1,0,1.94,0V50.92h4.55a10.328,10.328,0,0,0,2.835,3.705l-2.59,7.569c-2.836.62-5.017,1.638-5.017,3.236,0,.029.014.056.015.084s-.015.048-.015.073V77.91c0,3.229,8.876,4.089,14.121,4.089s14.12-.861,14.12-4.09V65.588c0-.025-.013-.048-.015-.073S64.979,65.46,64.979,65.431ZM52.792,33.5V43.59H48.926V33.5h3.866ZM42.839,19.939h16.04v1.2H42.839Zm13.855,3.139-4.412,3.451H49.435l-4.412-3.451Zm-6.623,5.391h1.575v3.1H50.071Zm.788,20.511h-8a8.3,8.3,0,0,1,4.131-9.664v5.243a.97.97,0,0,0,.97.97h5.806a.97.97,0,0,0,.97-.97V39.316a8.328,8.328,0,1,1-11.038,11.6H50.86a.97.97,0,1,0,0-1.939Zm-4.845,6.762a10.236,10.236,0,0,0,9.691,0l2.077,6.063a51.643,51.643,0,0,0-13.844,0Zm4.845,7.538c7.252,0,11.6,1.347,12.155,2.15-.557.8-4.9,2.149-12.155,2.149A36.1,36.1,0,0,1,40.48,66.338a.5.5,0,0,0-.069-.021A3.779,3.779,0,0,1,38.7,65.43C39.259,64.627,43.606,63.28,50.859,63.28Zm0,16.781c-7.445,0-11.829-1.419-12.182-2.15V67.669c.143.069.285.138.439.2v5.182a.97.97,0,0,0,1.94,0V68.5a43.73,43.73,0,0,0,9.8,1.021c3.729,0,9.277-.44,12.183-1.852l.008,10.181C62.688,78.642,58.3,80.061,50.859,80.061Z"/>
    <circle id="Ellipse_1" data-name="Ellipse 1" cx="1.007" cy="1.007" r="1.007" transform="translate(49.852 45.685)"/>
    <path id="Path_96" data-name="Path 96" d="M40.087,74.571a.97.97,0,0,0-.97.97v.908a.97.97,0,0,0,1.94,0v-.908A.97.97,0,0,0,40.087,74.571Z"/>
  </g>
</svg>
