<svg id="noun_Aeropress_1675763" xmlns="http://www.w3.org/2000/svg" width="11.551" height="23.898" viewBox="0 0 11.551 23.898">
  <path id="Path_58" data-name="Path 58" d="M20.39,25.9h6.373a.8.8,0,0,0,.8-.8V23.907h.8a1.2,1.2,0,0,0,1.195-1.195V19.525a1.2,1.2,0,0,0-1.195-1.195h-.8v-.8h1.195a.4.4,0,0,0,.4-.4V15.542a.4.4,0,0,0-.4-.4h-.8V5.983a.4.4,0,0,0-.4-.4H26.364V2.8h1.593V2H19.195v.8h1.593V5.585H19.593a.4.4,0,0,0-.4.4v9.161h-.8a.4.4,0,0,0-.4.4v1.593a.4.4,0,0,0,.4.4h1.195V25.1A.8.8,0,0,0,20.39,25.9Zm0-.8V21.517h6.373V25.1Zm7.966-5.975a.4.4,0,0,1,.4.4v3.186a.4.4,0,0,1-.4.4h-.8V19.127ZM26.763,20.72H20.39V17.534h6.373ZM21.585,2.8h3.983V5.585H21.585Zm0,3.585h3.983v7.169H21.585ZM18.8,15.941h.8a.4.4,0,0,0,.4-.4V6.381h.8v7.568a.4.4,0,0,0,.4.4h4.78a.4.4,0,0,0,.4-.4V6.381h.8v9.161a.4.4,0,0,0,.4.4h.8v.8H18.8Z" transform="translate(-18 -2)"/>
  <rect id="Rectangle_7" data-name="Rectangle 7" width="2" height="2" transform="translate(4.726 4.268)"/>
  <rect id="Rectangle_8" data-name="Rectangle 8" width="2" transform="translate(4.726 7.268)"/>
  <rect id="Rectangle_9" data-name="Rectangle 9" width="2" height="2" transform="translate(4.726 7.268)"/>
  <rect id="Rectangle_10" data-name="Rectangle 10" width="2" height="2" transform="translate(4.726 9.268)"/>
</svg>
