<svg xmlns="http://www.w3.org/2000/svg" width="50.619" height="69.4" viewBox="0 0 50.619 69.4">
  <g id="noun_chemex_1025620" transform="translate(-24.731 -15.3)">
    <path id="Path_98" data-name="Path 98" d="M25.1,73.1a8.837,8.837,0,0,0,1.5,8,8.951,8.951,0,0,0,7.2,3.6H66.3a8.814,8.814,0,0,0,7.2-3.6,9.14,9.14,0,0,0,1.5-8V73L67.9,52.5a2.189,2.189,0,0,0,1-.9,3.013,3.013,0,0,0,.4-2.6L66,39.5l3.9-10.4a3.2,3.2,0,0,0-.3-2.7,2.836,2.836,0,0,0-1-.9L71,19.2a3.2,3.2,0,0,0-.3-2.7,2.73,2.73,0,0,0-2.4-1.2H31.7a3.3,3.3,0,0,0-2.4,1.2,2.886,2.886,0,0,0-.3,2.7l2.4,6.3a2.836,2.836,0,0,0-1,.9,2.886,2.886,0,0,0-.3,2.7L34,39.5,30.8,49a2.679,2.679,0,0,0,.4,2.6,2.836,2.836,0,0,0,1,.9L25.1,73ZM35.9,21H64.1l-1.6,4.1H37.4Zm33,56.6a3.317,3.317,0,0,1-2.6,1.3H33.8a3.174,3.174,0,0,1-2.6-1.3,3.307,3.307,0,0,1-.5-2.9l7.6-22H62l7.6,22A4.088,4.088,0,0,1,68.9,77.6ZM39.8,40.4a3.4,3.4,0,0,0,0-2L37,30.9H63l-2.8,7.5a3.4,3.4,0,0,0,0,2l2.3,6.7h-25Z"/>
    <path id="Path_99" data-name="Path 99" d="M61,62.5H39L35.2,73.4A1.2,1.2,0,0,0,36.4,75H63.6a1.282,1.282,0,0,0,1.2-1.6Z"/>
  </g>
</svg>
