<svg xmlns="http://www.w3.org/2000/svg" width="38" height="42" viewBox="0 0 38 42">
  <g id="noun_timer_2965811" transform="translate(-5 -3)">
    <path id="Path_100" data-name="Path 100" d="M38.85,12.56l.71.71a.982.982,0,0,0,.71.29,1.024,1.024,0,0,0,.71-.29,1,1,0,0,0,0-1.41l-1.41-1.41h0L38.16,9.04a1,1,0,0,0-1.41,1.41l.71.71-.75.75A18.971,18.971,0,0,0,25,7.05V5h3a1,1,0,0,0,0-2H20a1,1,0,0,0,0,2h3V7.05a19.033,19.033,0,1,0,15.1,6.26ZM41,26A17,17,0,1,1,24,9,17.024,17.024,0,0,1,41,26Z"/>
    <path id="Path_101" data-name="Path 101" d="M35.31,14.69c-.01-.01-.03-.02-.04-.03a15.958,15.958,0,0,0-22.54,0c-.01.01-.03.01-.04.03a.138.138,0,0,1-.03.04,15.958,15.958,0,0,0,0,22.54c.01.01.01.03.03.04a.138.138,0,0,1,.04.03,15.958,15.958,0,0,0,22.54,0c.01-.01.03-.01.04-.03a.138.138,0,0,1,.03-.04,15.958,15.958,0,0,0,0-22.54C35.33,14.71,35.33,14.7,35.31,14.69Zm2.64,12.3a13.911,13.911,0,0,1-3.39,8.17.991.991,0,0,0-1.4,1.4,13.937,13.937,0,0,1-8.17,3.39.991.991,0,0,0-1.98,0,13.911,13.911,0,0,1-8.17-3.39.991.991,0,0,0-1.4-1.4,13.937,13.937,0,0,1-3.39-8.17.991.991,0,0,0,0-1.98,13.911,13.911,0,0,1,3.39-8.17.983.983,0,0,0,.66.26,1.024,1.024,0,0,0,.71-.29.994.994,0,0,0,.03-1.37,13.937,13.937,0,0,1,8.17-3.39.991.991,0,0,0,1.98,0,13.911,13.911,0,0,1,8.17,3.39.994.994,0,0,0,.03,1.37.991.991,0,0,0,1.37.03,13.937,13.937,0,0,1,3.39,8.17.991.991,0,0,0,0,1.98Z"/>
    <path id="Path_102" data-name="Path 102" d="M25,23.18V15a1,1,0,0,0-2,0v8.18a3,3,0,1,0,2,0Z"/>
  </g>
</svg>
