<svg id="noun_Compass_1335455" xmlns="http://www.w3.org/2000/svg" width="21.21" height="21.252" viewBox="0 0 21.21 21.252">
  <g id="Group_5" data-name="Group 5">
    <path id="Path_94" data-name="Path 94" d="M2.09,10.626A8.448,8.448,0,0,1,3.755,5.558l.477.767a7.6,7.6,0,0,0-1.3,3.884H3.95a.417.417,0,0,1,0,.833H2.933a7.7,7.7,0,0,0,7.257,7.271V17.295a.416.416,0,1,1,.832,0v1.019a7.567,7.567,0,0,0,3.877-1.3l.766.478h0a8.409,8.409,0,0,1-5.058,1.668A8.534,8.534,0,0,1,2.09,10.626Zm15.366,5.068-.477-.767a7.6,7.6,0,0,0,1.3-3.884H17.261a.417.417,0,0,1,0-.833h1.017a7.7,7.7,0,0,0-7.256-7.271V3.957a.416.416,0,1,1-.832,0V2.939a7.567,7.567,0,0,0-3.877,1.3l-.766-.478a8.409,8.409,0,0,1,5.058-1.668,8.534,8.534,0,0,1,8.516,8.532,8.448,8.448,0,0,1-1.665,5.068ZM5.352,4.622h0l-.563-.351ZM8.509,6.591l3.774,2.354.789,1.27,4.683,7.538h0L16.6,15.89h0l1.218,1.961L8.927,12.307,4.571,5.294,4.6,5.34,3.395,3.4l.1.061h0ZM0,10.626a10.6,10.6,0,0,0,17.543,8.036l1.351.842a.416.416,0,0,0,.573-.574l-.841-1.353A10.639,10.639,0,0,0,18.1,3.112,10.588,10.588,0,0,0,3.668,2.59L2.317,1.748a.416.416,0,0,0-.573.574l.841,1.353A10.605,10.605,0,0,0,0,10.626Zm11.5-.893a1.261,1.261,0,1,1-1.784,0,1.267,1.267,0,0,1,1.784,0" fill-rule="evenodd"/>
  </g>
</svg>
