<svg id="trail" xmlns="http://www.w3.org/2000/svg" width="67.593" height="66.233" viewBox="0 0 67.593 66.233">
  <path id="Path_63" data-name="Path 63" d="M57.094,60.941a.934.934,0,0,0,.538,1.167c.808.359,1.615.628,2.423.987.09,0,.179.09.359.09a.785.785,0,0,0,.808-.538.863.863,0,0,0-.538-1.167c-.808-.359-1.615-.628-2.423-.987A.891.891,0,0,0,57.094,60.941Z" transform="translate(-18.503 -19.388)"/>
  <path id="Path_64" data-name="Path 64" d="M17.9,28.726a.975.975,0,0,0-1.077-.628.975.975,0,0,0-.628,1.077c.269.9.538,1.705.808,2.513a.862.862,0,0,0,.808.538.678.678,0,0,0,.359-.09.934.934,0,0,0,.538-1.167A6.531,6.531,0,0,1,17.9,28.726Z" transform="translate(-14.313 -16.072)"/>
  <path id="Path_65" data-name="Path 65" d="M51.96,57.994a.909.909,0,0,0-.628,1.705c.808.359,1.615.628,2.423.987.09,0,.179.09.359.09a.785.785,0,0,0,.808-.538.934.934,0,0,0-.538-1.167C53.576,58.622,52.768,58.353,51.96,57.994Z" transform="translate(-17.857 -19.133)"/>
  <path id="Path_66" data-name="Path 66" d="M76.939,69.183a.909.909,0,0,0-.987,1.526c.718.449,1.436.987,2.064,1.436a1.276,1.276,0,0,0,.538.179.816.816,0,0,0,.718-.359.965.965,0,0,0-.18-1.256A18.584,18.584,0,0,0,76.939,69.183Z" transform="translate(-20.399 -20.271)"/>
  <path id="Path_67" data-name="Path 67" d="M28.769,45.923c-.179-.179-.359-.269-.538-.449a.891.891,0,1,0-1.167,1.346l.538.538a9.8,9.8,0,0,0,1.526,1.167,1.276,1.276,0,0,0,.538.179.816.816,0,0,0,.718-.359.965.965,0,0,0-.179-1.256C29.756,46.73,29.307,46.282,28.769,45.923Z" transform="translate(-15.397 -17.832)"/>
  <path id="Path_68" data-name="Path 68" d="M73.292,67.049c-.808-.449-1.526-.808-2.333-1.256a.884.884,0,0,0-.718,1.615c.808.359,1.526.808,2.333,1.167a.809.809,0,0,0,.449.09.942.942,0,0,0,.808-.449C73.831,67.767,73.741,67.228,73.292,67.049Z" transform="translate(-19.803 -19.932)"/>
  <path id="Path_69" data-name="Path 69" d="M82.426,73.469a.888.888,0,0,0-1.256,1.256c.628.628,1.167,1.256,1.705,1.795a1.108,1.108,0,0,0,.718.359,1.276,1.276,0,0,0,.538-.179.872.872,0,0,0,.09-1.256A12.319,12.319,0,0,0,82.426,73.469Z" transform="translate(-20.95 -20.698)"/>
  <path id="Path_70" data-name="Path 70" d="M87.07,79.483l-.269-.538a.924.924,0,0,0-1.615.9c.09.179.179.269.269.449a.942.942,0,0,0,.808.449.809.809,0,0,0,.449-.09A.945.945,0,0,0,87.07,79.483Z" transform="translate(-21.376 -21.238)"/>
  <path id="Path_71" data-name="Path 71" d="M18.686,35.749a19.278,19.278,0,0,0,1.256,2.333.942.942,0,0,0,.808.449.673.673,0,0,0,.449-.09.883.883,0,0,0,.269-1.256c-.449-.718-.808-1.436-1.256-2.244a.891.891,0,0,0-1.167-.449A.908.908,0,0,0,18.686,35.749Z" transform="translate(-14.557 -16.722)"/>
  <path id="Path_72" data-name="Path 72" d="M45.659,55.492a.884.884,0,1,0-.718,1.615c.808.359,1.615.718,2.423.987.09,0,.179.09.359.09a.785.785,0,0,0,.808-.538.863.863,0,0,0-.538-1.167A18.212,18.212,0,0,0,45.659,55.492Z" transform="translate(-17.209 -18.876)"/>
  <path id="Path_73" data-name="Path 73" d="M24.716,44.062a.949.949,0,0,0,.718-1.526c-.538-.628-1.077-1.256-1.615-1.974a.9.9,0,0,0-1.436,1.077A18.935,18.935,0,0,0,24.087,43.7.677.677,0,0,0,24.716,44.062Z" transform="translate(-14.933 -17.317)"/>
  <path id="Path_74" data-name="Path 74" d="M35.783,50.729c-.808-.449-1.526-.9-2.244-1.346a.909.909,0,0,0-.987,1.526c.718.449,1.526.9,2.333,1.346a.809.809,0,0,0,.449.09.942.942,0,0,0,.808-.449A.828.828,0,0,0,35.783,50.729Z" transform="translate(-15.949 -18.241)"/>
  <path id="Path_75" data-name="Path 75" d="M15,14.7a.9.9,0,0,0-.9.9c0,.9.09,1.795.09,2.692a.885.885,0,0,0,.9.808h.09a.811.811,0,0,0,.808-.987,24.365,24.365,0,0,1-.09-2.6A.885.885,0,0,0,15,14.7Z" transform="translate(-14.1 -14.7)"/>
  <path id="Path_76" data-name="Path 76" d="M16.4,22.216a.863.863,0,0,0-1.705.269,22.433,22.433,0,0,0,.449,2.6.874.874,0,0,0,.9.718h.179a.931.931,0,0,0,.718-1.077A20.672,20.672,0,0,1,16.4,22.216Z" transform="translate(-14.16 -15.396)"/>
  <path id="Path_77" data-name="Path 77" d="M41.433,55.474a.862.862,0,0,0,.808-.538.891.891,0,0,0-.449-1.167c-.808-.359-1.615-.718-2.333-1.077a.884.884,0,1,0-.718,1.615c.808.359,1.615.808,2.423,1.167Z" transform="translate(-16.574 -18.589)"/>
  <path id="Path_78" data-name="Path 78" d="M67.082,64.069l-2.423-1.077a.884.884,0,0,0-.718,1.615c.808.359,1.615.718,2.423.987a.539.539,0,0,0,.359.09.862.862,0,0,0,.808-.538A.82.82,0,0,0,67.082,64.069Z" transform="translate(-19.158 -19.645)"/>
  <path id="Path_79" data-name="Path 79" d="M87.523,83.2a.852.852,0,0,0-.628,1.077,27.481,27.481,0,0,1,.449,2.872.885.885,0,0,0,.9.808h.09a.811.811,0,0,0,.808-.987c-.09-1.077-.269-2.154-.449-3.141A1.028,1.028,0,0,0,87.523,83.2Z" transform="translate(-21.559 -21.722)"/>
</svg>
