<?xml version="1.0" encoding="UTF-8" standalone="no"?>
<svg
   xmlns:dc="http://purl.org/dc/elements/1.1/"
   xmlns:cc="http://creativecommons.org/ns#"
   xmlns:rdf="http://www.w3.org/1999/02/22-rdf-syntax-ns#"
   xmlns:svg="http://www.w3.org/2000/svg"
   xmlns="http://www.w3.org/2000/svg"
   xmlns:sodipodi="http://sodipodi.sourceforge.net/DTD/sodipodi-0.dtd"
   xmlns:inkscape="http://www.inkscape.org/namespaces/inkscape"
   inkscape:version="1.0 (4035a4f, 2020-05-01)"
   sodipodi:docname="noun_Location_82758.svg"
   id="svg18"
   xml:space="preserve"
   enable-background="new 0 0 100 100"
   viewBox="0 0 100 100"
   y="0px"
   x="0px"
   version="1.1"
   fill="#000000"
   width="100px"
   height="100px"><metadata
     id="metadata24"><rdf:RDF><cc:Work
         rdf:about=""><dc:format>image/svg+xml</dc:format><dc:type
           rdf:resource="http://purl.org/dc/dcmitype/StillImage" /></cc:Work></rdf:RDF></metadata><defs
     id="defs22" /><sodipodi:namedview
     inkscape:current-layer="g16"
     inkscape:window-maximized="1"
     inkscape:window-y="23"
     inkscape:window-x="0"
     inkscape:cy="50.275573"
     inkscape:cx="61.671345"
     inkscape:zoom="4.9924422"
     showgrid="false"
     id="namedview20"
     inkscape:window-height="855"
     inkscape:window-width="1440"
     inkscape:pageshadow="2"
     inkscape:pageopacity="0"
     guidetolerance="10"
     gridtolerance="10"
     objecttolerance="10"
     borderopacity="1"
     bordercolor="#666666"
     pagecolor="#ffffff" /><g
     id="g16"><path
       id="path12"
       d="M38.731,49.214l0.506,1.225c3.705,8.973,7.533,18.25,9.576,27.689v0.075c0,0.647,0.293,1.203,0.757,1.576   c0.387,0.354,0.899,0.564,1.445,0.564c0.08,0,0.163-0.006,0.247-0.015c1.077-0.124,1.895-1.037,1.895-2.126v-0.075   c2.147-9.914,6.207-19.653,10.134-29.074l0.713-1.714c0.607-1.457,1.277-2.925,1.953-4.409c1.687-3.702,3.433-7.53,4.413-11.553   c0.877-3.603,1.024-6.883,0.447-10.024c-1.693-9.323-10.021-16.09-19.798-16.09c-7.397,0-14.628,4.245-17.995,10.561   c-5.09,9.535-0.506,19.597,3.536,28.476C37.328,45.984,38.078,47.628,38.731,49.214z M36.801,17.84   c2.644-4.963,8.359-8.297,14.219-8.297c7.709,0,14.264,5.288,15.587,12.58c0.467,2.54,0.338,5.236-0.396,8.243   c-0.883,3.631-2.542,7.271-4.146,10.791c-0.697,1.526-1.385,3.038-2.011,4.538l-0.71,1.712c-2.999,7.188-6.07,14.562-8.361,22.135   c-2.158-7.092-5.007-13.994-7.789-20.734l-0.503-1.226c-0.675-1.634-1.443-3.322-2.233-5.055   C36.646,34.157,32.705,25.507,36.801,17.84z"
       fill="#000000" /><path
       id="path14"
       d="M51.145,34.678c5.458,0,9.896-4.441,9.896-9.896c0-5.455-4.438-9.896-9.896-9.896   c-5.458,0-9.896,4.441-9.896,9.896C41.249,30.237,45.686,34.678,51.145,34.678z M51.145,19.165c3.096,0,5.616,2.52,5.616,5.617   s-2.521,5.617-5.616,5.617c-3.097,0-5.617-2.52-5.617-5.617S48.048,19.165,51.145,19.165z"
       fill="#000000" /></g></svg>
