<?xml version="1.0" encoding="UTF-8" standalone="no"?>
<svg
   xmlns:dc="http://purl.org/dc/elements/1.1/"
   xmlns:cc="http://creativecommons.org/ns#"
   xmlns:rdf="http://www.w3.org/1999/02/22-rdf-syntax-ns#"
   xmlns:svg="http://www.w3.org/2000/svg"
   xmlns="http://www.w3.org/2000/svg"
   xmlns:sodipodi="http://sodipodi.sourceforge.net/DTD/sodipodi-0.dtd"
   xmlns:inkscape="http://www.inkscape.org/namespaces/inkscape"
   height="100px"
   width="100px"
   fill="#000000"
   version="1.1"
   x="0px"
   y="0px"
   viewBox="0 0 100 100"
   enable-background="new 0 0 100 100"
   xml:space="preserve"
   id="svg20"
   sodipodi:docname="noun_coffee mug_623689.svg"
   inkscape:version="1.0 (4035a4f, 2020-05-01)"><metadata
     id="metadata26"><rdf:RDF><cc:Work
         rdf:about=""><dc:format>image/svg+xml</dc:format><dc:type
           rdf:resource="http://purl.org/dc/dcmitype/StillImage" /><dc:title></dc:title></cc:Work></rdf:RDF></metadata><defs
     id="defs24" /><sodipodi:namedview
     inkscape:guide-bbox="true"
     showguides="true"
     inkscape:document-rotation="0"
     pagecolor="#ffffff"
     bordercolor="#666666"
     borderopacity="1"
     objecttolerance="10"
     gridtolerance="10"
     guidetolerance="10"
     inkscape:pageopacity="0"
     inkscape:pageshadow="2"
     inkscape:window-width="1440"
     inkscape:window-height="855"
     id="namedview22"
     showgrid="false"
     inkscape:zoom="4.479578"
     inkscape:cx="25.1143"
     inkscape:cy="59.426088"
     inkscape:window-x="0"
     inkscape:window-y="23"
     inkscape:window-maximized="0"
     inkscape:current-layer="svg20"><sodipodi:guide
       id="guide19"
       orientation="1,0"
       position="50.00471,103.12529" /><sodipodi:guide
       id="guide21"
       orientation="0,-1"
       position="-77.239419,50.218525" /></sodipodi:namedview><g
     transform="translate(9.60471,0.66970638)"
     id="g18"><g
       id="g16"><path
         id="path12"
         d="M 80.5,71 C 83,66.5 83.1,62 80.9,58.8 78.5,56 72.3,58.4 69,60.1 c -0.4,0.2 -0.7,0.6 -0.7,1.1 -0.4,4.9 -1,11.7 -2.1,17.6 -0.2,0.9 0.6,1.7 1.5,1.6 C 73.6,79.6 78,75.5 80.5,71 Z M 11.9,49.1 c 0,-6.2 25.6,-6.4 28.5,-6.4 2.9,0 28.5,0.2 28.5,6.4 0,0.7 0,1.5 0,2.3 0,1.1 0.9,2.4 2.1,1.8 0,0 0,0 0,0 6.5,-3.1 11,-2 14.3,2.1 l 0.1,0.1 c 3.6,5 3.6,11.8 0,18.3 -1.7,3.1 -4.3,6.1 -7.6,8.4 -3.3,2.4 -7.2,4 -11.5,4.4 -1.5,0.5 -2.7,1.8 -3.5,2.9 -0.2,0.3 -0.4,0.7 -0.6,0.9 C 62,90.8 61.9,91 61.9,91 61.1,92.3 59,93.3 55,94 51,94.7 45.9,95.1 40.3,95.1 34.7,95.1 29.7,94.7 25.7,94 21.4,93.2 19.2,92.2 18.7,90.6 13.2,84 11.9,54.4 11.9,49.1 Z m 28.5,-3.5 c -11.1,0 -18.6,1.1 -22.6,2.3 -1.3,0.4 -1.3,2.2 0,2.6 3.9,1.1 11.4,2.3 22.6,2.3 11.2,0 18.6,-1.2 22.6,-2.4 1.3,-0.4 1.3,-2.2 0,-2.6 -4,-1.1 -11.5,-2.2 -22.6,-2.2 z"
         fill="#000000" /></g></g></svg>
