<svg height='100px' width='100px'  fill="#000000" xmlns="http://www.w3.org/2000/svg" xmlns:xlink="http://www.w3.org/1999/xlink" version="1.0" x="0px" y="0px" viewBox="0 0 100 100" enable-background="new 0 0 100 100" xml:space="preserve"><g><path d="M64.979,65.431c0-1.599-2.181-2.616-5.016-3.236l-2.591-7.569c2.291-1.885,3.756-4.74,3.756-7.933   c0-4.211-2.544-7.945-6.397-9.511v-4.647c0-0.536-0.435-0.97-0.97-0.97h-0.176v-3.592l6.258-4.895h0.005   c0.536,0,0.97-0.434,0.97-0.969v-3.14c0-0.536-0.434-0.97-0.97-0.97H41.869c-0.536,0-0.97,0.434-0.97,0.97v3.14   c0,0.535,0.434,0.969,0.97,0.969h0.006l6.257,4.895v1.548h-1.517v-0.333c0-0.032-0.016-0.061-0.019-0.092   c0.194-0.224,0.323-0.508,0.323-0.827c0-0.702-0.57-1.272-1.274-1.272c-0.702,0-1.272,0.57-1.272,1.272   c0,0.319,0.128,0.602,0.321,0.825c-0.003,0.032-0.019,0.061-0.019,0.094v1.303c0,0.536,0.434,0.97,0.97,0.97h2.486v0.104h-0.176   c-0.535,0-0.97,0.434-0.97,0.97v4.647c-3.854,1.565-6.397,5.3-6.397,9.511c0,0.787,0.098,1.551,0.266,2.288H35.99   c-0.536,0-0.97,0.434-0.97,0.97v1.718c0,0.535,0.434,0.97,0.97,0.97s0.97-0.435,0.97-0.97V50.92h4.55   c0.655,1.441,1.626,2.711,2.835,3.705l-2.59,7.569c-2.836,0.62-5.017,1.638-5.017,3.236c0,0.029,0.014,0.056,0.015,0.084   c-0.002,0.025-0.015,0.048-0.015,0.073v12.323c0,3.229,8.876,4.089,14.121,4.089c5.244,0,14.12-0.861,14.12-4.09V65.588   c0-0.025-0.013-0.048-0.015-0.073C64.966,65.486,64.979,65.46,64.979,65.431z M52.792,33.504V43.59h-3.866V33.504h0.176h3.515   H52.792z M42.839,19.939h16.04v1.2h-16.04V19.939z M56.694,23.078l-4.412,3.451h-2.847l-4.412-3.451H56.694z M50.071,28.469h1.575   v3.096h-1.575V28.469z M50.859,48.98h-8.004c-0.209-0.729-0.327-1.494-0.327-2.288c0-3.142,1.746-5.956,4.458-7.376v5.243   c0,0.536,0.435,0.97,0.97,0.97h5.806c0.535,0,0.97-0.434,0.97-0.97v-5.243c2.712,1.419,4.458,4.233,4.458,7.376   c0,4.594-3.736,8.33-8.33,8.33c-3.05,0-5.714-1.651-7.166-4.103h7.166c0.535,0,0.969-0.435,0.969-0.97   C51.828,49.414,51.395,48.98,50.859,48.98z M46.014,55.742c1.444,0.777,3.094,1.22,4.846,1.22c1.751,0,3.4-0.442,4.845-1.219   l2.077,6.063c-2.372-0.337-4.913-0.466-6.922-0.466c-2.01,0-4.55,0.129-6.922,0.466L46.014,55.742z M50.859,63.28   c7.252,0,11.6,1.347,12.155,2.15c-0.557,0.804-4.904,2.149-12.155,2.149c-4.85,0-8.392-0.602-10.379-1.241   c-0.021-0.01-0.046-0.014-0.069-0.021c-0.944-0.31-1.528-0.627-1.708-0.887C39.259,64.627,43.606,63.28,50.859,63.28z    M50.859,80.061c-7.445,0-11.829-1.419-12.182-2.15V67.669c0.143,0.069,0.285,0.138,0.439,0.202v5.182   c0,0.536,0.434,0.97,0.97,0.97s0.97-0.434,0.97-0.97v-4.554c2.994,0.76,6.937,1.021,9.803,1.021c3.729,0,9.277-0.44,12.183-1.852   l0.008,10.181C62.688,78.642,58.303,80.061,50.859,80.061z"></path><circle cx="50.859" cy="46.692" r="1.007"></circle><path d="M40.087,74.571c-0.536,0-0.97,0.434-0.97,0.97v0.908c0,0.535,0.434,0.97,0.97,0.97s0.97-0.435,0.97-0.97v-0.908   C41.057,75.005,40.623,74.571,40.087,74.571z"></path></g></svg>